<ttFont>
    <TTGlyph name=".notdef" xMin="65" yMin="-100" xMax="1938" yMax="1309">
      <contour>
        <pt x="1165" y="532" on="1"/>
        <pt x="1356" y="385" on="1"/>
        <pt x="1364" y="387" on="0"/>
        <pt x="1412" y="447" on="0"/>
        <pt x="1411" y="455" on="1"/>
        <pt x="1397" y="468" on="0"/>
        <pt x="1270" y="575" on="0"/>
        <pt x="1227" y="614" on="1"/>
        <pt x="1253" y="649" on="0"/>
        <pt x="1320" y="737" on="0"/>
        <pt x="1365" y="796" on="0"/>
        <pt x="1376" y="813" on="1"/>
        <pt x="1331" y="852" on="0"/>
        <pt x="1300" y="866" on="1"/>
        <pt x="1149" y="676" on="1"/>
        <pt x="1019" y="779" on="0"/>
        <pt x="950" y="825" on="1"/>
        <pt x="909" y="778" on="0"/>
        <pt x="897" y="745" on="1"/>
        <pt x="1083" y="598" on="1"/>
        <pt x="936" y="408" on="1"/>
        <pt x="937" y="398" on="0"/>
        <pt x="998" y="350" on="0"/>
        <pt x="1006" y="352" on="1"/>
      </contour>
      <contour>
        <pt x="1935" y="1161" on="1"/>
        <pt x="1804" y="1026" on="1"/>
        <pt x="1802" y="1028" on="1"/>
        <pt x="1797" y="544" on="0"/>
        <pt x="1309" y="211" on="1"/>
        <pt x="1309" y="202" on="0"/>
        <pt x="1304" y="182" on="0"/>
        <pt x="1286" y="162" on="0"/>
        <pt x="1272" y="162" on="1"/>
        <pt x="1247" y="137" on="1"/>
        <pt x="1364" y="97" on="0"/>
        <pt x="1442" y="59" on="1"/>
        <pt x="1447" y="59" on="0"/>
        <pt x="1491" y="61" on="0"/>
        <pt x="1515" y="59" on="0"/>
        <pt x="1556" y="53" on="0"/>
        <pt x="1594" y="36" on="0"/>
        <pt x="1612" y="23" on="1"/>
        <pt x="1612" y="20" on="0"/>
        <pt x="1612" y="16" on="0"/>
        <pt x="1610" y="13" on="0"/>
        <pt x="1609" y="12" on="0"/>
        <pt x="1605" y="9" on="0"/>
        <pt x="1604" y="8" on="1"/>
        <pt x="1579" y="20" on="0"/>
        <pt x="1553" y="31" on="0"/>
        <pt x="1509" y="38" on="0"/>
        <pt x="1485" y="35" on="1"/>
        <pt x="1534" y="7" on="0"/>
        <pt x="1553" y="-16" on="1"/>
        <pt x="1557" y="-21" on="0"/>
        <pt x="1561" y="-27" on="1"/>
        <pt x="1558" y="-36" on="0"/>
        <pt x="1542" y="-39" on="1"/>
        <pt x="1474" y="29" on="0"/>
        <pt x="1411" y="27" on="1"/>
        <pt x="1398" y="27" on="0"/>
        <pt x="1379" y="26" on="0"/>
        <pt x="1356" y="19" on="0"/>
        <pt x="1348" y="16" on="0"/>
        <pt x="1313" y="0" on="0"/>
        <pt x="1307" y="-2" on="1"/>
        <pt x="1305" y="0" on="0"/>
        <pt x="1300" y="1" on="0"/>
        <pt x="1297" y="1" on="0"/>
        <pt x="1295" y="5" on="0"/>
        <pt x="1294" y="10" on="1"/>
        <pt x="1304" y="21" on="0"/>
        <pt x="1325" y="35" on="0"/>
        <pt x="1339" y="40" on="0"/>
        <pt x="1372" y="50" on="0"/>
        <pt x="1382" y="53" on="1"/>
        <pt x="1345" y="73" on="0"/>
        <pt x="1253" y="107" on="0"/>
        <pt x="1204" y="124" on="0"/>
        <pt x="1204" y="131" on="1"/>
        <pt x="1204" y="144" on="0"/>
        <pt x="1227" y="162" on="1"/>
        <pt x="1212" y="162" on="0"/>
        <pt x="1191" y="190" on="0"/>
        <pt x="1188" y="201" on="1"/>
        <pt x="1133" y="201" on="1"/>
        <pt x="1072" y="201" on="0"/>
        <pt x="1020" y="209" on="1"/>
        <pt x="1000" y="155" on="0"/>
        <pt x="965" y="162" on="1"/>
        <pt x="944" y="151" on="0"/>
        <pt x="934" y="141" on="1"/>
        <pt x="945" y="134" on="0"/>
        <pt x="1004" y="97" on="0"/>
        <pt x="1037" y="76" on="0"/>
        <pt x="1086" y="41" on="0"/>
        <pt x="1106" y="25" on="1"/>
        <pt x="1115" y="23" on="0"/>
        <pt x="1166" y="14" on="0"/>
        <pt x="1194" y="6" on="0"/>
        <pt x="1237" y="-21" on="0"/>
        <pt x="1253" y="-43" on="1"/>
        <pt x="1253" y="-48" on="0"/>
        <pt x="1251" y="-51" on="0"/>
        <pt x="1245" y="-55" on="0"/>
        <pt x="1243" y="-57" on="1"/>
        <pt x="1216" y="-33" on="0"/>
        <pt x="1182" y="-16" on="0"/>
        <pt x="1143" y="-10" on="1"/>
        <pt x="1184" y="-37" on="0"/>
        <pt x="1198" y="-90" on="1"/>
        <pt x="1194" y="-100" on="0"/>
        <pt x="1182" y="-98" on="1"/>
        <pt x="1129" y="-13" on="0"/>
        <pt x="1073" y="-2" on="1"/>
        <pt x="1010" y="7" on="0"/>
        <pt x="930" y="-12" on="1"/>
        <pt x="924" y="-3" on="0"/>
        <pt x="924" y="4" on="1"/>
        <pt x="929" y="7" on="0"/>
        <pt x="939" y="13" on="0"/>
        <pt x="949" y="17" on="0"/>
        <pt x="962" y="21" on="0"/>
        <pt x="970" y="23" on="0"/>
        <pt x="986" y="25" on="0"/>
        <pt x="993" y="26" on="0"/>
        <pt x="1011" y="28" on="0"/>
        <pt x="1017" y="28" on="0"/>
        <pt x="1038" y="29" on="0"/>
        <pt x="1040" y="29" on="1"/>
        <pt x="1013" y="51" on="0"/>
        <pt x="931" y="104" on="0"/>
        <pt x="887" y="135" on="0"/>
        <pt x="887" y="145" on="1"/>
        <pt x="887" y="152" on="0"/>
        <pt x="892" y="159" on="0"/>
        <pt x="908" y="170" on="0"/>
        <pt x="913" y="174" on="1"/>
        <pt x="894" y="194" on="0"/>
        <pt x="899" y="240" on="1"/>
        <pt x="817" y="285" on="0"/>
        <pt x="677" y="403" on="0"/>
        <pt x="571" y="535" on="0"/>
        <pt x="505" y="633" on="0"/>
        <pt x="469" y="693" on="1"/>
        <pt x="464" y="703" on="0"/>
        <pt x="461" y="707" on="1"/>
        <pt x="451" y="710" on="0"/>
        <pt x="375" y="736" on="0"/>
        <pt x="351" y="744" on="0"/>
        <pt x="285" y="767" on="0"/>
        <pt x="256" y="779" on="0"/>
        <pt x="200" y="801" on="0"/>
        <pt x="169" y="817" on="0"/>
        <pt x="127" y="839" on="0"/>
        <pt x="94" y="860" on="0"/>
        <pt x="80" y="872" on="1"/>
        <pt x="65" y="885" on="0"/>
        <pt x="73" y="918" on="0"/>
        <pt x="92" y="918" on="1"/>
        <pt x="616" y="872" on="1"/>
        <pt x="690" y="887" on="0"/>
        <pt x="862" y="921" on="0"/>
        <pt x="965" y="940" on="0"/>
        <pt x="1082" y="964" on="0"/>
        <pt x="1149" y="981" on="0"/>
        <pt x="1220" y="1002" on="0"/>
        <pt x="1261" y="1024" on="0"/>
        <pt x="1296" y="1050" on="0"/>
        <pt x="1307" y="1067" on="1"/>
        <pt x="1368" y="1175" on="0"/>
        <pt x="1497" y="1268" on="0"/>
        <pt x="1585" y="1268" on="1"/>
        <pt x="1638" y="1268" on="0"/>
        <pt x="1681" y="1253" on="1"/>
        <pt x="1681" y="1255" on="1"/>
        <pt x="1833" y="1309" on="1"/>
        <pt x="1839" y="1309" on="0"/>
        <pt x="1839" y="1305" on="1"/>
        <pt x="1839" y="1303" on="1"/>
        <pt x="1788" y="1161" on="1"/>
        <pt x="1931" y="1167" on="1"/>
        <pt x="1938" y="1167" on="0"/>
      </contour>
    </TTGlyph>
    <TTGlyph name="A" xMin="-4" yMin="0" xMax="1483" yMax="1475">
      <contour>
        <pt x="979" y="485" on="1"/>
        <pt x="451" y="485" on="1"/>
        <pt x="305" y="94" on="1"/>
        <pt x="473" y="41" on="1"/>
        <pt x="473" y="0" on="1"/>
        <pt x="-4" y="0" on="1"/>
        <pt x="-4" y="41" on="1"/>
        <pt x="170" y="113" on="1"/>
        <pt x="692" y="1475" on="1"/>
        <pt x="784" y="1475" on="1"/>
        <pt x="1319" y="113" on="1"/>
        <pt x="1483" y="41" on="1"/>
        <pt x="1483" y="0" on="1"/>
        <pt x="971" y="0" on="1"/>
        <pt x="971" y="41" on="1"/>
        <pt x="1133" y="94" on="1"/>
      </contour>
      <contour>
        <pt x="707" y="1169" on="1"/>
        <pt x="492" y="592" on="1"/>
        <pt x="938" y="592" on="1"/>
        <pt x="715" y="1169" on="1"/>
      </contour>
    </TTGlyph>
    <TTGlyph name="AE" xMin="31" yMin="-27" xMax="1882" yMax="1501">
      <contour>
        <pt x="1010" y="0" on="1"/>
        <pt x="1010" y="485" on="1"/>
        <pt x="557" y="485" on="1"/>
        <pt x="344" y="96" on="1"/>
        <pt x="563" y="41" on="1"/>
        <pt x="563" y="0" on="1"/>
        <pt x="31" y="0" on="1"/>
        <pt x="31" y="41" on="1"/>
        <pt x="205" y="113" on="1"/>
        <pt x="948" y="1475" on="1"/>
        <pt x="1640" y="1475" on="1"/>
        <pt x="1831" y="1501" on="1"/>
        <pt x="1862" y="1475" on="1"/>
        <pt x="1862" y="1073" on="1"/>
        <pt x="1821" y="1073" on="1"/>
        <pt x="1694" y="1368" on="1"/>
        <pt x="1204" y="1368" on="1"/>
        <pt x="1204" y="805" on="1"/>
        <pt x="1620" y="825" on="1"/>
        <pt x="1659" y="811" on="1"/>
        <pt x="1638" y="678" on="1"/>
        <pt x="1204" y="694" on="1"/>
        <pt x="1204" y="106" on="1"/>
        <pt x="1714" y="106" on="1"/>
        <pt x="1841" y="401" on="1"/>
        <pt x="1882" y="401" on="1"/>
        <pt x="1882" y="0" on="1"/>
        <pt x="1851" y="-27" on="1"/>
        <pt x="1661" y="0" on="1"/>
      </contour>
      <contour>
        <pt x="1010" y="1313" on="1"/>
        <pt x="614" y="592" on="1"/>
        <pt x="1010" y="592" on="1"/>
      </contour>
    </TTGlyph>
    <TTGlyph name="Aacute" xMin="-4" yMin="0" xMax="1483" yMax="1878">
      <component glyphName="A" x="0" y="0" flags="0x204"/>
      <component glyphName="acute.case" x="572" y="0" flags="0x4"/>
    </TTGlyph>
    <TTGlyph name="Acircumflex" xMin="-4" yMin="0" xMax="1483" yMax="1903">
      <component glyphName="A" x="0" y="0" flags="0x204"/>
      <component glyphName="circumflex.case" x="370" y="0" flags="0x4"/>
    </TTGlyph>
    <TTGlyph name="Adieresis" xMin="-4" yMin="0" xMax="1483" yMax="1868">
      <component glyphName="A" x="0" y="0" flags="0x204"/>
      <component glyphName="dieresis.case" x="343" y="0" flags="0x4"/>
    </TTGlyph>
    <TTGlyph name="Agrave" xMin="-4" yMin="0" xMax="1483" yMax="1878">
      <component glyphName="A" x="0" y="0" flags="0x204"/>
      <component glyphName="grave.case" x="433" y="0" flags="0x4"/>
    </TTGlyph>
    <TTGlyph name="Aring" xMin="-4" yMin="0" xMax="1483" yMax="1952">
      <component glyphName="A" x="0" y="0" flags="0x204"/>
      <component glyphName="ring" x="478" y="350" flags="0x4"/>
    </TTGlyph>
    <TTGlyph name="Atilde" xMin="-4" yMin="0" xMax="1483" yMax="1826">
      <component glyphName="A" x="0" y="0" flags="0x204"/>
      <component glyphName="tilde.case" x="345" y="0" flags="0x4"/>
    </TTGlyph>
    <TTGlyph name="B" xMin="113" yMin="0" xMax="1280" yMax="1475">
      <contour>
        <pt x="1194" y="1128" on="1"/>
        <pt x="1194" y="1009" on="0"/>
        <pt x="1066" y="845" on="0"/>
        <pt x="958" y="797" on="1"/>
        <pt x="958" y="786" on="1"/>
        <pt x="1109" y="741" on="0"/>
        <pt x="1280" y="547" on="0"/>
        <pt x="1280" y="410" on="1"/>
        <pt x="1280" y="217" on="0"/>
        <pt x="998" y="0" on="0"/>
        <pt x="735" y="0" on="1"/>
        <pt x="113" y="0" on="1"/>
        <pt x="113" y="41" on="1"/>
        <pt x="297" y="113" on="1"/>
        <pt x="297" y="1362" on="1"/>
        <pt x="113" y="1434" on="1"/>
        <pt x="113" y="1475" on="1"/>
        <pt x="664" y="1475" on="1"/>
        <pt x="944" y="1475" on="0"/>
        <pt x="1194" y="1295" on="0"/>
      </contour>
      <contour>
        <pt x="492" y="729" on="1"/>
        <pt x="492" y="106" on="1"/>
        <pt x="762" y="106" on="1"/>
        <pt x="861" y="106" on="0"/>
        <pt x="1004" y="199" on="0"/>
        <pt x="1069" y="336" on="0"/>
        <pt x="1069" y="414" on="1"/>
        <pt x="1069" y="472" on="0"/>
        <pt x="1029" y="582" on="0"/>
        <pt x="955" y="673" on="0"/>
        <pt x="835" y="729" on="0"/>
        <pt x="762" y="729" on="1"/>
      </contour>
      <contour>
        <pt x="492" y="836" on="1"/>
        <pt x="715" y="836" on="1"/>
        <pt x="849" y="836" on="0"/>
        <pt x="987" y="993" on="0"/>
        <pt x="987" y="1112" on="1"/>
        <pt x="987" y="1235" on="0"/>
        <pt x="850" y="1368" on="0"/>
        <pt x="692" y="1368" on="1"/>
        <pt x="492" y="1368" on="1"/>
      </contour>
    </TTGlyph>
    <TTGlyph name="C" xMin="123" yMin="-25" xMax="1255" yMax="1507">
      <contour>
        <pt x="1255" y="37" on="1"/>
        <pt x="1080" y="-25" on="0"/>
        <pt x="897" y="-25" on="1"/>
        <pt x="773" y="-25" on="0"/>
        <pt x="548" y="30" on="0"/>
        <pt x="351" y="150" on="0"/>
        <pt x="206" y="322" on="0"/>
        <pt x="123" y="571" on="0"/>
        <pt x="123" y="721" on="1"/>
        <pt x="123" y="909" on="0"/>
        <pt x="245" y="1212" on="0"/>
        <pt x="456" y="1405" on="0"/>
        <pt x="736" y="1507" on="0"/>
        <pt x="897" y="1507" on="1"/>
        <pt x="1067" y="1507" on="0"/>
        <pt x="1241" y="1452" on="1"/>
        <pt x="1239" y="1071" on="1"/>
        <pt x="1198" y="1071" on="1"/>
        <pt x="1073" y="1356" on="1"/>
        <pt x="989" y="1393" on="0"/>
        <pt x="852" y="1393" on="1"/>
        <pt x="772" y="1393" on="0"/>
        <pt x="630" y="1351" on="0"/>
        <pt x="499" y="1253" on="0"/>
        <pt x="404" y="1104" on="0"/>
        <pt x="348" y="876" on="0"/>
        <pt x="348" y="733" on="1"/>
        <pt x="348" y="581" on="0"/>
        <pt x="437" y="332" on="0"/>
        <pt x="591" y="171" on="0"/>
        <pt x="794" y="84" on="0"/>
        <pt x="909" y="84" on="1"/>
        <pt x="1011" y="84" on="0"/>
        <pt x="1102" y="113" on="1"/>
        <pt x="1212" y="442" on="1"/>
        <pt x="1253" y="442" on="1"/>
      </contour>
    </TTGlyph>
    <TTGlyph name="Ccedilla" xMin="123" yMin="-492" xMax="1255" yMax="1507">
      <contour>
        <pt x="1255" y="37" on="1"/>
        <pt x="1081" y="-24" on="0"/>
        <pt x="899" y="-25" on="1"/>
        <pt x="885" y="-82" on="1"/>
        <pt x="990" y="-86" on="0"/>
        <pt x="1110" y="-192" on="0"/>
        <pt x="1110" y="-270" on="1"/>
        <pt x="1110" y="-330" on="0"/>
        <pt x="1065" y="-419" on="0"/>
        <pt x="986" y="-469" on="0"/>
        <pt x="892" y="-492" on="0"/>
        <pt x="836" y="-492" on="1"/>
        <pt x="760" y="-492" on="0"/>
        <pt x="686" y="-473" on="1"/>
        <pt x="686" y="-397" on="1"/>
        <pt x="747" y="-406" on="0"/>
        <pt x="776" y="-406" on="1"/>
        <pt x="948" y="-406" on="0"/>
        <pt x="948" y="-272" on="1"/>
        <pt x="948" y="-150" on="0"/>
        <pt x="803" y="-127" on="1"/>
        <pt x="828" y="-23" on="1"/>
        <pt x="741" y="-17" on="0"/>
        <pt x="660" y="2" on="1"/>
        <pt x="548" y="30" on="0"/>
        <pt x="351" y="150" on="0"/>
        <pt x="206" y="322" on="0"/>
        <pt x="123" y="571" on="0"/>
        <pt x="123" y="721" on="1"/>
        <pt x="123" y="909" on="0"/>
        <pt x="245" y="1212" on="0"/>
        <pt x="456" y="1405" on="0"/>
        <pt x="736" y="1507" on="0"/>
        <pt x="897" y="1507" on="1"/>
        <pt x="1067" y="1507" on="0"/>
        <pt x="1241" y="1452" on="1"/>
        <pt x="1239" y="1071" on="1"/>
        <pt x="1198" y="1071" on="1"/>
        <pt x="1073" y="1356" on="1"/>
        <pt x="989" y="1393" on="0"/>
        <pt x="852" y="1393" on="1"/>
        <pt x="772" y="1393" on="0"/>
        <pt x="630" y="1351" on="0"/>
        <pt x="499" y="1253" on="0"/>
        <pt x="404" y="1104" on="0"/>
        <pt x="348" y="876" on="0"/>
        <pt x="348" y="733" on="1"/>
        <pt x="348" y="581" on="0"/>
        <pt x="437" y="332" on="0"/>
        <pt x="591" y="171" on="0"/>
        <pt x="794" y="84" on="0"/>
        <pt x="909" y="84" on="1"/>
        <pt x="1011" y="84" on="0"/>
        <pt x="1102" y="113" on="1"/>
        <pt x="1212" y="442" on="1"/>
        <pt x="1253" y="442" on="1"/>
      </contour>
    </TTGlyph>
    <TTGlyph name="D" xMin="113" yMin="0" xMax="1448" yMax="1475">
      <contour>
        <pt x="113" y="1475" on="1"/>
        <pt x="733" y="1475" on="1"/>
        <pt x="890" y="1475" on="0"/>
        <pt x="1150" y="1380" on="0"/>
        <pt x="1341" y="1198" on="0"/>
        <pt x="1448" y="915" on="0"/>
        <pt x="1448" y="735" on="1"/>
        <pt x="1448" y="519" on="0"/>
        <pt x="1266" y="184" on="0"/>
        <pt x="940" y="0" on="0"/>
        <pt x="731" y="0" on="1"/>
        <pt x="113" y="0" on="1"/>
        <pt x="113" y="41" on="1"/>
        <pt x="297" y="113" on="1"/>
        <pt x="297" y="1362" on="1"/>
        <pt x="113" y="1434" on="1"/>
      </contour>
      <contour>
        <pt x="719" y="1368" on="1"/>
        <pt x="492" y="1368" on="1"/>
        <pt x="492" y="106" on="1"/>
        <pt x="725" y="106" on="1"/>
        <pt x="826" y="106" on="0"/>
        <pt x="1009" y="184" on="0"/>
        <pt x="1152" y="332" on="0"/>
        <pt x="1237" y="568" on="0"/>
        <pt x="1237" y="715" on="1"/>
        <pt x="1237" y="1030" on="0"/>
        <pt x="967" y="1368" on="0"/>
      </contour>
    </TTGlyph>
    <TTGlyph name="E" xMin="113" yMin="0" xMax="1167" yMax="1501">
      <contour>
        <pt x="113" y="0" on="1"/>
        <pt x="113" y="41" on="1"/>
        <pt x="297" y="113" on="1"/>
        <pt x="297" y="1362" on="1"/>
        <pt x="113" y="1434" on="1"/>
        <pt x="113" y="1475" on="1"/>
        <pt x="926" y="1475" on="1"/>
        <pt x="1116" y="1501" on="1"/>
        <pt x="1147" y="1475" on="1"/>
        <pt x="1147" y="1073" on="1"/>
        <pt x="1106" y="1073" on="1"/>
        <pt x="979" y="1368" on="1"/>
        <pt x="492" y="1368" on="1"/>
        <pt x="492" y="805" on="1"/>
        <pt x="907" y="825" on="1"/>
        <pt x="946" y="811" on="1"/>
        <pt x="926" y="678" on="1"/>
        <pt x="492" y="694" on="1"/>
        <pt x="492" y="106" on="1"/>
        <pt x="999" y="106" on="1"/>
        <pt x="1126" y="401" on="1"/>
        <pt x="1167" y="401" on="1"/>
        <pt x="1167" y="0" on="1"/>
      </contour>
    </TTGlyph>
    <TTGlyph name="Eacute" xMin="113" yMin="0" xMax="1167" yMax="1878">
      <component glyphName="E" x="0" y="0" flags="0x204"/>
      <component glyphName="acute.case" x="476" y="0" flags="0x4"/>
    </TTGlyph>
    <TTGlyph name="Ecircumflex" xMin="113" yMin="0" xMax="1167" yMax="1903">
      <component glyphName="E" x="0" y="0" flags="0x204"/>
      <component glyphName="circumflex.case" x="325" y="0" flags="0x4"/>
    </TTGlyph>
    <TTGlyph name="Edieresis" xMin="113" yMin="0" xMax="1167" yMax="1868">
      <component glyphName="E" x="0" y="0" flags="0x204"/>
      <component glyphName="dieresis.case" x="307" y="0" flags="0x4"/>
    </TTGlyph>
    <TTGlyph name="Egrave" xMin="113" yMin="0" xMax="1167" yMax="1878">
      <component glyphName="E" x="0" y="0" flags="0x204"/>
      <component glyphName="grave.case" x="407" y="0" flags="0x4"/>
    </TTGlyph>
    <TTGlyph name="Eth" xMin="113" yMin="0" xMax="1485" yMax="1475">
      <contour>
        <pt x="150" y="1475" on="1"/>
        <pt x="770" y="1475" on="1"/>
        <pt x="927" y="1475" on="0"/>
        <pt x="1187" y="1380" on="0"/>
        <pt x="1378" y="1198" on="0"/>
        <pt x="1485" y="915" on="0"/>
        <pt x="1485" y="735" on="1"/>
        <pt x="1485" y="519" on="0"/>
        <pt x="1303" y="184" on="0"/>
        <pt x="977" y="0" on="0"/>
        <pt x="768" y="0" on="1"/>
        <pt x="150" y="0" on="1"/>
        <pt x="150" y="41" on="1"/>
        <pt x="334" y="113" on="1"/>
        <pt x="334" y="678" on="1"/>
        <pt x="113" y="678" on="1"/>
        <pt x="113" y="801" on="1"/>
        <pt x="334" y="801" on="1"/>
        <pt x="334" y="1362" on="1"/>
        <pt x="150" y="1434" on="1"/>
      </contour>
      <contour>
        <pt x="756" y="1368" on="1"/>
        <pt x="528" y="1368" on="1"/>
        <pt x="528" y="801" on="1"/>
        <pt x="891" y="801" on="1"/>
        <pt x="891" y="678" on="1"/>
        <pt x="528" y="678" on="1"/>
        <pt x="528" y="106" on="1"/>
        <pt x="762" y="106" on="1"/>
        <pt x="863" y="106" on="0"/>
        <pt x="1046" y="184" on="0"/>
        <pt x="1189" y="332" on="0"/>
        <pt x="1274" y="568" on="0"/>
        <pt x="1274" y="715" on="1"/>
        <pt x="1274" y="1030" on="0"/>
        <pt x="1004" y="1368" on="0"/>
      </contour>
    </TTGlyph>
    <TTGlyph name="Euro" xMin="-16" yMin="-25" xMax="1221" yMax="1503">
      <contour>
        <pt x="-16" y="678" on="1"/>
        <pt x="123" y="678" on="1"/>
        <pt x="123" y="733" on="1"/>
        <pt x="123" y="768" on="0"/>
        <pt x="125" y="786" on="1"/>
        <pt x="-16" y="786" on="1"/>
        <pt x="-16" y="909" on="1"/>
        <pt x="139" y="909" on="1"/>
        <pt x="190" y="1176" on="0"/>
        <pt x="563" y="1503" on="0"/>
        <pt x="809" y="1503" on="1"/>
        <pt x="999" y="1503" on="0"/>
        <pt x="1194" y="1452" on="1"/>
        <pt x="1083" y="1079" on="1"/>
        <pt x="1022" y="1079" on="1"/>
        <pt x="1022" y="1352" on="1"/>
        <pt x="924" y="1393" on="0"/>
        <pt x="795" y="1393" on="1"/>
        <pt x="628" y="1393" on="0"/>
        <pt x="408" y="1128" on="0"/>
        <pt x="375" y="909" on="1"/>
        <pt x="866" y="909" on="1"/>
        <pt x="846" y="786" on="1"/>
        <pt x="362" y="786" on="1"/>
        <pt x="362" y="733" on="1"/>
        <pt x="362" y="678" on="1"/>
        <pt x="805" y="678" on="1"/>
        <pt x="784" y="555" on="1"/>
        <pt x="375" y="555" on="1"/>
        <pt x="408" y="328" on="0"/>
        <pt x="648" y="100" on="0"/>
        <pt x="834" y="100" on="1"/>
        <pt x="1006" y="100" on="0"/>
        <pt x="1196" y="199" on="1"/>
        <pt x="1221" y="145" on="1"/>
        <pt x="1138" y="67" on="0"/>
        <pt x="904" y="-25" on="0"/>
        <pt x="782" y="-25" on="1"/>
        <pt x="527" y="-25" on="0"/>
        <pt x="182" y="288" on="0"/>
        <pt x="137" y="555" on="1"/>
        <pt x="-16" y="555" on="1"/>
      </contour>
    </TTGlyph>
    <TTGlyph name="F" xMin="113" yMin="0" xMax="1085" yMax="1501">
      <contour>
        <pt x="492" y="113" on="1"/>
        <pt x="737" y="41" on="1"/>
        <pt x="737" y="0" on="1"/>
        <pt x="113" y="0" on="1"/>
        <pt x="113" y="41" on="1"/>
        <pt x="297" y="113" on="1"/>
        <pt x="297" y="1362" on="1"/>
        <pt x="113" y="1434" on="1"/>
        <pt x="113" y="1475" on="1"/>
        <pt x="864" y="1475" on="1"/>
        <pt x="1055" y="1501" on="1"/>
        <pt x="1085" y="1475" on="1"/>
        <pt x="1085" y="1071" on="1"/>
        <pt x="1042" y="1071" on="1"/>
        <pt x="915" y="1368" on="1"/>
        <pt x="492" y="1368" on="1"/>
        <pt x="492" y="784" on="1"/>
        <pt x="907" y="805" on="1"/>
        <pt x="946" y="791" on="1"/>
        <pt x="926" y="657" on="1"/>
        <pt x="492" y="674" on="1"/>
      </contour>
    </TTGlyph>
    <TTGlyph name="G" xMin="123" yMin="-27" xMax="1362" yMax="1507">
      <contour>
        <pt x="1321" y="74" on="1"/>
        <pt x="1263" y="46" on="0"/>
        <pt x="1156" y="8" on="0"/>
        <pt x="1051" y="-16" on="0"/>
        <pt x="944" y="-27" on="0"/>
        <pt x="887" y="-27" on="1"/>
        <pt x="786" y="-27" on="0"/>
        <pt x="595" y="17" on="0"/>
        <pt x="425" y="102" on="0"/>
        <pt x="283" y="229" on="0"/>
        <pt x="180" y="396" on="0"/>
        <pt x="123" y="600" on="0"/>
        <pt x="123" y="721" on="1"/>
        <pt x="123" y="851" on="0"/>
        <pt x="185" y="1069" on="0"/>
        <pt x="295" y="1244" on="0"/>
        <pt x="448" y="1375" on="0"/>
        <pt x="632" y="1463" on="0"/>
        <pt x="839" y="1507" on="0"/>
        <pt x="948" y="1507" on="1"/>
        <pt x="1131" y="1507" on="0"/>
        <pt x="1296" y="1452" on="1"/>
        <pt x="1294" y="1071" on="1"/>
        <pt x="1253" y="1071" on="1"/>
        <pt x="1130" y="1354" on="1"/>
        <pt x="1031" y="1386" on="0"/>
        <pt x="922" y="1386" on="1"/>
        <pt x="811" y="1386" on="0"/>
        <pt x="605" y="1311" on="0"/>
        <pt x="447" y="1153" on="0"/>
        <pt x="352" y="905" on="0"/>
        <pt x="352" y="733" on="1"/>
        <pt x="352" y="572" on="0"/>
        <pt x="444" y="329" on="0"/>
        <pt x="603" y="165" on="0"/>
        <pt x="815" y="82" on="0"/>
        <pt x="934" y="82" on="1"/>
        <pt x="1038" y="82" on="0"/>
        <pt x="1137" y="111" on="1"/>
        <pt x="1137" y="596" on="1"/>
        <pt x="877" y="647" on="1"/>
        <pt x="877" y="709" on="1"/>
        <pt x="1321" y="709" on="1"/>
        <pt x="1362" y="668" on="1"/>
        <pt x="1321" y="541" on="1"/>
      </contour>
    </TTGlyph>
    <TTGlyph name="H" xMin="113" yMin="0" xMax="1616" yMax="1475">
      <contour>
        <pt x="1237" y="113" on="1"/>
        <pt x="1237" y="696" on="1"/>
        <pt x="492" y="696" on="1"/>
        <pt x="492" y="113" on="1"/>
        <pt x="676" y="41" on="1"/>
        <pt x="676" y="0" on="1"/>
        <pt x="123" y="0" on="1"/>
        <pt x="123" y="41" on="1"/>
        <pt x="297" y="113" on="1"/>
        <pt x="297" y="1362" on="1"/>
        <pt x="113" y="1434" on="1"/>
        <pt x="113" y="1475" on="1"/>
        <pt x="666" y="1475" on="1"/>
        <pt x="666" y="1434" on="1"/>
        <pt x="492" y="1362" on="1"/>
        <pt x="492" y="803" on="1"/>
        <pt x="1237" y="803" on="1"/>
        <pt x="1237" y="1362" on="1"/>
        <pt x="1053" y="1434" on="1"/>
        <pt x="1053" y="1475" on="1"/>
        <pt x="1585" y="1475" on="1"/>
        <pt x="1585" y="1438" on="1"/>
        <pt x="1432" y="1362" on="1"/>
        <pt x="1432" y="113" on="1"/>
        <pt x="1616" y="41" on="1"/>
        <pt x="1616" y="0" on="1"/>
        <pt x="1063" y="0" on="1"/>
        <pt x="1063" y="41" on="1"/>
      </contour>
    </TTGlyph>
    <TTGlyph name="I" xMin="113" yMin="0" xMax="676" yMax="1475">
      <contour>
        <pt x="492" y="1362" on="1"/>
        <pt x="492" y="113" on="1"/>
        <pt x="676" y="41" on="1"/>
        <pt x="676" y="0" on="1"/>
        <pt x="123" y="0" on="1"/>
        <pt x="123" y="41" on="1"/>
        <pt x="297" y="113" on="1"/>
        <pt x="297" y="1362" on="1"/>
        <pt x="113" y="1434" on="1"/>
        <pt x="113" y="1475" on="1"/>
        <pt x="666" y="1475" on="1"/>
        <pt x="666" y="1434" on="1"/>
      </contour>
    </TTGlyph>
    <TTGlyph name="Iacute" xMin="113" yMin="0" xMax="676" yMax="1878">
      <component glyphName="I" x="0" y="0" flags="0x204"/>
      <component glyphName="acute.case" x="139" y="0" flags="0x4"/>
    </TTGlyph>
    <TTGlyph name="Icircumflex" xMin="113" yMin="0" xMax="776" yMax="1903">
      <component glyphName="I" x="49" y="0" flags="0x4"/>
      <component glyphName="circumflex.case" x="80" y="0" flags="0x4"/>
    </TTGlyph>
    <TTGlyph name="Idieresis" xMin="112" yMin="0" xMax="721" yMax="1868">
      <component glyphName="I" x="23" y="0" flags="0x4"/>
      <component glyphName="dieresis.case" x="14" y="0" flags="0x4"/>
    </TTGlyph>
    <TTGlyph name="Igrave" xMin="113" yMin="0" xMax="676" yMax="1878">
      <component glyphName="I" x="0" y="0" flags="0x204"/>
      <component glyphName="grave.case" x="201" y="0" flags="0x4"/>
    </TTGlyph>
    <TTGlyph name="J" xMin="16" yMin="-270" xMax="629" yMax="1475">
      <contour>
        <pt x="455" y="1362" on="1"/>
        <pt x="455" y="229" on="1"/>
        <pt x="455" y="36" on="0"/>
        <pt x="243" y="-208" on="0"/>
        <pt x="23" y="-270" on="1"/>
        <pt x="16" y="-205" on="1"/>
        <pt x="158" y="-124" on="0"/>
        <pt x="260" y="67" on="0"/>
        <pt x="260" y="246" on="1"/>
        <pt x="260" y="1362" on="1"/>
        <pt x="76" y="1434" on="1"/>
        <pt x="76" y="1475" on="1"/>
        <pt x="629" y="1475" on="1"/>
        <pt x="629" y="1434" on="1"/>
      </contour>
    </TTGlyph>
    <TTGlyph name="K" xMin="113" yMin="0" xMax="1419" yMax="1475">
      <contour>
        <pt x="1403" y="1475" on="1"/>
        <pt x="1403" y="1427" on="1"/>
        <pt x="1206" y="1354" on="1"/>
        <pt x="762" y="797" on="1"/>
        <pt x="1231" y="123" on="1"/>
        <pt x="1419" y="47" on="1"/>
        <pt x="1419" y="0" on="1"/>
        <pt x="1077" y="0" on="1"/>
        <pt x="602" y="707" on="1"/>
        <pt x="481" y="707" on="1"/>
        <pt x="481" y="113" on="1"/>
        <pt x="666" y="41" on="1"/>
        <pt x="666" y="0" on="1"/>
        <pt x="123" y="0" on="1"/>
        <pt x="123" y="41" on="1"/>
        <pt x="297" y="113" on="1"/>
        <pt x="297" y="1362" on="1"/>
        <pt x="113" y="1434" on="1"/>
        <pt x="113" y="1475" on="1"/>
        <pt x="655" y="1475" on="1"/>
        <pt x="655" y="1434" on="1"/>
        <pt x="481" y="1362" on="1"/>
        <pt x="481" y="799" on="1"/>
        <pt x="633" y="827" on="1"/>
        <pt x="1055" y="1368" on="1"/>
        <pt x="901" y="1427" on="1"/>
        <pt x="901" y="1475" on="1"/>
      </contour>
    </TTGlyph>
    <TTGlyph name="L" xMin="113" yMin="0" xMax="1178" yMax="1475">
      <contour>
        <pt x="1178" y="0" on="1"/>
        <pt x="113" y="0" on="1"/>
        <pt x="113" y="41" on="1"/>
        <pt x="297" y="113" on="1"/>
        <pt x="297" y="1362" on="1"/>
        <pt x="113" y="1434" on="1"/>
        <pt x="113" y="1475" on="1"/>
        <pt x="676" y="1475" on="1"/>
        <pt x="676" y="1434" on="1"/>
        <pt x="502" y="1362" on="1"/>
        <pt x="502" y="117" on="1"/>
        <pt x="1010" y="117" on="1"/>
        <pt x="1137" y="412" on="1"/>
        <pt x="1178" y="412" on="1"/>
      </contour>
    </TTGlyph>
    <TTGlyph name="M" xMin="92" yMin="0" xMax="1796" yMax="1475">
      <contour>
        <pt x="1386" y="1475" on="1"/>
        <pt x="1786" y="1475" on="1"/>
        <pt x="1786" y="1434" on="1"/>
        <pt x="1612" y="1362" on="1"/>
        <pt x="1612" y="113" on="1"/>
        <pt x="1796" y="41" on="1"/>
        <pt x="1796" y="0" on="1"/>
        <pt x="1294" y="0" on="1"/>
        <pt x="1294" y="41" on="1"/>
        <pt x="1454" y="113" on="1"/>
        <pt x="1454" y="1260" on="1"/>
        <pt x="1442" y="1260" on="1"/>
        <pt x="971" y="0" on="1"/>
        <pt x="870" y="0" on="1"/>
        <pt x="420" y="1264" on="1"/>
        <pt x="410" y="1264" on="1"/>
        <pt x="410" y="123" on="1"/>
        <pt x="573" y="41" on="1"/>
        <pt x="573" y="0" on="1"/>
        <pt x="102" y="0" on="1"/>
        <pt x="102" y="41" on="1"/>
        <pt x="276" y="123" on="1"/>
        <pt x="276" y="1362" on="1"/>
        <pt x="92" y="1434" on="1"/>
        <pt x="92" y="1475" on="1"/>
        <pt x="569" y="1475" on="1"/>
        <pt x="573" y="1380" on="1"/>
        <pt x="940" y="315" on="1"/>
        <pt x="948" y="315" on="1"/>
      </contour>
    </TTGlyph>
    <TTGlyph name="N" xMin="72" yMin="0" xMax="1516" yMax="1475">
      <contour>
        <pt x="1341" y="1352" on="1"/>
        <pt x="1341" y="0" on="1"/>
        <pt x="1247" y="0" on="1"/>
        <pt x="520" y="1073" on="1"/>
        <pt x="395" y="1298" on="1"/>
        <pt x="383" y="1298" on="1"/>
        <pt x="389" y="1051" on="1"/>
        <pt x="389" y="123" on="1"/>
        <pt x="553" y="41" on="1"/>
        <pt x="553" y="0" on="1"/>
        <pt x="82" y="0" on="1"/>
        <pt x="82" y="41" on="1"/>
        <pt x="256" y="123" on="1"/>
        <pt x="256" y="1362" on="1"/>
        <pt x="72" y="1434" on="1"/>
        <pt x="72" y="1475" on="1"/>
        <pt x="512" y="1475" on="1"/>
        <pt x="532" y="1376" on="1"/>
        <pt x="1047" y="625" on="1"/>
        <pt x="1206" y="362" on="1"/>
        <pt x="1219" y="362" on="1"/>
        <pt x="1208" y="602" on="1"/>
        <pt x="1208" y="1352" on="1"/>
        <pt x="1044" y="1434" on="1"/>
        <pt x="1044" y="1475" on="1"/>
        <pt x="1516" y="1475" on="1"/>
        <pt x="1516" y="1434" on="1"/>
      </contour>
    </TTGlyph>
    <TTGlyph name="Ntilde" xMin="72" yMin="0" xMax="1516" yMax="1826">
      <component glyphName="N" x="0" y="0" flags="0x204"/>
      <component glyphName="tilde.case" x="389" y="0" flags="0x4"/>
    </TTGlyph>
    <TTGlyph name="O" xMin="123" yMin="-41" xMax="1483" yMax="1520">
      <contour>
        <pt x="793" y="-41" on="1"/>
        <pt x="600" y="-41" on="0"/>
        <pt x="297" y="146" on="0"/>
        <pt x="123" y="500" on="0"/>
        <pt x="123" y="733" on="1"/>
        <pt x="123" y="907" on="0"/>
        <pt x="232" y="1204" on="0"/>
        <pt x="421" y="1406" on="0"/>
        <pt x="675" y="1520" on="0"/>
        <pt x="819" y="1520" on="1"/>
        <pt x="962" y="1520" on="0"/>
        <pt x="1207" y="1407" on="0"/>
        <pt x="1383" y="1205" on="0"/>
        <pt x="1483" y="910" on="0"/>
        <pt x="1483" y="735" on="1"/>
        <pt x="1483" y="561" on="0"/>
        <pt x="1374" y="267" on="0"/>
        <pt x="1188" y="69" on="0"/>
        <pt x="935" y="-41" on="0"/>
      </contour>
      <contour>
        <pt x="805" y="1407" on="1"/>
        <pt x="665" y="1407" on="0"/>
        <pt x="452" y="1234" on="0"/>
        <pt x="338" y="929" on="0"/>
        <pt x="338" y="733" on="1"/>
        <pt x="338" y="435" on="0"/>
        <pt x="594" y="68" on="0"/>
        <pt x="805" y="68" on="1"/>
        <pt x="1013" y="68" on="0"/>
        <pt x="1268" y="438" on="0"/>
        <pt x="1268" y="735" on="1"/>
        <pt x="1268" y="1033" on="0"/>
        <pt x="1012" y="1407" on="0"/>
      </contour>
    </TTGlyph>
    <TTGlyph name="OE" xMin="123" yMin="-27" xMax="2095" yMax="1503">
      <contour>
        <pt x="815" y="1391" on="1"/>
        <pt x="708" y="1391" on="0"/>
        <pt x="535" y="1295" on="0"/>
        <pt x="414" y="1121" on="0"/>
        <pt x="348" y="879" on="0"/>
        <pt x="348" y="733" on="1"/>
        <pt x="348" y="586" on="0"/>
        <pt x="414" y="347" on="0"/>
        <pt x="535" y="177" on="0"/>
        <pt x="708" y="84" on="0"/>
        <pt x="815" y="84" on="1"/>
        <pt x="911" y="84" on="0"/>
        <pt x="1067" y="178" on="0"/>
        <pt x="1177" y="349" on="0"/>
        <pt x="1237" y="589" on="0"/>
        <pt x="1237" y="735" on="1"/>
        <pt x="1237" y="881" on="0"/>
        <pt x="1177" y="1123" on="0"/>
        <pt x="1066" y="1296" on="0"/>
        <pt x="911" y="1391" on="0"/>
      </contour>
      <contour>
        <pt x="1419" y="694" on="1"/>
        <pt x="1419" y="106" on="1"/>
        <pt x="1927" y="106" on="1"/>
        <pt x="2054" y="401" on="1"/>
        <pt x="2095" y="401" on="1"/>
        <pt x="2095" y="0" on="1"/>
        <pt x="2064" y="-27" on="1"/>
        <pt x="1874" y="0" on="1"/>
        <pt x="1239" y="0" on="1"/>
        <pt x="1239" y="170" on="1"/>
        <pt x="1072" y="-25" on="0"/>
        <pt x="803" y="-25" on="1"/>
        <pt x="658" y="-25" on="0"/>
        <pt x="409" y="79" on="0"/>
        <pt x="227" y="271" on="0"/>
        <pt x="123" y="558" on="0"/>
        <pt x="123" y="733" on="1"/>
        <pt x="123" y="907" on="0"/>
        <pt x="235" y="1199" on="0"/>
        <pt x="428" y="1395" on="0"/>
        <pt x="685" y="1503" on="0"/>
        <pt x="829" y="1503" on="1"/>
        <pt x="1084" y="1503" on="0"/>
        <pt x="1239" y="1319" on="1"/>
        <pt x="1239" y="1475" on="1"/>
        <pt x="1853" y="1475" on="1"/>
        <pt x="2044" y="1501" on="1"/>
        <pt x="2075" y="1475" on="1"/>
        <pt x="2075" y="1073" on="1"/>
        <pt x="2034" y="1073" on="1"/>
        <pt x="1907" y="1368" on="1"/>
        <pt x="1419" y="1368" on="1"/>
        <pt x="1419" y="805" on="1"/>
        <pt x="1835" y="825" on="1"/>
        <pt x="1874" y="811" on="1"/>
        <pt x="1853" y="678" on="1"/>
      </contour>
    </TTGlyph>
    <TTGlyph name="Oacute" xMin="123" yMin="-41" xMax="1483" yMax="1878">
      <component glyphName="O" x="0" y="0" flags="0x204"/>
      <component glyphName="acute.case" x="549" y="0" flags="0x4"/>
    </TTGlyph>
    <TTGlyph name="Ocircumflex" xMin="123" yMin="-41" xMax="1483" yMax="1903">
      <component glyphName="O" x="0" y="0" flags="0x204"/>
      <component glyphName="circumflex.case" x="438" y="0" flags="0x4"/>
    </TTGlyph>
    <TTGlyph name="Odieresis" xMin="123" yMin="-41" xMax="1483" yMax="1868">
      <component glyphName="O" x="0" y="0" flags="0x204"/>
      <component glyphName="dieresis.case" x="400" y="0" flags="0x4"/>
    </TTGlyph>
    <TTGlyph name="Ograve" xMin="123" yMin="-41" xMax="1483" yMax="1878">
      <component glyphName="O" x="0" y="0" flags="0x204"/>
      <component glyphName="grave.case" x="580" y="0" flags="0x4"/>
    </TTGlyph>
    <TTGlyph name="Oslash" xMin="123" yMin="-109" xMax="1503" yMax="1536">
      <contour>
        <pt x="358" y="-109" on="1"/>
        <pt x="205" y="-109" on="1"/>
        <pt x="354" y="139" on="1"/>
        <pt x="244" y="240" on="0"/>
        <pt x="123" y="541" on="0"/>
        <pt x="123" y="733" on="1"/>
        <pt x="123" y="907" on="0"/>
        <pt x="235" y="1199" on="0"/>
        <pt x="428" y="1395" on="0"/>
        <pt x="685" y="1503" on="0"/>
        <pt x="829" y="1503" on="1"/>
        <pt x="1015" y="1503" on="0"/>
        <pt x="1161" y="1415" on="1"/>
        <pt x="1235" y="1536" on="1"/>
        <pt x="1389" y="1536" on="1"/>
        <pt x="1268" y="1337" on="1"/>
        <pt x="1379" y="1237" on="0"/>
        <pt x="1503" y="928" on="0"/>
        <pt x="1503" y="735" on="1"/>
        <pt x="1503" y="561" on="0"/>
        <pt x="1391" y="272" on="0"/>
        <pt x="1200" y="80" on="0"/>
        <pt x="946" y="-25" on="0"/>
        <pt x="803" y="-25" on="1"/>
        <pt x="609" y="-25" on="0"/>
        <pt x="461" y="61" on="1"/>
      </contour>
      <contour>
        <pt x="1278" y="735" on="1"/>
        <pt x="1278" y="1019" on="0"/>
        <pt x="1161" y="1196" on="1"/>
        <pt x="551" y="178" on="1"/>
        <pt x="662" y="84" on="0"/>
        <pt x="815" y="84" on="1"/>
        <pt x="1025" y="84" on="0"/>
        <pt x="1278" y="439" on="0"/>
      </contour>
      <contour>
        <pt x="815" y="1391" on="1"/>
        <pt x="602" y="1391" on="0"/>
        <pt x="348" y="1029" on="0"/>
        <pt x="348" y="733" on="1"/>
        <pt x="348" y="456" on="0"/>
        <pt x="459" y="283" on="1"/>
        <pt x="1071" y="1298" on="1"/>
        <pt x="959" y="1391" on="0"/>
      </contour>
    </TTGlyph>
    <TTGlyph name="Otilde" xMin="123" yMin="-41" xMax="1483" yMax="1826">
      <component glyphName="O" x="0" y="0" flags="0x204"/>
      <component glyphName="tilde.case" x="379" y="0" flags="0x4"/>
    </TTGlyph>
    <TTGlyph name="P" xMin="113" yMin="0" xMax="1196" yMax="1475">
      <contour>
        <pt x="481" y="600" on="1"/>
        <pt x="481" y="113" on="1"/>
        <pt x="707" y="41" on="1"/>
        <pt x="707" y="0" on="1"/>
        <pt x="113" y="0" on="1"/>
        <pt x="113" y="41" on="1"/>
        <pt x="297" y="113" on="1"/>
        <pt x="297" y="1362" on="1"/>
        <pt x="113" y="1434" on="1"/>
        <pt x="113" y="1475" on="1"/>
        <pt x="653" y="1475" on="1"/>
        <pt x="783" y="1475" on="0"/>
        <pt x="985" y="1416" on="0"/>
        <pt x="1124" y="1308" on="0"/>
        <pt x="1196" y="1157" on="0"/>
        <pt x="1196" y="1065" on="1"/>
        <pt x="1196" y="970" on="0"/>
        <pt x="1130" y="798" on="0"/>
        <pt x="990" y="668" on="0"/>
        <pt x="774" y="591" on="0"/>
        <pt x="623" y="591" on="1"/>
        <pt x="556" y="591" on="0"/>
      </contour>
      <contour>
        <pt x="682" y="1370" on="1"/>
        <pt x="481" y="1370" on="1"/>
        <pt x="481" y="707" on="1"/>
        <pt x="519" y="702" on="0"/>
        <pt x="587" y="697" on="0"/>
        <pt x="618" y="697" on="1"/>
        <pt x="730" y="697" on="0"/>
        <pt x="875" y="753" on="0"/>
        <pt x="960" y="849" on="0"/>
        <pt x="993" y="977" on="0"/>
        <pt x="993" y="1049" on="1"/>
        <pt x="993" y="1210" on="0"/>
        <pt x="833" y="1370" on="0"/>
      </contour>
    </TTGlyph>
    <TTGlyph name="Q" xMin="123" yMin="-426" xMax="1503" yMax="1503">
      <contour>
        <pt x="815" y="1391" on="1"/>
        <pt x="708" y="1391" on="0"/>
        <pt x="535" y="1295" on="0"/>
        <pt x="414" y="1121" on="0"/>
        <pt x="348" y="879" on="0"/>
        <pt x="348" y="733" on="1"/>
        <pt x="348" y="586" on="0"/>
        <pt x="414" y="347" on="0"/>
        <pt x="535" y="177" on="0"/>
        <pt x="708" y="84" on="0"/>
        <pt x="815" y="84" on="1"/>
        <pt x="921" y="84" on="0"/>
        <pt x="1092" y="178" on="0"/>
        <pt x="1213" y="350" on="0"/>
        <pt x="1278" y="589" on="0"/>
        <pt x="1278" y="735" on="1"/>
        <pt x="1278" y="882" on="0"/>
        <pt x="1212" y="1123" on="0"/>
        <pt x="1090" y="1296" on="0"/>
        <pt x="920" y="1391" on="0"/>
      </contour>
      <contour>
        <pt x="1503" y="735" on="1"/>
        <pt x="1503" y="583" on="0"/>
        <pt x="1417" y="321" on="0"/>
        <pt x="1264" y="135" on="0"/>
        <pt x="1061" y="12" on="0"/>
        <pt x="942" y="-10" on="1"/>
        <pt x="1017" y="-173" on="0"/>
        <pt x="1161" y="-279" on="1"/>
        <pt x="1317" y="-258" on="1"/>
        <pt x="1337" y="-295" on="1"/>
        <pt x="1096" y="-426" on="1"/>
        <pt x="867" y="-289" on="0"/>
        <pt x="764" y="-23" on="1"/>
        <pt x="626" y="-16" on="0"/>
        <pt x="391" y="94" on="0"/>
        <pt x="220" y="285" on="0"/>
        <pt x="123" y="564" on="0"/>
        <pt x="123" y="733" on="1"/>
        <pt x="123" y="907" on="0"/>
        <pt x="235" y="1199" on="0"/>
        <pt x="428" y="1395" on="0"/>
        <pt x="685" y="1503" on="0"/>
        <pt x="829" y="1503" on="1"/>
        <pt x="972" y="1503" on="0"/>
        <pt x="1219" y="1395" on="0"/>
        <pt x="1400" y="1200" on="0"/>
        <pt x="1503" y="910" on="0"/>
      </contour>
    </TTGlyph>
    <TTGlyph name="R" xMin="113" yMin="0" xMax="1382" yMax="1475">
      <contour>
        <pt x="1073" y="0" on="1"/>
        <pt x="758" y="618" on="1"/>
        <pt x="729" y="614" on="0"/>
        <pt x="668" y="610" on="0"/>
        <pt x="636" y="610" on="1"/>
        <pt x="599" y="610" on="0"/>
        <pt x="522" y="616" on="0"/>
        <pt x="481" y="621" on="1"/>
        <pt x="481" y="113" on="1"/>
        <pt x="707" y="41" on="1"/>
        <pt x="707" y="0" on="1"/>
        <pt x="113" y="0" on="1"/>
        <pt x="113" y="41" on="1"/>
        <pt x="297" y="113" on="1"/>
        <pt x="297" y="1362" on="1"/>
        <pt x="113" y="1434" on="1"/>
        <pt x="113" y="1475" on="1"/>
        <pt x="676" y="1475" on="1"/>
        <pt x="806" y="1475" on="0"/>
        <pt x="1008" y="1416" on="0"/>
        <pt x="1147" y="1308" on="0"/>
        <pt x="1219" y="1157" on="0"/>
        <pt x="1219" y="1065" on="1"/>
        <pt x="1219" y="930" on="0"/>
        <pt x="1080" y="721" on="0"/>
        <pt x="944" y="666" on="1"/>
        <pt x="1235" y="98" on="1"/>
        <pt x="1382" y="41" on="1"/>
        <pt x="1382" y="0" on="1"/>
      </contour>
      <contour>
        <pt x="705" y="1370" on="1"/>
        <pt x="481" y="1370" on="1"/>
        <pt x="481" y="727" on="1"/>
        <pt x="522" y="722" on="0"/>
        <pt x="595" y="717" on="0"/>
        <pt x="630" y="717" on="1"/>
        <pt x="1016" y="717" on="0"/>
        <pt x="1016" y="1049" on="1"/>
        <pt x="1016" y="1210" on="0"/>
        <pt x="856" y="1370" on="0"/>
      </contour>
    </TTGlyph>
    <TTGlyph name="S" xMin="102" yMin="-25" xMax="1008" yMax="1503">
      <contour>
        <pt x="252" y="131" on="1"/>
        <pt x="409" y="92" on="0"/>
        <pt x="514" y="92" on="1"/>
        <pt x="568" y="92" on="0"/>
        <pt x="673" y="115" on="0"/>
        <pt x="756" y="171" on="0"/>
        <pt x="807" y="264" on="0"/>
        <pt x="807" y="334" on="1"/>
        <pt x="807" y="380" on="0"/>
        <pt x="781" y="461" on="0"/>
        <pt x="712" y="541" on="0"/>
        <pt x="594" y="624" on="0"/>
        <pt x="502" y="674" on="1"/>
        <pt x="402" y="728" on="0"/>
        <pt x="257" y="825" on="0"/>
        <pt x="162" y="929" on="0"/>
        <pt x="117" y="1049" on="0"/>
        <pt x="117" y="1126" on="1"/>
        <pt x="117" y="1503" on="0"/>
        <pt x="588" y="1503" on="1"/>
        <pt x="755" y="1503" on="0"/>
        <pt x="940" y="1456" on="1"/>
        <pt x="940" y="1110" on="1"/>
        <pt x="899" y="1110" on="1"/>
        <pt x="791" y="1364" on="1"/>
        <pt x="685" y="1386" on="0"/>
        <pt x="600" y="1386" on="1"/>
        <pt x="457" y="1386" on="0"/>
        <pt x="297" y="1277" on="0"/>
        <pt x="297" y="1163" on="1"/>
        <pt x="297" y="1123" on="0"/>
        <pt x="319" y="1051" on="0"/>
        <pt x="387" y="973" on="0"/>
        <pt x="511" y="885" on="0"/>
        <pt x="612" y="829" on="1"/>
        <pt x="712" y="775" on="0"/>
        <pt x="861" y="683" on="0"/>
        <pt x="959" y="586" on="0"/>
        <pt x="1008" y="472" on="0"/>
        <pt x="1008" y="397" on="1"/>
        <pt x="1008" y="277" on="0"/>
        <pt x="928" y="116" on="0"/>
        <pt x="793" y="17" on="0"/>
        <pt x="613" y="-25" on="0"/>
        <pt x="514" y="-25" on="1"/>
        <pt x="456" y="-25" on="0"/>
        <pt x="357" y="-18" on="0"/>
        <pt x="261" y="-3" on="0"/>
        <pt x="161" y="22" on="0"/>
        <pt x="102" y="39" on="1"/>
        <pt x="102" y="399" on="1"/>
        <pt x="154" y="399" on="1"/>
      </contour>
    </TTGlyph>
    <TTGlyph name="T" xMin="10" yMin="0" xMax="1241" yMax="1501">
      <contour>
        <pt x="10" y="1475" on="1"/>
        <pt x="41" y="1501" on="1"/>
        <pt x="231" y="1475" on="1"/>
        <pt x="1020" y="1475" on="1"/>
        <pt x="1210" y="1501" on="1"/>
        <pt x="1241" y="1475" on="1"/>
        <pt x="1241" y="1061" on="1"/>
        <pt x="1200" y="1061" on="1"/>
        <pt x="1075" y="1366" on="1"/>
        <pt x="727" y="1380" on="1"/>
        <pt x="727" y="113" on="1"/>
        <pt x="911" y="41" on="1"/>
        <pt x="911" y="0" on="1"/>
        <pt x="369" y="0" on="1"/>
        <pt x="369" y="41" on="1"/>
        <pt x="543" y="113" on="1"/>
        <pt x="543" y="1380" on="1"/>
        <pt x="182" y="1364" on="1"/>
        <pt x="51" y="1061" on="1"/>
        <pt x="10" y="1061" on="1"/>
      </contour>
    </TTGlyph>
    <TTGlyph name="Thorn" xMin="113" yMin="0" xMax="1196" yMax="1475">
      <contour>
        <pt x="481" y="1362" on="1"/>
        <pt x="481" y="1249" on="1"/>
        <pt x="653" y="1249" on="1"/>
        <pt x="913" y="1249" on="0"/>
        <pt x="1196" y="1026" on="0"/>
        <pt x="1196" y="840" on="1"/>
        <pt x="1196" y="754" on="0"/>
        <pt x="1144" y="603" on="0"/>
        <pt x="1035" y="474" on="0"/>
        <pt x="866" y="392" on="0"/>
        <pt x="632" y="357" on="0"/>
        <pt x="481" y="375" on="1"/>
        <pt x="481" y="113" on="1"/>
        <pt x="666" y="41" on="1"/>
        <pt x="666" y="0" on="1"/>
        <pt x="123" y="0" on="1"/>
        <pt x="123" y="41" on="1"/>
        <pt x="297" y="113" on="1"/>
        <pt x="297" y="1362" on="1"/>
        <pt x="113" y="1434" on="1"/>
        <pt x="113" y="1475" on="1"/>
        <pt x="655" y="1475" on="1"/>
        <pt x="655" y="1434" on="1"/>
      </contour>
      <contour>
        <pt x="682" y="1145" on="1"/>
        <pt x="481" y="1145" on="1"/>
        <pt x="481" y="481" on="1"/>
        <pt x="569" y="468" on="0"/>
        <pt x="709" y="476" on="0"/>
        <pt x="816" y="499" on="0"/>
        <pt x="895" y="551" on="0"/>
        <pt x="948" y="610" on="0"/>
        <pt x="980" y="692" on="0"/>
        <pt x="993" y="774" on="0"/>
        <pt x="993" y="823" on="1"/>
        <pt x="993" y="983" on="0"/>
        <pt x="832" y="1145" on="0"/>
      </contour>
    </TTGlyph>
    <TTGlyph name="U" xMin="94" yMin="-41" xMax="1554" yMax="1475">
      <contour>
        <pt x="827" y="68" on="1"/>
        <pt x="928" y="68" on="0"/>
        <pt x="1078" y="114" on="0"/>
        <pt x="1194" y="220" on="0"/>
        <pt x="1253" y="408" on="0"/>
        <pt x="1253" y="543" on="1"/>
        <pt x="1253" y="1352" on="1"/>
        <pt x="1069" y="1434" on="1"/>
        <pt x="1069" y="1475" on="1"/>
        <pt x="1554" y="1475" on="1"/>
        <pt x="1554" y="1434" on="1"/>
        <pt x="1386" y="1352" on="1"/>
        <pt x="1386" y="557" on="1"/>
        <pt x="1386" y="252" on="0"/>
        <pt x="1110" y="-41" on="0"/>
        <pt x="831" y="-41" on="1"/>
        <pt x="733" y="-41" on="0"/>
        <pt x="576" y="-10" on="0"/>
        <pt x="432" y="71" on="0"/>
        <pt x="336" y="200" on="0"/>
        <pt x="279" y="406" on="0"/>
        <pt x="279" y="543" on="1"/>
        <pt x="279" y="1362" on="1"/>
        <pt x="94" y="1434" on="1"/>
        <pt x="94" y="1475" on="1"/>
        <pt x="647" y="1475" on="1"/>
        <pt x="647" y="1434" on="1"/>
        <pt x="473" y="1362" on="1"/>
        <pt x="473" y="569" on="1"/>
        <pt x="473" y="68" on="0"/>
      </contour>
    </TTGlyph>
    <TTGlyph name="Uacute" xMin="94" yMin="-41" xMax="1554" yMax="1878">
      <component glyphName="U" x="0" y="0" flags="0x204"/>
      <component glyphName="acute.case" x="692" y="0" flags="0x4"/>
    </TTGlyph>
    <TTGlyph name="Ucircumflex" xMin="94" yMin="-41" xMax="1554" yMax="1903">
      <component glyphName="U" x="0" y="0" flags="0x204"/>
      <component glyphName="circumflex.case" x="516" y="0" flags="0x4"/>
    </TTGlyph>
    <TTGlyph name="Udieresis" xMin="94" yMin="-41" xMax="1554" yMax="1868">
      <component glyphName="U" x="0" y="0" flags="0x204"/>
      <component glyphName="dieresis.case" x="489" y="0" flags="0x4"/>
    </TTGlyph>
    <TTGlyph name="Ugrave" xMin="94" yMin="-41" xMax="1554" yMax="1878">
      <component glyphName="U" x="0" y="0" flags="0x204"/>
      <component glyphName="grave.case" x="584" y="0" flags="0x4"/>
    </TTGlyph>
    <TTGlyph name="V" xMin="-51" yMin="-20" xMax="1438" yMax="1475">
      <contour>
        <pt x="465" y="1475" on="1"/>
        <pt x="465" y="1434" on="1"/>
        <pt x="301" y="1374" on="1"/>
        <pt x="713" y="303" on="1"/>
        <pt x="721" y="303" on="1"/>
        <pt x="1130" y="1374" on="1"/>
        <pt x="981" y="1434" on="1"/>
        <pt x="981" y="1475" on="1"/>
        <pt x="1438" y="1475" on="1"/>
        <pt x="1438" y="1434" on="1"/>
        <pt x="1264" y="1362" on="1"/>
        <pt x="725" y="-20" on="1"/>
        <pt x="647" y="-20" on="1"/>
        <pt x="115" y="1362" on="1"/>
        <pt x="-51" y="1434" on="1"/>
        <pt x="-51" y="1475" on="1"/>
      </contour>
    </TTGlyph>
    <TTGlyph name="W" xMin="-51" yMin="-20" xMax="2046" yMax="1475">
      <contour>
        <pt x="514" y="1475" on="1"/>
        <pt x="514" y="1434" on="1"/>
        <pt x="338" y="1366" on="1"/>
        <pt x="616" y="293" on="1"/>
        <pt x="625" y="293" on="1"/>
        <pt x="987" y="1475" on="1"/>
        <pt x="1116" y="1475" on="1"/>
        <pt x="1452" y="315" on="1"/>
        <pt x="1460" y="315" on="1"/>
        <pt x="1741" y="1364" on="1"/>
        <pt x="1567" y="1434" on="1"/>
        <pt x="1567" y="1475" on="1"/>
        <pt x="2046" y="1475" on="1"/>
        <pt x="2046" y="1434" on="1"/>
        <pt x="1872" y="1362" on="1"/>
        <pt x="1493" y="-20" on="1"/>
        <pt x="1399" y="-20" on="1"/>
        <pt x="1020" y="1133" on="1"/>
        <pt x="1014" y="1133" on="1"/>
        <pt x="657" y="-20" on="1"/>
        <pt x="549" y="-20" on="1"/>
        <pt x="133" y="1362" on="1"/>
        <pt x="-51" y="1434" on="1"/>
        <pt x="-51" y="1475" on="1"/>
      </contour>
    </TTGlyph>
    <TTGlyph name="X" xMin="14" yMin="0" xMax="1462" yMax="1475">
      <contour>
        <pt x="913" y="1415" on="1"/>
        <pt x="913" y="1475" on="1"/>
        <pt x="1427" y="1475" on="1"/>
        <pt x="1427" y="1415" on="1"/>
        <pt x="1229" y="1331" on="1"/>
        <pt x="834" y="778" on="1"/>
        <pt x="1282" y="129" on="1"/>
        <pt x="1462" y="59" on="1"/>
        <pt x="1462" y="0" on="1"/>
        <pt x="885" y="0" on="1"/>
        <pt x="885" y="59" on="1"/>
        <pt x="1065" y="125" on="1"/>
        <pt x="723" y="623" on="1"/>
        <pt x="365" y="121" on="1"/>
        <pt x="539" y="59" on="1"/>
        <pt x="539" y="0" on="1"/>
        <pt x="14" y="0" on="1"/>
        <pt x="14" y="59" on="1"/>
        <pt x="215" y="137" on="1"/>
        <pt x="645" y="735" on="1"/>
        <pt x="229" y="1341" on="1"/>
        <pt x="45" y="1415" on="1"/>
        <pt x="45" y="1475" on="1"/>
        <pt x="606" y="1475" on="1"/>
        <pt x="606" y="1415" on="1"/>
        <pt x="446" y="1341" on="1"/>
        <pt x="758" y="891" on="1"/>
        <pt x="1081" y="1343" on="1"/>
      </contour>
    </TTGlyph>
    <TTGlyph name="Y" xMin="-51" yMin="0" xMax="1319" yMax="1475">
      <contour>
        <pt x="446" y="1475" on="1"/>
        <pt x="446" y="1434" on="1"/>
        <pt x="315" y="1382" on="1"/>
        <pt x="659" y="702" on="1"/>
        <pt x="668" y="702" on="1"/>
        <pt x="1034" y="1380" on="1"/>
        <pt x="899" y="1434" on="1"/>
        <pt x="899" y="1475" on="1"/>
        <pt x="1319" y="1475" on="1"/>
        <pt x="1319" y="1434" on="1"/>
        <pt x="1165" y="1362" on="1"/>
        <pt x="729" y="565" on="1"/>
        <pt x="729" y="113" on="1"/>
        <pt x="913" y="41" on="1"/>
        <pt x="913" y="0" on="1"/>
        <pt x="371" y="0" on="1"/>
        <pt x="371" y="41" on="1"/>
        <pt x="545" y="113" on="1"/>
        <pt x="545" y="563" on="1"/>
        <pt x="113" y="1362" on="1"/>
        <pt x="-51" y="1434" on="1"/>
        <pt x="-51" y="1475" on="1"/>
      </contour>
    </TTGlyph>
    <TTGlyph name="Yacute" xMin="-51" yMin="0" xMax="1319" yMax="1878">
      <component glyphName="Y" x="0" y="0" flags="0x204"/>
      <component glyphName="acute.case" x="469" y="0" flags="0x4"/>
    </TTGlyph>
    <TTGlyph name="Z" xMin="61" yMin="-27" xMax="1174" yMax="1501">
      <contour>
        <pt x="111" y="1475" on="1"/>
        <pt x="141" y="1501" on="1"/>
        <pt x="332" y="1475" on="1"/>
        <pt x="1153" y="1475" on="1"/>
        <pt x="1174" y="1384" on="1"/>
        <pt x="1053" y="1239" on="1"/>
        <pt x="319" y="117" on="1"/>
        <pt x="995" y="117" on="1"/>
        <pt x="1122" y="412" on="1"/>
        <pt x="1163" y="412" on="1"/>
        <pt x="1163" y="0" on="1"/>
        <pt x="1133" y="-27" on="1"/>
        <pt x="942" y="0" on="1"/>
        <pt x="82" y="0" on="1"/>
        <pt x="61" y="90" on="1"/>
        <pt x="182" y="236" on="1"/>
        <pt x="905" y="1358" on="1"/>
        <pt x="276" y="1358" on="1"/>
        <pt x="152" y="1063" on="1"/>
        <pt x="111" y="1063" on="1"/>
      </contour>
    </TTGlyph>
    <TTGlyph name="a" xMin="92" yMin="-30" xMax="1055" yMax="1049">
      <contour>
        <pt x="1055" y="88" on="1"/>
        <pt x="1055" y="51" on="1"/>
        <pt x="838" y="-16" on="1"/>
        <pt x="774" y="-30" on="0"/>
        <pt x="686" y="27" on="0"/>
        <pt x="686" y="96" on="1"/>
        <pt x="556" y="-25" on="0"/>
        <pt x="381" y="-25" on="1"/>
        <pt x="236" y="-25" on="0"/>
        <pt x="92" y="125" on="0"/>
        <pt x="92" y="238" on="1"/>
        <pt x="92" y="323" on="0"/>
        <pt x="168" y="454" on="0"/>
        <pt x="286" y="532" on="0"/>
        <pt x="450" y="584" on="0"/>
        <pt x="602" y="604" on="0"/>
        <pt x="686" y="606" on="1"/>
        <pt x="686" y="702" on="1"/>
        <pt x="686" y="842" on="0"/>
        <pt x="598" y="952" on="0"/>
        <pt x="496" y="952" on="1"/>
        <pt x="419" y="952" on="0"/>
        <pt x="315" y="928" on="1"/>
        <pt x="209" y="696" on="1"/>
        <pt x="160" y="696" on="1"/>
        <pt x="160" y="981" on="1"/>
        <pt x="250" y="1013" on="0"/>
        <pt x="450" y="1049" on="0"/>
        <pt x="526" y="1049" on="1"/>
        <pt x="691" y="1049" on="0"/>
        <pt x="870" y="916" on="0"/>
        <pt x="870" y="764" on="1"/>
        <pt x="870" y="139" on="1"/>
      </contour>
      <contour>
        <pt x="465" y="92" on="1"/>
        <pt x="522" y="92" on="0"/>
        <pt x="642" y="147" on="0"/>
        <pt x="686" y="195" on="1"/>
        <pt x="686" y="524" on="1"/>
        <pt x="486" y="515" on="0"/>
        <pt x="276" y="370" on="0"/>
        <pt x="276" y="258" on="1"/>
        <pt x="276" y="172" on="0"/>
        <pt x="386" y="92" on="0"/>
      </contour>
    </TTGlyph>
    <TTGlyph name="aacute" xMin="92" yMin="-30" xMax="1055" yMax="1556">
      <component glyphName="a" x="0" y="0" flags="0x204"/>
      <component glyphName="acute" x="318" y="0" flags="0x4"/>
    </TTGlyph>
    <TTGlyph name="acircumflex" xMin="92" yMin="-30" xMax="1055" yMax="1554">
      <component glyphName="a" x="0" y="0" flags="0x204"/>
      <component glyphName="circumflex" x="193" y="0" flags="0x4"/>
    </TTGlyph>
    <TTGlyph name="acute" xMin="121" yMin="1167" xMax="477" yMax="1556">
      <contour>
        <pt x="121" y="1206" on="1"/>
        <pt x="317" y="1556" on="1"/>
        <pt x="465" y="1516" on="1"/>
        <pt x="477" y="1470" on="1"/>
        <pt x="176" y="1167" on="1"/>
      </contour>
    </TTGlyph>
    <TTGlyph name="acute.case" xMin="33" yMin="1585" xMax="475" yMax="1878">
      <contour>
        <pt x="358" y="1878" on="1"/>
        <pt x="475" y="1776" on="1"/>
        <pt x="469" y="1735" on="1"/>
        <pt x="68" y="1585" on="1"/>
        <pt x="33" y="1645" on="1"/>
      </contour>
    </TTGlyph>
    <TTGlyph name="adieresis" xMin="92" yMin="-30" xMax="1055" yMax="1454">
      <component glyphName="a" x="0" y="0" flags="0x204"/>
      <component glyphName="dieresis" x="121" y="0" flags="0x4"/>
    </TTGlyph>
    <TTGlyph name="ae" xMin="92" yMin="-25" xMax="1569" yMax="1049">
      <contour>
        <pt x="1540" y="506" on="1"/>
        <pt x="893" y="506" on="1"/>
        <pt x="894" y="394" on="0"/>
        <pt x="956" y="228" on="0"/>
        <pt x="1062" y="134" on="0"/>
        <pt x="1189" y="90" on="0"/>
        <pt x="1264" y="90" on="1"/>
        <pt x="1368" y="90" on="0"/>
        <pt x="1487" y="160" on="1"/>
        <pt x="1518" y="100" on="1"/>
        <pt x="1434" y="26" on="0"/>
        <pt x="1266" y="-25" on="0"/>
        <pt x="1159" y="-25" on="1"/>
        <pt x="1055" y="-25" on="0"/>
        <pt x="867" y="71" on="0"/>
        <pt x="799" y="158" on="1"/>
        <pt x="737" y="66" on="0"/>
        <pt x="521" y="-25" on="0"/>
        <pt x="381" y="-25" on="1"/>
        <pt x="236" y="-25" on="0"/>
        <pt x="92" y="125" on="0"/>
        <pt x="92" y="238" on="1"/>
        <pt x="92" y="323" on="0"/>
        <pt x="168" y="454" on="0"/>
        <pt x="286" y="532" on="0"/>
        <pt x="450" y="584" on="0"/>
        <pt x="602" y="604" on="0"/>
        <pt x="686" y="606" on="1"/>
        <pt x="686" y="702" on="1"/>
        <pt x="686" y="842" on="0"/>
        <pt x="598" y="952" on="0"/>
        <pt x="496" y="952" on="1"/>
        <pt x="419" y="952" on="0"/>
        <pt x="315" y="928" on="1"/>
        <pt x="209" y="696" on="1"/>
        <pt x="160" y="696" on="1"/>
        <pt x="160" y="981" on="1"/>
        <pt x="250" y="1013" on="0"/>
        <pt x="450" y="1049" on="0"/>
        <pt x="526" y="1049" on="1"/>
        <pt x="626" y="1049" on="0"/>
        <pt x="784" y="959" on="0"/>
        <pt x="827" y="885" on="1"/>
        <pt x="901" y="963" on="0"/>
        <pt x="1085" y="1049" on="0"/>
        <pt x="1161" y="1049" on="1"/>
        <pt x="1246" y="1049" on="0"/>
        <pt x="1391" y="986" on="0"/>
        <pt x="1504" y="863" on="0"/>
        <pt x="1569" y="663" on="0"/>
        <pt x="1569" y="535" on="1"/>
      </contour>
      <contour>
        <pt x="465" y="86" on="1"/>
        <pt x="565" y="86" on="0"/>
        <pt x="686" y="248" on="0"/>
        <pt x="686" y="383" on="1"/>
        <pt x="686" y="487" on="1"/>
        <pt x="686" y="524" on="1"/>
        <pt x="291" y="508" on="0"/>
        <pt x="291" y="258" on="1"/>
        <pt x="291" y="170" on="0"/>
        <pt x="389" y="86" on="0"/>
      </contour>
      <contour>
        <pt x="1165" y="952" on="1"/>
        <pt x="1050" y="952" on="0"/>
        <pt x="913" y="770" on="0"/>
        <pt x="897" y="612" on="1"/>
        <pt x="1374" y="612" on="1"/>
        <pt x="1374" y="772" on="0"/>
        <pt x="1265" y="952" on="0"/>
      </contour>
    </TTGlyph>
    <TTGlyph name="agrave" xMin="92" yMin="-30" xMax="1055" yMax="1556">
      <component glyphName="a" x="0" y="0" flags="0x204"/>
      <component glyphName="grave" x="360" y="0" flags="0x4"/>
    </TTGlyph>
    <TTGlyph name="ampersand" xMin="106" yMin="-41" xMax="1509" yMax="1497">
      <contour>
        <pt x="1051" y="721" on="1"/>
        <pt x="1051" y="762" on="1"/>
        <pt x="1462" y="762" on="1"/>
        <pt x="1462" y="721" on="1"/>
        <pt x="1323" y="655" on="1"/>
        <pt x="1243" y="441" on="0"/>
        <pt x="1135" y="289" on="1"/>
        <pt x="1298" y="111" on="1"/>
        <pt x="1509" y="41" on="1"/>
        <pt x="1509" y="0" on="1"/>
        <pt x="1126" y="0" on="1"/>
        <pt x="999" y="137" on="1"/>
        <pt x="799" y="-41" on="0"/>
        <pt x="535" y="-41" on="1"/>
        <pt x="448" y="-41" on="0"/>
        <pt x="296" y="3" on="0"/>
        <pt x="176" y="87" on="0"/>
        <pt x="106" y="226" on="0"/>
        <pt x="106" y="313" on="1"/>
        <pt x="106" y="366" on="0"/>
        <pt x="122" y="450" on="0"/>
        <pt x="162" y="524" on="0"/>
        <pt x="208" y="582" on="0"/>
        <pt x="294" y="648" on="0"/>
        <pt x="375" y="701" on="0"/>
        <pt x="442" y="741" on="1"/>
        <pt x="346" y="848" on="1"/>
        <pt x="242" y="964" on="0"/>
        <pt x="242" y="1122" on="1"/>
        <pt x="242" y="1194" on="0"/>
        <pt x="298" y="1329" on="0"/>
        <pt x="396" y="1434" on="0"/>
        <pt x="545" y="1497" on="0"/>
        <pt x="631" y="1497" on="1"/>
        <pt x="804" y="1497" on="0"/>
        <pt x="1004" y="1304" on="0"/>
        <pt x="1004" y="1169" on="1"/>
        <pt x="1004" y="1046" on="0"/>
        <pt x="865" y="871" on="0"/>
        <pt x="696" y="770" on="1"/>
        <pt x="1067" y="365" on="1"/>
        <pt x="1144" y="480" on="0"/>
        <pt x="1212" y="649" on="1"/>
      </contour>
      <contour>
        <pt x="602" y="78" on="1"/>
        <pt x="794" y="78" on="0"/>
        <pt x="934" y="207" on="1"/>
        <pt x="518" y="659" on="1"/>
        <pt x="328" y="520" on="0"/>
        <pt x="328" y="340" on="1"/>
        <pt x="328" y="200" on="0"/>
        <pt x="472" y="78" on="0"/>
      </contour>
      <contour>
        <pt x="422" y="1176" on="1"/>
        <pt x="422" y="1070" on="0"/>
        <pt x="483" y="1004" on="1"/>
        <pt x="621" y="852" on="1"/>
        <pt x="746" y="935" on="0"/>
        <pt x="836" y="1080" on="0"/>
        <pt x="836" y="1165" on="1"/>
        <pt x="836" y="1275" on="0"/>
        <pt x="727" y="1399" on="0"/>
        <pt x="641" y="1399" on="1"/>
        <pt x="544" y="1399" on="0"/>
        <pt x="422" y="1263" on="0"/>
      </contour>
    </TTGlyph>
    <TTGlyph name="aring" xMin="92" yMin="-30" xMax="1055" yMax="1602">
      <component glyphName="a" x="0" y="0" flags="0x204"/>
      <component glyphName="ring" x="262" y="0" flags="0x4"/>
    </TTGlyph>
    <TTGlyph name="asciicircum" xMin="152" yMin="1024" xMax="1001" yMax="1483">
      <contour>
        <pt x="522" y="1483" on="1"/>
        <pt x="631" y="1483" on="1"/>
        <pt x="1001" y="1085" on="1"/>
        <pt x="940" y="1024" on="1"/>
        <pt x="575" y="1350" on="1"/>
        <pt x="213" y="1024" on="1"/>
        <pt x="152" y="1085" on="1"/>
      </contour>
    </TTGlyph>
    <TTGlyph name="asciitilde" xMin="154" yMin="426" xMax="1509" yMax="805">
      <contour>
        <pt x="1114" y="592" on="1"/>
        <pt x="1179" y="592" on="0"/>
        <pt x="1390" y="682" on="0"/>
        <pt x="1475" y="748" on="1"/>
        <pt x="1509" y="711" on="1"/>
        <pt x="1500" y="699" on="0"/>
        <pt x="1467" y="661" on="0"/>
        <pt x="1366" y="563" on="0"/>
        <pt x="1265" y="488" on="0"/>
        <pt x="1122" y="426" on="0"/>
        <pt x="1057" y="426" on="1"/>
        <pt x="991" y="426" on="0"/>
        <pt x="840" y="493" on="0"/>
        <pt x="727" y="572" on="0"/>
        <pt x="592" y="639" on="0"/>
        <pt x="541" y="639" on="1"/>
        <pt x="467" y="639" on="0"/>
        <pt x="306" y="569" on="0"/>
        <pt x="186" y="496" on="1"/>
        <pt x="154" y="535" on="1"/>
        <pt x="164" y="546" on="0"/>
        <pt x="198" y="582" on="0"/>
        <pt x="302" y="675" on="0"/>
        <pt x="403" y="747" on="0"/>
        <pt x="538" y="805" on="0"/>
        <pt x="594" y="805" on="1"/>
        <pt x="649" y="805" on="0"/>
        <pt x="760" y="761" on="0"/>
        <pt x="852" y="698" on="0"/>
        <pt x="946" y="636" on="0"/>
        <pt x="1058" y="592" on="0"/>
      </contour>
    </TTGlyph>
    <TTGlyph name="asterisk" xMin="20" yMin="936" xMax="836" yMax="1712">
      <contour>
        <pt x="397" y="1366" on="1"/>
        <pt x="340" y="1681" on="1"/>
        <pt x="381" y="1712" on="1"/>
        <pt x="475" y="1712" on="1"/>
        <pt x="516" y="1681" on="1"/>
        <pt x="459" y="1366" on="1"/>
      </contour>
      <contour>
        <pt x="492" y="1262" on="1"/>
        <pt x="725" y="1040" on="1"/>
        <pt x="709" y="991" on="1"/>
        <pt x="633" y="936" on="1"/>
        <pt x="582" y="938" on="1"/>
        <pt x="442" y="1227" on="1"/>
      </contour>
      <contour>
        <pt x="412" y="1227" on="1"/>
        <pt x="274" y="936" on="1"/>
        <pt x="223" y="936" on="1"/>
        <pt x="147" y="991" on="1"/>
        <pt x="133" y="1040" on="1"/>
        <pt x="365" y="1264" on="1"/>
      </contour>
      <contour>
        <pt x="483" y="1348" on="1"/>
        <pt x="766" y="1501" on="1"/>
        <pt x="807" y="1470" on="1"/>
        <pt x="836" y="1382" on="1"/>
        <pt x="819" y="1333" on="1"/>
        <pt x="502" y="1290" on="1"/>
      </contour>
      <contour>
        <pt x="354" y="1292" on="1"/>
        <pt x="35" y="1333" on="1"/>
        <pt x="20" y="1380" on="1"/>
        <pt x="49" y="1470" on="1"/>
        <pt x="92" y="1499" on="1"/>
        <pt x="375" y="1348" on="1"/>
      </contour>
    </TTGlyph>
    <TTGlyph name="at" xMin="123" yMin="-225" xMax="1792" yMax="1464">
      <contour>
        <pt x="1141" y="266" on="1"/>
        <pt x="1141" y="395" on="1"/>
        <pt x="1135" y="397" on="1"/>
        <pt x="1065" y="307" on="0"/>
        <pt x="983" y="225" on="0"/>
        <pt x="883" y="182" on="0"/>
        <pt x="813" y="182" on="1"/>
        <pt x="748" y="182" on="0"/>
        <pt x="653" y="235" on="0"/>
        <pt x="600" y="328" on="0"/>
        <pt x="575" y="440" on="0"/>
        <pt x="575" y="506" on="1"/>
        <pt x="575" y="576" on="0"/>
        <pt x="607" y="714" on="0"/>
        <pt x="675" y="856" on="0"/>
        <pt x="792" y="975" on="0"/>
        <pt x="947" y="1066" on="0"/>
        <pt x="1171" y="1113" on="0"/>
        <pt x="1305" y="1108" on="1"/>
        <pt x="1305" y="315" on="1"/>
        <pt x="1377" y="315" on="0"/>
        <pt x="1493" y="372" on="0"/>
        <pt x="1571" y="469" on="0"/>
        <pt x="1624" y="604" on="0"/>
        <pt x="1647" y="755" on="0"/>
        <pt x="1647" y="840" on="1"/>
        <pt x="1647" y="1060" on="0"/>
        <pt x="1307" y="1335" on="0"/>
        <pt x="1036" y="1335" on="1"/>
        <pt x="919" y="1335" on="0"/>
        <pt x="702" y="1267" on="0"/>
        <pt x="520" y="1135" on="0"/>
        <pt x="385" y="955" on="0"/>
        <pt x="309" y="719" on="0"/>
        <pt x="309" y="586" on="1"/>
        <pt x="309" y="449" on="0"/>
        <pt x="385" y="221" on="0"/>
        <pt x="519" y="61" on="0"/>
        <pt x="701" y="-50" on="0"/>
        <pt x="911" y="-102" on="0"/>
        <pt x="1026" y="-102" on="1"/>
        <pt x="1206" y="-102" on="0"/>
        <pt x="1409" y="-16" on="1"/>
        <pt x="1442" y="-80" on="1"/>
        <pt x="1328" y="-150" on="0"/>
        <pt x="1080" y="-225" on="0"/>
        <pt x="969" y="-225" on="1"/>
        <pt x="840" y="-225" on="0"/>
        <pt x="598" y="-164" on="0"/>
        <pt x="380" y="-33" on="0"/>
        <pt x="218" y="154" on="0"/>
        <pt x="123" y="426" on="0"/>
        <pt x="123" y="588" on="1"/>
        <pt x="123" y="774" on="0"/>
        <pt x="262" y="1100" on="0"/>
        <pt x="502" y="1331" on="0"/>
        <pt x="840" y="1464" on="0"/>
        <pt x="1032" y="1464" on="1"/>
        <pt x="1256" y="1464" on="0"/>
        <pt x="1603" y="1300" on="0"/>
        <pt x="1792" y="1008" on="0"/>
        <pt x="1792" y="823" on="1"/>
        <pt x="1792" y="539" on="0"/>
        <pt x="1481" y="178" on="0"/>
        <pt x="1225" y="178" on="1"/>
        <pt x="1187" y="178" on="0"/>
        <pt x="1141" y="232" on="0"/>
      </contour>
      <contour>
        <pt x="872" y="330" on="1"/>
        <pt x="938" y="330" on="0"/>
        <pt x="1055" y="405" on="0"/>
        <pt x="1128" y="500" on="1"/>
        <pt x="1128" y="999" on="1"/>
        <pt x="1062" y="999" on="0"/>
        <pt x="941" y="939" on="0"/>
        <pt x="852" y="840" on="0"/>
        <pt x="784" y="716" on="0"/>
        <pt x="750" y="582" on="0"/>
        <pt x="750" y="520" on="1"/>
        <pt x="750" y="433" on="0"/>
        <pt x="820" y="330" on="0"/>
      </contour>
    </TTGlyph>
    <TTGlyph name="atilde" xMin="92" yMin="-30" xMax="1055" yMax="1450">
      <component glyphName="a" x="0" y="0" flags="0x204"/>
      <component glyphName="tilde" x="117" y="0" flags="0x4"/>
    </TTGlyph>
    <TTGlyph name="b" xMin="10" yMin="-45" xMax="1087" yMax="1561">
      <contour>
        <pt x="256" y="-45" on="1"/>
        <pt x="195" y="-45" on="1"/>
        <pt x="195" y="1376" on="1"/>
        <pt x="10" y="1448" on="1"/>
        <pt x="10" y="1489" on="1"/>
        <pt x="358" y="1561" on="1"/>
        <pt x="379" y="1540" on="1"/>
        <pt x="379" y="958" on="1"/>
        <pt x="483" y="1049" on="0"/>
        <pt x="651" y="1049" on="1"/>
        <pt x="734" y="1049" on="0"/>
        <pt x="891" y="974" on="0"/>
        <pt x="1013" y="839" on="0"/>
        <pt x="1087" y="633" on="0"/>
        <pt x="1087" y="512" on="1"/>
        <pt x="1087" y="384" on="0"/>
        <pt x="1002" y="176" on="0"/>
        <pt x="858" y="45" on="0"/>
        <pt x="675" y="-25" on="0"/>
        <pt x="573" y="-25" on="1"/>
        <pt x="442" y="-25" on="0"/>
        <pt x="313" y="35" on="1"/>
      </contour>
      <contour>
        <pt x="578" y="946" on="1"/>
        <pt x="460" y="946" on="0"/>
        <pt x="379" y="852" on="1"/>
        <pt x="379" y="172" on="1"/>
        <pt x="429" y="115" on="0"/>
        <pt x="528" y="78" on="0"/>
        <pt x="584" y="78" on="1"/>
        <pt x="677" y="78" on="0"/>
        <pt x="814" y="204" on="0"/>
        <pt x="879" y="397" on="0"/>
        <pt x="879" y="512" on="1"/>
        <pt x="879" y="703" on="0"/>
        <pt x="714" y="946" on="0"/>
      </contour>
    </TTGlyph>
    <TTGlyph name="backslash" xMin="-102" yMin="-377" xMax="958" yMax="1536">
      <contour>
        <pt x="958" y="-377" on="1"/>
        <pt x="801" y="-377" on="1"/>
        <pt x="-102" y="1536" on="1"/>
        <pt x="55" y="1536" on="1"/>
      </contour>
    </TTGlyph>
    <TTGlyph name="bar" xMin="184" yMin="-506" xMax="315" yMax="1567">
      <contour>
        <pt x="315" y="-504" on="1"/>
        <pt x="184" y="-506" on="1"/>
        <pt x="184" y="1567" on="1"/>
        <pt x="315" y="1567" on="1"/>
      </contour>
    </TTGlyph>
    <TTGlyph name="braceleft" xMin="154" yMin="-375" xMax="768" yMax="1614">
      <contour>
        <pt x="154" y="575" on="1"/>
        <pt x="154" y="653" on="1"/>
        <pt x="248" y="653" on="0"/>
        <pt x="350" y="873" on="0"/>
        <pt x="350" y="1044" on="1"/>
        <pt x="350" y="1284" on="1"/>
        <pt x="350" y="1459" on="0"/>
        <pt x="531" y="1614" on="0"/>
        <pt x="737" y="1614" on="1"/>
        <pt x="768" y="1614" on="1"/>
        <pt x="768" y="1536" on="1"/>
        <pt x="688" y="1532" on="0"/>
        <pt x="596" y="1508" on="0"/>
        <pt x="541" y="1449" on="0"/>
        <pt x="524" y="1365" on="0"/>
        <pt x="524" y="1292" on="1"/>
        <pt x="524" y="1096" on="1"/>
        <pt x="524" y="1008" on="0"/>
        <pt x="504" y="853" on="0"/>
        <pt x="464" y="721" on="0"/>
        <pt x="394" y="630" on="0"/>
        <pt x="348" y="614" on="1"/>
        <pt x="524" y="554" on="0"/>
        <pt x="524" y="174" on="1"/>
        <pt x="524" y="-53" on="1"/>
        <pt x="524" y="-126" on="0"/>
        <pt x="541" y="-210" on="0"/>
        <pt x="596" y="-269" on="0"/>
        <pt x="688" y="-293" on="0"/>
        <pt x="768" y="-297" on="1"/>
        <pt x="768" y="-375" on="1"/>
        <pt x="737" y="-375" on="1"/>
        <pt x="531" y="-375" on="0"/>
        <pt x="350" y="-219" on="0"/>
        <pt x="350" y="-45" on="1"/>
        <pt x="350" y="225" on="1"/>
        <pt x="350" y="391" on="0"/>
        <pt x="251" y="575" on="0"/>
      </contour>
    </TTGlyph>
    <TTGlyph name="braceright" xMin="72" yMin="-375" xMax="686" yMax="1614">
      <contour>
        <pt x="686" y="653" on="1"/>
        <pt x="686" y="575" on="1"/>
        <pt x="589" y="575" on="0"/>
        <pt x="490" y="391" on="0"/>
        <pt x="490" y="225" on="1"/>
        <pt x="490" y="-45" on="1"/>
        <pt x="490" y="-219" on="0"/>
        <pt x="309" y="-375" on="0"/>
        <pt x="103" y="-375" on="1"/>
        <pt x="72" y="-375" on="1"/>
        <pt x="72" y="-297" on="1"/>
        <pt x="152" y="-293" on="0"/>
        <pt x="244" y="-269" on="0"/>
        <pt x="299" y="-210" on="0"/>
        <pt x="316" y="-126" on="0"/>
        <pt x="316" y="-53" on="1"/>
        <pt x="316" y="174" on="1"/>
        <pt x="316" y="554" on="0"/>
        <pt x="492" y="614" on="1"/>
        <pt x="446" y="630" on="0"/>
        <pt x="376" y="721" on="0"/>
        <pt x="336" y="853" on="0"/>
        <pt x="316" y="1008" on="0"/>
        <pt x="316" y="1096" on="1"/>
        <pt x="316" y="1292" on="1"/>
        <pt x="316" y="1365" on="0"/>
        <pt x="299" y="1449" on="0"/>
        <pt x="244" y="1508" on="0"/>
        <pt x="152" y="1532" on="0"/>
        <pt x="72" y="1536" on="1"/>
        <pt x="72" y="1614" on="1"/>
        <pt x="103" y="1614" on="1"/>
        <pt x="309" y="1614" on="0"/>
        <pt x="490" y="1459" on="0"/>
        <pt x="490" y="1284" on="1"/>
        <pt x="490" y="1044" on="1"/>
        <pt x="490" y="873" on="0"/>
        <pt x="592" y="653" on="0"/>
      </contour>
    </TTGlyph>
    <TTGlyph name="bracketleft" xMin="205" yMin="-375" xMax="612" yMax="1649">
      <contour>
        <pt x="612" y="-375" on="1"/>
        <pt x="205" y="-375" on="1"/>
        <pt x="205" y="1649" on="1"/>
        <pt x="612" y="1649" on="1"/>
        <pt x="612" y="1536" on="1"/>
        <pt x="379" y="1536" on="1"/>
        <pt x="379" y="-262" on="1"/>
        <pt x="612" y="-262" on="1"/>
      </contour>
    </TTGlyph>
    <TTGlyph name="bracketright" xMin="31" yMin="-375" xMax="438" yMax="1649">
      <contour>
        <pt x="31" y="1649" on="1"/>
        <pt x="438" y="1649" on="1"/>
        <pt x="438" y="-375" on="1"/>
        <pt x="31" y="-375" on="1"/>
        <pt x="31" y="-262" on="1"/>
        <pt x="264" y="-262" on="1"/>
        <pt x="264" y="1536" on="1"/>
        <pt x="31" y="1536" on="1"/>
      </contour>
    </TTGlyph>
    <TTGlyph name="brokenbar" xMin="184" yMin="-352" xMax="315" yMax="1423">
      <contour>
        <pt x="315" y="676" on="1"/>
        <pt x="184" y="676" on="1"/>
        <pt x="184" y="1423" on="1"/>
        <pt x="315" y="1423" on="1"/>
      </contour>
      <contour>
        <pt x="184" y="406" on="1"/>
        <pt x="315" y="406" on="1"/>
        <pt x="315" y="-350" on="1"/>
        <pt x="184" y="-352" on="1"/>
      </contour>
    </TTGlyph>
    <TTGlyph name="bullet" xMin="205" yMin="512" xMax="723" yMax="1030">
      <contour>
        <pt x="205" y="770" on="1"/>
        <pt x="205" y="822" on="0"/>
        <pt x="247" y="917" on="0"/>
        <pt x="318" y="988" on="0"/>
        <pt x="412" y="1030" on="0"/>
        <pt x="465" y="1030" on="1"/>
        <pt x="517" y="1030" on="0"/>
        <pt x="611" y="988" on="0"/>
        <pt x="682" y="917" on="0"/>
        <pt x="723" y="822" on="0"/>
        <pt x="723" y="770" on="1"/>
        <pt x="723" y="718" on="0"/>
        <pt x="681" y="624" on="0"/>
        <pt x="611" y="554" on="0"/>
        <pt x="517" y="512" on="0"/>
        <pt x="465" y="512" on="1"/>
        <pt x="412" y="512" on="0"/>
        <pt x="318" y="554" on="0"/>
        <pt x="247" y="625" on="0"/>
        <pt x="205" y="719" on="0"/>
      </contour>
    </TTGlyph>
    <TTGlyph name="c" xMin="92" yMin="-25" xMax="924" yMax="1051">
      <contour>
        <pt x="565" y="-25" on="1"/>
        <pt x="471" y="-25" on="0"/>
        <pt x="300" y="52" on="0"/>
        <pt x="170" y="189" on="0"/>
        <pt x="92" y="393" on="0"/>
        <pt x="92" y="512" on="1"/>
        <pt x="92" y="641" on="0"/>
        <pt x="170" y="849" on="0"/>
        <pt x="307" y="981" on="0"/>
        <pt x="485" y="1051" on="0"/>
        <pt x="588" y="1051" on="1"/>
        <pt x="735" y="1051" on="0"/>
        <pt x="877" y="985" on="1"/>
        <pt x="877" y="676" on="1"/>
        <pt x="836" y="676" on="1"/>
        <pt x="725" y="944" on="1"/>
        <pt x="665" y="958" on="0"/>
        <pt x="606" y="958" on="1"/>
        <pt x="449" y="958" on="0"/>
        <pt x="299" y="726" on="0"/>
        <pt x="299" y="512" on="1"/>
        <pt x="299" y="308" on="0"/>
        <pt x="497" y="90" on="0"/>
        <pt x="670" y="90" on="1"/>
        <pt x="729" y="90" on="0"/>
        <pt x="824" y="121" on="0"/>
        <pt x="893" y="160" on="1"/>
        <pt x="924" y="96" on="1"/>
        <pt x="835" y="26" on="0"/>
        <pt x="669" y="-25" on="0"/>
      </contour>
    </TTGlyph>
    <TTGlyph name="caron" xMin="72" yMin="1227" xMax="657" yMax="1616">
      <contour>
        <pt x="319" y="1227" on="1"/>
        <pt x="72" y="1573" on="1"/>
        <pt x="84" y="1595" on="1"/>
        <pt x="166" y="1616" on="1"/>
        <pt x="367" y="1391" on="1"/>
        <pt x="569" y="1616" on="1"/>
        <pt x="645" y="1595" on="1"/>
        <pt x="657" y="1571" on="1"/>
        <pt x="414" y="1227" on="1"/>
      </contour>
    </TTGlyph>
    <TTGlyph name="caron.case" xMin="51" yMin="1544" xMax="715" yMax="1874">
      <contour>
        <pt x="51" y="1804" on="1"/>
        <pt x="51" y="1833" on="1"/>
        <pt x="119" y="1874" on="1"/>
        <pt x="379" y="1669" on="1"/>
        <pt x="387" y="1669" on="1"/>
        <pt x="647" y="1874" on="1"/>
        <pt x="715" y="1833" on="1"/>
        <pt x="715" y="1804" on="1"/>
        <pt x="440" y="1544" on="1"/>
        <pt x="326" y="1544" on="1"/>
      </contour>
    </TTGlyph>
    <TTGlyph name="ccedilla" xMin="92" yMin="-492" xMax="924" yMax="1051">
      <contour>
        <pt x="924" y="96" on="1"/>
        <pt x="841" y="31" on="0"/>
        <pt x="691" y="-21" on="0"/>
        <pt x="600" y="-25" on="1"/>
        <pt x="586" y="-82" on="1"/>
        <pt x="691" y="-86" on="0"/>
        <pt x="811" y="-192" on="0"/>
        <pt x="811" y="-270" on="1"/>
        <pt x="811" y="-330" on="0"/>
        <pt x="766" y="-419" on="0"/>
        <pt x="687" y="-469" on="0"/>
        <pt x="593" y="-492" on="0"/>
        <pt x="537" y="-492" on="1"/>
        <pt x="461" y="-492" on="0"/>
        <pt x="387" y="-473" on="1"/>
        <pt x="387" y="-397" on="1"/>
        <pt x="448" y="-406" on="0"/>
        <pt x="477" y="-406" on="1"/>
        <pt x="649" y="-406" on="0"/>
        <pt x="649" y="-272" on="1"/>
        <pt x="649" y="-150" on="0"/>
        <pt x="504" y="-127" on="1"/>
        <pt x="528" y="-23" on="1"/>
        <pt x="440" y="-16" on="0"/>
        <pt x="283" y="67" on="0"/>
        <pt x="163" y="202" on="0"/>
        <pt x="92" y="399" on="0"/>
        <pt x="92" y="512" on="1"/>
        <pt x="92" y="641" on="0"/>
        <pt x="170" y="849" on="0"/>
        <pt x="307" y="981" on="0"/>
        <pt x="485" y="1051" on="0"/>
        <pt x="588" y="1051" on="1"/>
        <pt x="735" y="1051" on="0"/>
        <pt x="877" y="985" on="1"/>
        <pt x="877" y="676" on="1"/>
        <pt x="836" y="676" on="1"/>
        <pt x="725" y="944" on="1"/>
        <pt x="665" y="958" on="0"/>
        <pt x="606" y="958" on="1"/>
        <pt x="449" y="958" on="0"/>
        <pt x="299" y="726" on="0"/>
        <pt x="299" y="512" on="1"/>
        <pt x="299" y="308" on="0"/>
        <pt x="497" y="90" on="0"/>
        <pt x="670" y="90" on="1"/>
        <pt x="729" y="90" on="0"/>
        <pt x="824" y="121" on="0"/>
        <pt x="893" y="160" on="1"/>
      </contour>
    </TTGlyph>
    <TTGlyph name="cedilla" xMin="143" yMin="-492" xMax="567" yMax="0">
      <contour>
        <pt x="291" y="0" on="1"/>
        <pt x="362" y="0" on="1"/>
        <pt x="342" y="-82" on="1"/>
        <pt x="447" y="-86" on="0"/>
        <pt x="567" y="-192" on="0"/>
        <pt x="567" y="-270" on="1"/>
        <pt x="567" y="-330" on="0"/>
        <pt x="522" y="-419" on="0"/>
        <pt x="443" y="-469" on="0"/>
        <pt x="349" y="-492" on="0"/>
        <pt x="293" y="-492" on="1"/>
        <pt x="217" y="-492" on="0"/>
        <pt x="143" y="-473" on="1"/>
        <pt x="143" y="-397" on="1"/>
        <pt x="204" y="-406" on="0"/>
        <pt x="233" y="-406" on="1"/>
        <pt x="406" y="-406" on="0"/>
        <pt x="406" y="-272" on="1"/>
        <pt x="406" y="-150" on="0"/>
        <pt x="260" y="-127" on="1"/>
      </contour>
    </TTGlyph>
    <TTGlyph name="cent" xMin="113" yMin="-51" xMax="944" yMax="1300">
      <contour>
        <pt x="553" y="-51" on="1"/>
        <pt x="553" y="98" on="1"/>
        <pt x="368" y="113" on="0"/>
        <pt x="113" y="409" on="0"/>
        <pt x="113" y="635" on="1"/>
        <pt x="113" y="873" on="0"/>
        <pt x="360" y="1152" on="0"/>
        <pt x="553" y="1169" on="1"/>
        <pt x="553" y="1300" on="1"/>
        <pt x="645" y="1300" on="1"/>
        <pt x="645" y="1171" on="1"/>
        <pt x="775" y="1165" on="0"/>
        <pt x="897" y="1108" on="1"/>
        <pt x="897" y="799" on="1"/>
        <pt x="856" y="799" on="1"/>
        <pt x="745" y="1067" on="1"/>
        <pt x="697" y="1078" on="0"/>
        <pt x="645" y="1081" on="1"/>
        <pt x="645" y="215" on="1"/>
        <pt x="659" y="213" on="0"/>
        <pt x="690" y="213" on="1"/>
        <pt x="749" y="213" on="0"/>
        <pt x="844" y="243" on="0"/>
        <pt x="913" y="283" on="1"/>
        <pt x="944" y="219" on="1"/>
        <pt x="806" y="110" on="0"/>
        <pt x="645" y="100" on="1"/>
        <pt x="645" y="-51" on="1"/>
      </contour>
      <contour>
        <pt x="319" y="635" on="1"/>
        <pt x="319" y="477" on="0"/>
        <pt x="442" y="271" on="0"/>
        <pt x="553" y="233" on="1"/>
        <pt x="553" y="1073" on="1"/>
        <pt x="319" y="1020" on="0"/>
      </contour>
    </TTGlyph>
    <TTGlyph name="circumflex" xMin="51" yMin="1165" xMax="637" yMax="1554">
      <contour>
        <pt x="389" y="1554" on="1"/>
        <pt x="637" y="1208" on="1"/>
        <pt x="625" y="1186" on="1"/>
        <pt x="543" y="1165" on="1"/>
        <pt x="346" y="1391" on="1"/>
        <pt x="338" y="1391" on="1"/>
        <pt x="139" y="1165" on="1"/>
        <pt x="63" y="1186" on="1"/>
        <pt x="51" y="1210" on="1"/>
        <pt x="295" y="1554" on="1"/>
      </contour>
    </TTGlyph>
    <TTGlyph name="circumflex.case" xMin="33" yMin="1573" xMax="696" yMax="1903">
      <contour>
        <pt x="307" y="1903" on="1"/>
        <pt x="422" y="1903" on="1"/>
        <pt x="696" y="1642" on="1"/>
        <pt x="696" y="1614" on="1"/>
        <pt x="629" y="1573" on="1"/>
        <pt x="369" y="1778" on="1"/>
        <pt x="360" y="1778" on="1"/>
        <pt x="100" y="1573" on="1"/>
        <pt x="33" y="1614" on="1"/>
        <pt x="33" y="1642" on="1"/>
      </contour>
    </TTGlyph>
    <TTGlyph name="colon" xMin="154" yMin="-25" xMax="406" yMax="1036">
      <contour>
        <pt x="281" y="227" on="1"/>
        <pt x="306" y="227" on="0"/>
        <pt x="352" y="207" on="0"/>
        <pt x="386" y="173" on="0"/>
        <pt x="406" y="127" on="0"/>
        <pt x="406" y="102" on="1"/>
        <pt x="406" y="76" on="0"/>
        <pt x="387" y="30" on="0"/>
        <pt x="353" y="-5" on="0"/>
        <pt x="307" y="-25" on="0"/>
        <pt x="281" y="-25" on="1"/>
        <pt x="254" y="-25" on="0"/>
        <pt x="208" y="-5" on="0"/>
        <pt x="174" y="29" on="0"/>
        <pt x="154" y="75" on="0"/>
        <pt x="154" y="102" on="1"/>
        <pt x="154" y="129" on="0"/>
        <pt x="174" y="174" on="0"/>
        <pt x="208" y="208" on="0"/>
        <pt x="254" y="227" on="0"/>
      </contour>
      <contour>
        <pt x="281" y="1036" on="1"/>
        <pt x="333" y="1036" on="0"/>
        <pt x="406" y="963" on="0"/>
        <pt x="406" y="911" on="1"/>
        <pt x="406" y="858" on="0"/>
        <pt x="333" y="784" on="0"/>
        <pt x="281" y="784" on="1"/>
        <pt x="227" y="784" on="0"/>
        <pt x="154" y="858" on="0"/>
        <pt x="154" y="964" on="0"/>
        <pt x="227" y="1036" on="0"/>
      </contour>
    </TTGlyph>
    <TTGlyph name="comma" xMin="113" yMin="-328" xMax="442" yMax="225">
      <contour>
        <pt x="186" y="100" on="1"/>
        <pt x="186" y="152" on="0"/>
        <pt x="260" y="225" on="0"/>
        <pt x="313" y="225" on="1"/>
        <pt x="380" y="225" on="0"/>
        <pt x="442" y="130" on="0"/>
        <pt x="442" y="57" on="1"/>
        <pt x="442" y="-77" on="0"/>
        <pt x="272" y="-292" on="0"/>
        <pt x="145" y="-328" on="1"/>
        <pt x="113" y="-266" on="1"/>
        <pt x="198" y="-226" on="0"/>
        <pt x="315" y="-110" on="0"/>
        <pt x="315" y="-45" on="1"/>
        <pt x="313" y="-27" on="1"/>
        <pt x="260" y="-27" on="0"/>
        <pt x="186" y="47" on="0"/>
      </contour>
    </TTGlyph>
    <TTGlyph name="copyright" xMin="113" yMin="-25" xMax="1579" yMax="1470">
      <contour>
        <pt x="1456" y="731" on="1"/>
        <pt x="1456" y="816" on="0"/>
        <pt x="1418" y="976" on="0"/>
        <pt x="1345" y="1116" on="0"/>
        <pt x="1240" y="1232" on="0"/>
        <pt x="1106" y="1316" on="0"/>
        <pt x="947" y="1362" on="0"/>
        <pt x="856" y="1362" on="1"/>
        <pt x="726" y="1362" on="0"/>
        <pt x="501" y="1265" on="0"/>
        <pt x="334" y="1094" on="0"/>
        <pt x="238" y="860" on="0"/>
        <pt x="238" y="723" on="1"/>
        <pt x="238" y="594" on="0"/>
        <pt x="327" y="363" on="0"/>
        <pt x="487" y="187" on="0"/>
        <pt x="712" y="84" on="0"/>
        <pt x="848" y="84" on="1"/>
        <pt x="978" y="84" on="0"/>
        <pt x="1201" y="185" on="0"/>
        <pt x="1364" y="360" on="0"/>
        <pt x="1456" y="596" on="0"/>
      </contour>
      <contour>
        <pt x="1579" y="731" on="1"/>
        <pt x="1579" y="582" on="0"/>
        <pt x="1464" y="304" on="0"/>
        <pt x="1270" y="99" on="0"/>
        <pt x="995" y="-25" on="0"/>
        <pt x="844" y="-25" on="1"/>
        <pt x="643" y="-25" on="0"/>
        <pt x="306" y="175" on="0"/>
        <pt x="113" y="519" on="0"/>
        <pt x="113" y="723" on="1"/>
        <pt x="113" y="876" on="0"/>
        <pt x="229" y="1153" on="0"/>
        <pt x="427" y="1353" on="0"/>
        <pt x="703" y="1470" on="0"/>
        <pt x="856" y="1470" on="1"/>
        <pt x="1010" y="1470" on="0"/>
        <pt x="1281" y="1354" on="0"/>
        <pt x="1470" y="1156" on="0"/>
        <pt x="1579" y="884" on="0"/>
      </contour>
      <contour>
        <pt x="1100" y="338" on="1"/>
        <pt x="1000" y="303" on="0"/>
        <pt x="901" y="303" on="1"/>
        <pt x="815" y="303" on="0"/>
        <pt x="665" y="353" on="0"/>
        <pt x="545" y="450" on="0"/>
        <pt x="475" y="612" on="0"/>
        <pt x="475" y="715" on="1"/>
        <pt x="475" y="920" on="0"/>
        <pt x="718" y="1149" on="0"/>
        <pt x="901" y="1149" on="1"/>
        <pt x="998" y="1149" on="0"/>
        <pt x="1092" y="1118" on="1"/>
        <pt x="1092" y="909" on="1"/>
        <pt x="1049" y="909" on="1"/>
        <pt x="977" y="1047" on="1"/>
        <pt x="919" y="1055" on="0"/>
        <pt x="816" y="1052" on="0"/>
        <pt x="729" y="1007" on="0"/>
        <pt x="666" y="932" on="0"/>
        <pt x="631" y="805" on="0"/>
        <pt x="631" y="721" on="1"/>
        <pt x="631" y="544" on="0"/>
        <pt x="774" y="397" on="0"/>
        <pt x="909" y="397" on="1"/>
        <pt x="954" y="397" on="0"/>
        <pt x="997" y="410" on="1"/>
        <pt x="1055" y="561" on="1"/>
        <pt x="1098" y="561" on="1"/>
      </contour>
    </TTGlyph>
    <TTGlyph name="currency" xMin="113" yMin="455" xMax="1024" yMax="1362">
      <contour>
        <pt x="184" y="455" on="1"/>
        <pt x="113" y="530" on="1"/>
        <pt x="279" y="696" on="1"/>
        <pt x="217" y="784" on="0"/>
        <pt x="217" y="911" on="1"/>
        <pt x="217" y="1031" on="0"/>
        <pt x="279" y="1122" on="1"/>
        <pt x="113" y="1286" on="1"/>
        <pt x="188" y="1362" on="1"/>
        <pt x="350" y="1200" on="1"/>
        <pt x="444" y="1270" on="0"/>
        <pt x="567" y="1270" on="1"/>
        <pt x="697" y="1270" on="0"/>
        <pt x="786" y="1200" on="1"/>
        <pt x="948" y="1362" on="1"/>
        <pt x="1024" y="1286" on="1"/>
        <pt x="858" y="1124" on="1"/>
        <pt x="922" y="1035" on="0"/>
        <pt x="922" y="911" on="1"/>
        <pt x="922" y="786" on="0"/>
        <pt x="860" y="694" on="1"/>
        <pt x="1024" y="530" on="1"/>
        <pt x="952" y="455" on="1"/>
        <pt x="784" y="616" on="1"/>
        <pt x="694" y="551" on="0"/>
        <pt x="571" y="551" on="1"/>
        <pt x="442" y="551" on="0"/>
        <pt x="352" y="618" on="1"/>
      </contour>
      <contour>
        <pt x="567" y="1143" on="1"/>
        <pt x="468" y="1143" on="0"/>
        <pt x="344" y="1013" on="0"/>
        <pt x="344" y="911" on="1"/>
        <pt x="344" y="807" on="0"/>
        <pt x="469" y="676" on="0"/>
        <pt x="571" y="676" on="1"/>
        <pt x="672" y="676" on="0"/>
        <pt x="797" y="807" on="0"/>
        <pt x="797" y="911" on="1"/>
        <pt x="797" y="1014" on="0"/>
        <pt x="671" y="1143" on="0"/>
      </contour>
    </TTGlyph>
    <TTGlyph name="d" xMin="92" yMin="-25" xMax="1169" yMax="1561">
      <contour>
        <pt x="1169" y="88" on="1"/>
        <pt x="1169" y="51" on="1"/>
        <pt x="821" y="-25" on="1"/>
        <pt x="801" y="-4" on="1"/>
        <pt x="801" y="92" on="1"/>
        <pt x="681" y="-25" on="0"/>
        <pt x="518" y="-25" on="1"/>
        <pt x="435" y="-25" on="0"/>
        <pt x="281" y="50" on="0"/>
        <pt x="163" y="185" on="0"/>
        <pt x="92" y="390" on="0"/>
        <pt x="92" y="512" on="1"/>
        <pt x="92" y="631" on="0"/>
        <pt x="173" y="833" on="0"/>
        <pt x="311" y="970" on="0"/>
        <pt x="499" y="1047" on="0"/>
        <pt x="604" y="1047" on="1"/>
        <pt x="699" y="1047" on="0"/>
        <pt x="801" y="1014" on="1"/>
        <pt x="801" y="1376" on="1"/>
        <pt x="616" y="1448" on="1"/>
        <pt x="616" y="1489" on="1"/>
        <pt x="965" y="1561" on="1"/>
        <pt x="985" y="1540" on="1"/>
        <pt x="985" y="139" on="1"/>
      </contour>
      <contour>
        <pt x="801" y="201" on="1"/>
        <pt x="801" y="895" on="1"/>
        <pt x="708" y="946" on="0"/>
        <pt x="625" y="946" on="1"/>
        <pt x="484" y="946" on="0"/>
        <pt x="301" y="697" on="0"/>
        <pt x="301" y="512" on="1"/>
        <pt x="301" y="318" on="0"/>
        <pt x="452" y="82" on="0"/>
        <pt x="588" y="82" on="1"/>
        <pt x="713" y="82" on="0"/>
      </contour>
    </TTGlyph>
    <TTGlyph name="degree" xMin="78" yMin="922" xMax="688" yMax="1532">
      <contour>
        <pt x="168" y="1012" on="1"/>
        <pt x="78" y="1102" on="0"/>
        <pt x="78" y="1227" on="1"/>
        <pt x="78" y="1289" on="0"/>
        <pt x="127" y="1400" on="0"/>
        <pt x="210" y="1483" on="0"/>
        <pt x="321" y="1532" on="0"/>
        <pt x="383" y="1532" on="1"/>
        <pt x="445" y="1532" on="0"/>
        <pt x="556" y="1483" on="0"/>
        <pt x="639" y="1400" on="0"/>
        <pt x="688" y="1289" on="0"/>
        <pt x="688" y="1227" on="1"/>
        <pt x="688" y="1165" on="0"/>
        <pt x="639" y="1054" on="0"/>
        <pt x="556" y="971" on="0"/>
        <pt x="445" y="922" on="0"/>
        <pt x="383" y="922" on="1"/>
        <pt x="258" y="922" on="0"/>
      </contour>
      <contour>
        <pt x="383" y="1036" on="1"/>
        <pt x="423" y="1036" on="0"/>
        <pt x="492" y="1065" on="0"/>
        <pt x="543" y="1116" on="0"/>
        <pt x="573" y="1186" on="0"/>
        <pt x="573" y="1227" on="1"/>
        <pt x="573" y="1266" on="0"/>
        <pt x="543" y="1335" on="0"/>
        <pt x="491" y="1387" on="0"/>
        <pt x="422" y="1417" on="0"/>
        <pt x="383" y="1417" on="1"/>
        <pt x="342" y="1417" on="0"/>
        <pt x="273" y="1387" on="0"/>
        <pt x="222" y="1336" on="0"/>
        <pt x="193" y="1266" on="0"/>
        <pt x="193" y="1227" on="1"/>
        <pt x="193" y="1185" on="0"/>
        <pt x="221" y="1115" on="0"/>
        <pt x="272" y="1064" on="0"/>
        <pt x="342" y="1036" on="0"/>
      </contour>
    </TTGlyph>
    <TTGlyph name="dieresis" xMin="109" yMin="1225" xMax="680" yMax="1454">
      <contour>
        <pt x="109" y="1341" on="1"/>
        <pt x="109" y="1365" on="0"/>
        <pt x="127" y="1406" on="0"/>
        <pt x="158" y="1436" on="0"/>
        <pt x="201" y="1454" on="0"/>
        <pt x="225" y="1454" on="1"/>
        <pt x="249" y="1454" on="0"/>
        <pt x="291" y="1436" on="0"/>
        <pt x="321" y="1406" on="0"/>
        <pt x="338" y="1365" on="0"/>
        <pt x="338" y="1341" on="1"/>
        <pt x="338" y="1317" on="0"/>
        <pt x="321" y="1274" on="0"/>
        <pt x="291" y="1243" on="0"/>
        <pt x="249" y="1225" on="0"/>
        <pt x="225" y="1225" on="1"/>
        <pt x="201" y="1225" on="0"/>
        <pt x="158" y="1243" on="0"/>
        <pt x="127" y="1274" on="0"/>
        <pt x="109" y="1317" on="0"/>
      </contour>
      <contour>
        <pt x="451" y="1341" on="1"/>
        <pt x="451" y="1364" on="0"/>
        <pt x="469" y="1405" on="0"/>
        <pt x="499" y="1436" on="0"/>
        <pt x="541" y="1454" on="0"/>
        <pt x="565" y="1454" on="1"/>
        <pt x="589" y="1454" on="0"/>
        <pt x="631" y="1436" on="0"/>
        <pt x="662" y="1405" on="0"/>
        <pt x="680" y="1364" on="0"/>
        <pt x="680" y="1341" on="1"/>
        <pt x="680" y="1317" on="0"/>
        <pt x="662" y="1274" on="0"/>
        <pt x="631" y="1243" on="0"/>
        <pt x="589" y="1225" on="0"/>
        <pt x="565" y="1225" on="1"/>
        <pt x="541" y="1225" on="0"/>
        <pt x="499" y="1243" on="0"/>
        <pt x="468" y="1274" on="0"/>
        <pt x="451" y="1317" on="0"/>
      </contour>
    </TTGlyph>
    <TTGlyph name="dieresis.case" xMin="98" yMin="1632" xMax="707" yMax="1868">
      <contour>
        <pt x="98" y="1751" on="1"/>
        <pt x="98" y="1776" on="0"/>
        <pt x="115" y="1818" on="0"/>
        <pt x="147" y="1850" on="0"/>
        <pt x="189" y="1868" on="0"/>
        <pt x="215" y="1868" on="1"/>
        <pt x="239" y="1868" on="0"/>
        <pt x="282" y="1850" on="0"/>
        <pt x="313" y="1818" on="0"/>
        <pt x="332" y="1776" on="0"/>
        <pt x="332" y="1751" on="1"/>
        <pt x="332" y="1725" on="0"/>
        <pt x="313" y="1682" on="0"/>
        <pt x="282" y="1650" on="0"/>
        <pt x="239" y="1632" on="0"/>
        <pt x="215" y="1632" on="1"/>
        <pt x="189" y="1632" on="0"/>
        <pt x="147" y="1650" on="0"/>
        <pt x="115" y="1682" on="0"/>
        <pt x="98" y="1725" on="0"/>
      </contour>
      <contour>
        <pt x="471" y="1751" on="1"/>
        <pt x="471" y="1776" on="0"/>
        <pt x="490" y="1818" on="0"/>
        <pt x="522" y="1850" on="0"/>
        <pt x="565" y="1868" on="0"/>
        <pt x="590" y="1868" on="1"/>
        <pt x="615" y="1868" on="0"/>
        <pt x="658" y="1850" on="0"/>
        <pt x="689" y="1818" on="0"/>
        <pt x="707" y="1776" on="0"/>
        <pt x="707" y="1751" on="1"/>
        <pt x="707" y="1725" on="0"/>
        <pt x="689" y="1682" on="0"/>
        <pt x="658" y="1650" on="0"/>
        <pt x="615" y="1632" on="0"/>
        <pt x="590" y="1632" on="1"/>
        <pt x="565" y="1632" on="0"/>
        <pt x="522" y="1650" on="0"/>
        <pt x="490" y="1682" on="0"/>
        <pt x="471" y="1725" on="0"/>
      </contour>
    </TTGlyph>
    <TTGlyph name="divide" xMin="102" yMin="133" xMax="1167" yMax="1167">
      <contour>
        <pt x="102" y="739" on="1"/>
        <pt x="1167" y="739" on="1"/>
        <pt x="1167" y="608" on="1"/>
        <pt x="102" y="608" on="1"/>
      </contour>
      <contour>
        <pt x="510" y="260" on="1"/>
        <pt x="510" y="313" on="0"/>
        <pt x="583" y="385" on="0"/>
        <pt x="637" y="385" on="1"/>
        <pt x="690" y="385" on="0"/>
        <pt x="762" y="312" on="0"/>
        <pt x="762" y="260" on="1"/>
        <pt x="762" y="206" on="0"/>
        <pt x="690" y="133" on="0"/>
        <pt x="637" y="133" on="1"/>
        <pt x="583" y="133" on="0"/>
        <pt x="510" y="206" on="0"/>
      </contour>
      <contour>
        <pt x="637" y="1167" on="1"/>
        <pt x="690" y="1167" on="0"/>
        <pt x="762" y="1094" on="0"/>
        <pt x="762" y="1042" on="1"/>
        <pt x="762" y="989" on="0"/>
        <pt x="689" y="915" on="0"/>
        <pt x="637" y="915" on="1"/>
        <pt x="583" y="915" on="0"/>
        <pt x="510" y="989" on="0"/>
        <pt x="510" y="1095" on="0"/>
        <pt x="583" y="1167" on="0"/>
      </contour>
    </TTGlyph>
    <TTGlyph name="dollar" xMin="133" yMin="-129" xMax="1022" yMax="1606">
      <contour>
        <pt x="532" y="-129" on="1"/>
        <pt x="532" y="-2" on="1"/>
        <pt x="422" y="-1" on="0"/>
        <pt x="244" y="28" on="0"/>
        <pt x="139" y="59" on="1"/>
        <pt x="139" y="410" on="1"/>
        <pt x="188" y="410" on="1"/>
        <pt x="283" y="150" on="1"/>
        <pt x="423" y="111" on="0"/>
        <pt x="532" y="111" on="1"/>
        <pt x="532" y="670" on="1"/>
        <pt x="316" y="767" on="0"/>
        <pt x="133" y="968" on="0"/>
        <pt x="133" y="1108" on="1"/>
        <pt x="133" y="1192" on="0"/>
        <pt x="195" y="1327" on="0"/>
        <pt x="306" y="1416" on="0"/>
        <pt x="448" y="1469" on="0"/>
        <pt x="532" y="1477" on="1"/>
        <pt x="532" y="1606" on="1"/>
        <pt x="625" y="1606" on="1"/>
        <pt x="625" y="1481" on="1"/>
        <pt x="772" y="1478" on="0"/>
        <pt x="946" y="1434" on="1"/>
        <pt x="946" y="1100" on="1"/>
        <pt x="907" y="1100" on="1"/>
        <pt x="803" y="1348" on="1"/>
        <pt x="696" y="1368" on="0"/>
        <pt x="625" y="1368" on="1"/>
        <pt x="625" y="838" on="1"/>
        <pt x="860" y="725" on="0"/>
        <pt x="1022" y="548" on="0"/>
        <pt x="1022" y="399" on="1"/>
        <pt x="1022" y="304" on="0"/>
        <pt x="959" y="157" on="0"/>
        <pt x="847" y="64" on="0"/>
        <pt x="708" y="11" on="0"/>
        <pt x="625" y="2" on="1"/>
        <pt x="625" y="-129" on="1"/>
      </contour>
      <contour>
        <pt x="825" y="346" on="1"/>
        <pt x="825" y="437" on="0"/>
        <pt x="741" y="562" on="0"/>
        <pt x="625" y="625" on="1"/>
        <pt x="625" y="119" on="1"/>
        <pt x="714" y="136" on="0"/>
        <pt x="825" y="246" on="0"/>
      </contour>
      <contour>
        <pt x="328" y="1157" on="1"/>
        <pt x="328" y="1080" on="0"/>
        <pt x="411" y="957" on="0"/>
        <pt x="532" y="887" on="1"/>
        <pt x="532" y="1362" on="1"/>
        <pt x="435" y="1346" on="0"/>
        <pt x="328" y="1243" on="0"/>
      </contour>
    </TTGlyph>
    <TTGlyph name="dotlessi" xMin="82" yMin="0" xMax="635" yMax="1049">
      <contour>
        <pt x="635" y="41" on="1"/>
        <pt x="635" y="0" on="1"/>
        <pt x="82" y="0" on="1"/>
        <pt x="82" y="41" on="1"/>
        <pt x="266" y="113" on="1"/>
        <pt x="266" y="864" on="1"/>
        <pt x="82" y="936" on="1"/>
        <pt x="82" y="977" on="1"/>
        <pt x="430" y="1049" on="1"/>
        <pt x="451" y="1028" on="1"/>
        <pt x="451" y="113" on="1"/>
      </contour>
    </TTGlyph>
    <TTGlyph name="e" xMin="92" yMin="-25" xMax="975" yMax="1049">
      <contour>
        <pt x="946" y="506" on="1"/>
        <pt x="299" y="506" on="1"/>
        <pt x="300" y="394" on="0"/>
        <pt x="362" y="228" on="0"/>
        <pt x="468" y="134" on="0"/>
        <pt x="595" y="90" on="0"/>
        <pt x="670" y="90" on="1"/>
        <pt x="774" y="90" on="0"/>
        <pt x="893" y="160" on="1"/>
        <pt x="924" y="100" on="1"/>
        <pt x="840" y="26" on="0"/>
        <pt x="672" y="-25" on="0"/>
        <pt x="565" y="-25" on="1"/>
        <pt x="472" y="-25" on="0"/>
        <pt x="300" y="54" on="0"/>
        <pt x="170" y="193" on="0"/>
        <pt x="92" y="395" on="0"/>
        <pt x="92" y="512" on="1"/>
        <pt x="92" y="623" on="0"/>
        <pt x="149" y="806" on="0"/>
        <pt x="243" y="928" on="0"/>
        <pt x="368" y="1012" on="0"/>
        <pt x="499" y="1049" on="0"/>
        <pt x="567" y="1049" on="1"/>
        <pt x="652" y="1049" on="0"/>
        <pt x="797" y="986" on="0"/>
        <pt x="910" y="863" on="0"/>
        <pt x="975" y="663" on="0"/>
        <pt x="975" y="535" on="1"/>
      </contour>
      <contour>
        <pt x="571" y="952" on="1"/>
        <pt x="456" y="952" on="0"/>
        <pt x="319" y="770" on="0"/>
        <pt x="303" y="612" on="1"/>
        <pt x="780" y="612" on="1"/>
        <pt x="780" y="772" on="0"/>
        <pt x="672" y="952" on="0"/>
      </contour>
    </TTGlyph>
    <TTGlyph name="eacute" xMin="92" yMin="-25" xMax="975" yMax="1556">
      <component glyphName="e" x="0" y="0" flags="0x4"/>
      <component glyphName="acute" x="369" y="0" flags="0x4"/>
    </TTGlyph>
    <TTGlyph name="ecircumflex" xMin="92" yMin="-25" xMax="975" yMax="1554">
      <component glyphName="e" x="0" y="0" flags="0x4"/>
      <component glyphName="circumflex" x="233" y="0" flags="0x4"/>
    </TTGlyph>
    <TTGlyph name="edieresis" xMin="92" yMin="-25" xMax="975" yMax="1454">
      <component glyphName="e" x="0" y="0" flags="0x4"/>
      <component glyphName="dieresis" x="162" y="0" flags="0x4"/>
    </TTGlyph>
    <TTGlyph name="egrave" xMin="92" yMin="-25" xMax="975" yMax="1556">
      <component glyphName="e" x="0" y="0" flags="0x4"/>
      <component glyphName="grave" x="401" y="0" flags="0x4"/>
    </TTGlyph>
    <TTGlyph name="eight" xMin="92" yMin="-41" xMax="1057" yMax="1516">
      <contour>
        <pt x="993" y="1137" on="1"/>
        <pt x="993" y="1042" on="0"/>
        <pt x="852" y="863" on="0"/>
        <pt x="731" y="791" on="1"/>
        <pt x="798" y="757" on="0"/>
        <pt x="883" y="707" on="0"/>
        <pt x="974" y="634" on="0"/>
        <pt x="1025" y="560" on="0"/>
        <pt x="1057" y="456" on="0"/>
        <pt x="1057" y="393" on="1"/>
        <pt x="1057" y="313" on="0"/>
        <pt x="988" y="159" on="0"/>
        <pt x="866" y="35" on="0"/>
        <pt x="679" y="-41" on="0"/>
        <pt x="569" y="-41" on="1"/>
        <pt x="460" y="-41" on="0"/>
        <pt x="276" y="32" on="0"/>
        <pt x="158" y="153" on="0"/>
        <pt x="92" y="307" on="0"/>
        <pt x="92" y="389" on="1"/>
        <pt x="92" y="511" on="0"/>
        <pt x="239" y="722" on="0"/>
        <pt x="385" y="782" on="1"/>
        <pt x="254" y="849" on="0"/>
        <pt x="147" y="1021" on="0"/>
        <pt x="147" y="1130" on="1"/>
        <pt x="147" y="1221" on="0"/>
        <pt x="220" y="1371" on="0"/>
        <pt x="340" y="1465" on="0"/>
        <pt x="489" y="1516" on="0"/>
        <pt x="569" y="1516" on="1"/>
        <pt x="770" y="1516" on="0"/>
        <pt x="993" y="1309" on="0"/>
      </contour>
      <contour>
        <pt x="553" y="694" on="1"/>
        <pt x="469" y="737" on="1"/>
        <pt x="370" y="683" on="0"/>
        <pt x="283" y="525" on="0"/>
        <pt x="283" y="395" on="1"/>
        <pt x="283" y="251" on="0"/>
        <pt x="441" y="68" on="0"/>
        <pt x="569" y="68" on="1"/>
        <pt x="696" y="68" on="0"/>
        <pt x="852" y="247" on="0"/>
        <pt x="852" y="362" on="1"/>
        <pt x="852" y="405" on="0"/>
        <pt x="829" y="478" on="0"/>
        <pt x="768" y="564" on="0"/>
        <pt x="645" y="651" on="0"/>
      </contour>
      <contour>
        <pt x="346" y="1155" on="1"/>
        <pt x="346" y="1060" on="0"/>
        <pt x="464" y="925" on="0"/>
        <pt x="625" y="844" on="1"/>
        <pt x="653" y="829" on="1"/>
        <pt x="725" y="887" on="0"/>
        <pt x="807" y="1043" on="0"/>
        <pt x="807" y="1114" on="1"/>
        <pt x="807" y="1245" on="0"/>
        <pt x="686" y="1405" on="0"/>
        <pt x="569" y="1405" on="1"/>
        <pt x="468" y="1405" on="0"/>
        <pt x="346" y="1270" on="0"/>
      </contour>
    </TTGlyph>
    <TTGlyph name="emdash" xMin="102" yMin="553" xMax="1855" yMax="676">
      <contour>
        <pt x="102" y="676" on="1"/>
        <pt x="1855" y="676" on="1"/>
        <pt x="1855" y="553" on="1"/>
        <pt x="102" y="553" on="1"/>
      </contour>
    </TTGlyph>
    <TTGlyph name="endash" xMin="102" yMin="555" xMax="1159" yMax="678">
      <contour>
        <pt x="102" y="678" on="1"/>
        <pt x="1159" y="678" on="1"/>
        <pt x="1159" y="555" on="1"/>
        <pt x="102" y="555" on="1"/>
      </contour>
    </TTGlyph>
    <TTGlyph name="equal" xMin="102" yMin="412" xMax="1169" yMax="889">
      <contour>
        <pt x="102" y="889" on="1"/>
        <pt x="1169" y="889" on="1"/>
        <pt x="1169" y="766" on="1"/>
        <pt x="102" y="766" on="1"/>
      </contour>
      <contour>
        <pt x="102" y="535" on="1"/>
        <pt x="1169" y="535" on="1"/>
        <pt x="1169" y="412" on="1"/>
        <pt x="102" y="412" on="1"/>
      </contour>
    </TTGlyph>
    <TTGlyph name="eth" xMin="156" yMin="-47" xMax="1079" yMax="1526">
      <contour>
        <pt x="420" y="1192" on="1"/>
        <pt x="346" y="1247" on="1"/>
        <pt x="444" y="1354" on="1"/>
        <pt x="375" y="1399" on="0"/>
        <pt x="281" y="1442" on="1"/>
        <pt x="346" y="1491" on="1"/>
        <pt x="468" y="1444" on="0"/>
        <pt x="510" y="1423" on="1"/>
        <pt x="604" y="1526" on="1"/>
        <pt x="676" y="1470" on="1"/>
        <pt x="592" y="1378" on="1"/>
        <pt x="823" y="1243" on="0"/>
        <pt x="1079" y="802" on="0"/>
        <pt x="1079" y="506" on="1"/>
        <pt x="1079" y="382" on="0"/>
        <pt x="1022" y="184" on="0"/>
        <pt x="907" y="34" on="0"/>
        <pt x="717" y="-47" on="0"/>
        <pt x="590" y="-47" on="1"/>
        <pt x="460" y="-47" on="0"/>
        <pt x="260" y="93" on="0"/>
        <pt x="156" y="327" on="0"/>
        <pt x="156" y="471" on="1"/>
        <pt x="156" y="613" on="0"/>
        <pt x="255" y="832" on="0"/>
        <pt x="464" y="965" on="0"/>
        <pt x="612" y="965" on="1"/>
        <pt x="715" y="965" on="0"/>
        <pt x="811" y="913" on="1"/>
        <pt x="721" y="1147" on="0"/>
        <pt x="520" y="1300" on="1"/>
      </contour>
      <contour>
        <pt x="885" y="469" on="1"/>
        <pt x="885" y="636" on="0"/>
        <pt x="850" y="782" on="1"/>
        <pt x="756" y="854" on="0"/>
        <pt x="625" y="854" on="1"/>
        <pt x="492" y="854" on="0"/>
        <pt x="352" y="685" on="0"/>
        <pt x="352" y="496" on="1"/>
        <pt x="352" y="270" on="0"/>
        <pt x="492" y="47" on="0"/>
        <pt x="598" y="47" on="1"/>
        <pt x="670" y="47" on="0"/>
        <pt x="776" y="95" on="0"/>
        <pt x="837" y="171" on="0"/>
        <pt x="873" y="286" on="0"/>
        <pt x="885" y="398" on="0"/>
      </contour>
    </TTGlyph>
    <TTGlyph name="exclam" xMin="154" yMin="-27" xMax="406" yMax="1536">
      <contour>
        <pt x="281" y="225" on="1"/>
        <pt x="333" y="225" on="0"/>
        <pt x="406" y="152" on="0"/>
        <pt x="406" y="100" on="1"/>
        <pt x="406" y="47" on="0"/>
        <pt x="333" y="-27" on="0"/>
        <pt x="281" y="-27" on="1"/>
        <pt x="227" y="-27" on="0"/>
        <pt x="154" y="47" on="0"/>
        <pt x="154" y="153" on="0"/>
        <pt x="227" y="225" on="0"/>
      </contour>
      <contour>
        <pt x="344" y="338" on="1"/>
        <pt x="229" y="338" on="1"/>
        <pt x="195" y="1536" on="1"/>
        <pt x="379" y="1536" on="1"/>
      </contour>
    </TTGlyph>
    <TTGlyph name="exclamdown" xMin="153" yMin="-150" xMax="405" yMax="1413">
      <contour>
        <pt x="278" y="1161" on="1"/>
        <pt x="226" y="1161" on="0"/>
        <pt x="153" y="1234" on="0"/>
        <pt x="153" y="1286" on="1"/>
        <pt x="153" y="1339" on="0"/>
        <pt x="226" y="1413" on="0"/>
        <pt x="278" y="1413" on="1"/>
        <pt x="332" y="1413" on="0"/>
        <pt x="405" y="1339" on="0"/>
        <pt x="405" y="1233" on="0"/>
        <pt x="332" y="1161" on="0"/>
      </contour>
      <contour>
        <pt x="215" y="1048" on="1"/>
        <pt x="330" y="1048" on="1"/>
        <pt x="364" y="-150" on="1"/>
        <pt x="180" y="-150" on="1"/>
      </contour>
    </TTGlyph>
    <TTGlyph name="f" xMin="72" yMin="0" xMax="877" yMax="1561">
      <contour>
        <pt x="451" y="885" on="1"/>
        <pt x="451" y="113" on="1"/>
        <pt x="707" y="41" on="1"/>
        <pt x="707" y="0" on="1"/>
        <pt x="82" y="0" on="1"/>
        <pt x="82" y="41" on="1"/>
        <pt x="266" y="113" on="1"/>
        <pt x="266" y="881" on="1"/>
        <pt x="72" y="936" on="1"/>
        <pt x="72" y="977" on="1"/>
        <pt x="266" y="1018" on="1"/>
        <pt x="266" y="1120" on="1"/>
        <pt x="266" y="1227" on="0"/>
        <pt x="342" y="1399" on="0"/>
        <pt x="469" y="1505" on="0"/>
        <pt x="628" y="1561" on="0"/>
        <pt x="715" y="1561" on="1"/>
        <pt x="746" y="1561" on="0"/>
        <pt x="850" y="1545" on="0"/>
        <pt x="877" y="1534" on="1"/>
        <pt x="877" y="1229" on="1"/>
        <pt x="836" y="1229" on="1"/>
        <pt x="694" y="1468" on="1"/>
        <pt x="607" y="1468" on="0"/>
        <pt x="496" y="1380" on="0"/>
        <pt x="451" y="1239" on="0"/>
        <pt x="451" y="1141" on="1"/>
        <pt x="451" y="1018" on="1"/>
        <pt x="733" y="1018" on="1"/>
        <pt x="768" y="1006" on="1"/>
        <pt x="768" y="946" on="1"/>
      </contour>
    </TTGlyph>
    <TTGlyph name="five" xMin="92" yMin="-41" xMax="981" yMax="1475">
      <contour>
        <pt x="92" y="27" on="1"/>
        <pt x="92" y="408" on="1"/>
        <pt x="143" y="408" on="1"/>
        <pt x="252" y="111" on="1"/>
        <pt x="348" y="68" on="0"/>
        <pt x="438" y="68" on="1"/>
        <pt x="506" y="68" on="0"/>
        <pt x="626" y="106" on="0"/>
        <pt x="723" y="181" on="0"/>
        <pt x="780" y="306" on="0"/>
        <pt x="780" y="387" on="1"/>
        <pt x="780" y="449" on="0"/>
        <pt x="762" y="555" on="0"/>
        <pt x="710" y="666" on="0"/>
        <pt x="627" y="744" on="0"/>
        <pt x="484" y="793" on="0"/>
        <pt x="391" y="793" on="1"/>
        <pt x="283" y="793" on="0"/>
        <pt x="133" y="760" on="1"/>
        <pt x="133" y="1475" on="1"/>
        <pt x="922" y="1475" on="1"/>
        <pt x="922" y="1317" on="1"/>
        <pt x="272" y="1317" on="1"/>
        <pt x="272" y="903" on="1"/>
        <pt x="398" y="928" on="0"/>
        <pt x="500" y="928" on="1"/>
        <pt x="609" y="928" on="0"/>
        <pt x="780" y="869" on="0"/>
        <pt x="885" y="776" on="0"/>
        <pt x="954" y="650" on="0"/>
        <pt x="981" y="526" on="0"/>
        <pt x="981" y="461" on="1"/>
        <pt x="981" y="345" on="0"/>
        <pt x="887" y="153" on="0"/>
        <pt x="729" y="28" on="0"/>
        <pt x="522" y="-41" on="0"/>
        <pt x="408" y="-41" on="1"/>
        <pt x="248" y="-41" on="0"/>
      </contour>
    </TTGlyph>
    <TTGlyph name="foundryicon" xMin="121" yMin="-563" xMax="3465" yMax="1462">
      <contour>
        <pt x="1253" y="813" on="1"/>
        <pt x="1264" y="717" on="0"/>
        <pt x="1276" y="528" on="0"/>
        <pt x="1276" y="432" on="1"/>
        <pt x="1276" y="301" on="0"/>
        <pt x="1253" y="51" on="0"/>
        <pt x="1204" y="-170" on="0"/>
        <pt x="1128" y="-355" on="0"/>
        <pt x="1024" y="-489" on="0"/>
        <pt x="891" y="-563" on="0"/>
        <pt x="809" y="-563" on="1"/>
        <pt x="755" y="-563" on="0"/>
        <pt x="686" y="-533" on="0"/>
        <pt x="645" y="-476" on="0"/>
        <pt x="629" y="-391" on="0"/>
        <pt x="629" y="-336" on="1"/>
        <pt x="629" y="-285" on="0"/>
        <pt x="647" y="-196" on="0"/>
        <pt x="659" y="-154" on="1"/>
        <pt x="684" y="-154" on="0"/>
        <pt x="738" y="-162" on="0"/>
        <pt x="791" y="-179" on="0"/>
        <pt x="841" y="-208" on="0"/>
        <pt x="862" y="-229" on="1"/>
        <pt x="857" y="-266" on="0"/>
        <pt x="848" y="-352" on="0"/>
        <pt x="848" y="-395" on="1"/>
        <pt x="848" y="-449" on="0"/>
        <pt x="858" y="-489" on="1"/>
        <pt x="922" y="-448" on="0"/>
        <pt x="993" y="-338" on="0"/>
        <pt x="1033" y="-198" on="0"/>
        <pt x="1053" y="-28" on="0"/>
        <pt x="1065" y="74" on="1"/>
        <pt x="1057" y="61" on="0"/>
        <pt x="1024" y="37" on="0"/>
        <pt x="1004" y="37" on="1"/>
        <pt x="929" y="37" on="0"/>
        <pt x="827" y="118" on="0"/>
        <pt x="795" y="184" on="1"/>
        <pt x="784" y="153" on="0"/>
        <pt x="747" y="89" on="0"/>
        <pt x="690" y="37" on="0"/>
        <pt x="612" y="4" on="0"/>
        <pt x="561" y="4" on="1"/>
        <pt x="482" y="4" on="0"/>
        <pt x="355" y="53" on="0"/>
        <pt x="258" y="138" on="0"/>
        <pt x="187" y="255" on="0"/>
        <pt x="142" y="390" on="0"/>
        <pt x="121" y="538" on="0"/>
        <pt x="121" y="612" on="1"/>
        <pt x="121" y="736" on="0"/>
        <pt x="154" y="977" on="0"/>
        <pt x="226" y="1198" on="0"/>
        <pt x="341" y="1389" on="0"/>
        <pt x="424" y="1462" on="1"/>
        <pt x="470" y="1452" on="0"/>
        <pt x="578" y="1419" on="0"/>
        <pt x="671" y="1350" on="0"/>
        <pt x="733" y="1231" on="0"/>
        <pt x="733" y="1135" on="1"/>
        <pt x="733" y="1059" on="0"/>
        <pt x="661" y="939" on="0"/>
        <pt x="597" y="882" on="0"/>
        <pt x="589" y="875" on="0"/>
        <pt x="586" y="876" on="1"/>
        <pt x="581" y="876" on="0"/>
        <pt x="581" y="884" on="1"/>
        <pt x="581" y="889" on="0"/>
        <pt x="584" y="895" on="1"/>
        <pt x="586" y="909" on="0"/>
        <pt x="588" y="937" on="0"/>
        <pt x="588" y="952" on="1"/>
        <pt x="588" y="991" on="0"/>
        <pt x="576" y="1074" on="0"/>
        <pt x="558" y="1148" on="0"/>
        <pt x="535" y="1205" on="0"/>
        <pt x="524" y="1219" on="1"/>
        <pt x="497" y="1193" on="0"/>
        <pt x="448" y="1072" on="0"/>
        <pt x="411" y="907" on="0"/>
        <pt x="389" y="711" on="0"/>
        <pt x="389" y="611" on="1"/>
        <pt x="389" y="526" on="0"/>
        <pt x="407" y="362" on="0"/>
        <pt x="446" y="221" on="0"/>
        <pt x="508" y="110" on="0"/>
        <pt x="553" y="78" on="1"/>
        <pt x="593" y="91" on="0"/>
        <pt x="657" y="144" on="0"/>
        <pt x="708" y="208" on="0"/>
        <pt x="744" y="273" on="0"/>
        <pt x="756" y="299" on="1"/>
        <pt x="734" y="371" on="0"/>
        <pt x="719" y="531" on="0"/>
        <pt x="719" y="612" on="1"/>
        <pt x="719" y="690" on="0"/>
        <pt x="739" y="796" on="0"/>
        <pt x="758" y="831" on="1"/>
        <pt x="773" y="828" on="0"/>
        <pt x="823" y="818" on="0"/>
        <pt x="878" y="800" on="0"/>
        <pt x="932" y="774" on="0"/>
        <pt x="952" y="756" on="1"/>
        <pt x="946" y="652" on="0"/>
        <pt x="946" y="553" on="1"/>
        <pt x="946" y="441" on="0"/>
        <pt x="968" y="234" on="0"/>
        <pt x="999" y="135" on="1"/>
        <pt x="1023" y="141" on="0"/>
        <pt x="1050" y="207" on="0"/>
        <pt x="1062" y="297" on="0"/>
        <pt x="1065" y="393" on="0"/>
        <pt x="1065" y="429" on="1"/>
        <pt x="1065" y="499" on="0"/>
        <pt x="1054" y="637" on="0"/>
        <pt x="1037" y="762" on="0"/>
        <pt x="1020" y="869" on="0"/>
        <pt x="1014" y="909" on="1"/>
        <pt x="1018" y="909" on="0"/>
        <pt x="1026" y="910" on="0"/>
        <pt x="1031" y="910" on="1"/>
        <pt x="1058" y="910" on="0"/>
        <pt x="1120" y="895" on="0"/>
        <pt x="1180" y="868" on="0"/>
        <pt x="1234" y="833" on="0"/>
      </contour>
      <contour>
        <pt x="1286" y="850" on="1"/>
        <pt x="1328" y="848" on="0"/>
        <pt x="1394" y="841" on="0"/>
        <pt x="1447" y="827" on="0"/>
        <pt x="1488" y="803" on="0"/>
        <pt x="1505" y="784" on="1"/>
        <pt x="1528" y="742" on="0"/>
        <pt x="1565" y="624" on="0"/>
        <pt x="1571" y="543" on="1"/>
        <pt x="1606" y="609" on="0"/>
        <pt x="1653" y="706" on="0"/>
        <pt x="1667" y="748" on="1"/>
        <pt x="1667" y="761" on="0"/>
        <pt x="1672" y="797" on="0"/>
        <pt x="1681" y="833" on="0"/>
        <pt x="1692" y="867" on="0"/>
        <pt x="1698" y="879" on="1"/>
        <pt x="1763" y="873" on="0"/>
        <pt x="1870" y="833" on="0"/>
        <pt x="1892" y="795" on="1"/>
        <pt x="1884" y="750" on="0"/>
        <pt x="1874" y="646" on="0"/>
        <pt x="1874" y="592" on="1"/>
        <pt x="1874" y="519" on="0"/>
        <pt x="1884" y="463" on="1"/>
        <pt x="1851" y="453" on="0"/>
        <pt x="1818" y="453" on="1"/>
        <pt x="1707" y="453" on="0"/>
        <pt x="1688" y="586" on="1"/>
        <pt x="1680" y="565" on="0"/>
        <pt x="1653" y="523" on="0"/>
        <pt x="1624" y="477" on="0"/>
        <pt x="1598" y="427" on="0"/>
        <pt x="1591" y="399" on="1"/>
        <pt x="1591" y="333" on="0"/>
        <pt x="1583" y="199" on="0"/>
        <pt x="1550" y="92" on="0"/>
        <pt x="1485" y="24" on="0"/>
        <pt x="1428" y="24" on="1"/>
        <pt x="1414" y="24" on="0"/>
        <pt x="1399" y="27" on="1"/>
        <pt x="1393" y="118" on="0"/>
        <pt x="1381" y="338" on="0"/>
        <pt x="1358" y="560" on="0"/>
        <pt x="1319" y="769" on="0"/>
      </contour>
      <contour>
        <pt x="2552" y="113" on="1"/>
        <pt x="2565" y="123" on="0"/>
        <pt x="2596" y="155" on="0"/>
        <pt x="2624" y="192" on="0"/>
        <pt x="2644" y="235" on="0"/>
        <pt x="2646" y="256" on="1"/>
        <pt x="2637" y="295" on="0"/>
        <pt x="2624" y="377" on="0"/>
        <pt x="2617" y="458" on="0"/>
        <pt x="2614" y="535" on="0"/>
        <pt x="2614" y="569" on="1"/>
        <pt x="2614" y="634" on="0"/>
        <pt x="2617" y="670" on="1"/>
        <pt x="2600" y="649" on="0"/>
        <pt x="2569" y="567" on="0"/>
        <pt x="2545" y="461" on="0"/>
        <pt x="2530" y="340" on="0"/>
        <pt x="2530" y="281" on="1"/>
        <pt x="2530" y="235" on="0"/>
        <pt x="2541" y="149" on="0"/>
      </contour>
      <contour>
        <pt x="3154" y="535" on="1"/>
        <pt x="3180" y="572" on="0"/>
        <pt x="3219" y="683" on="0"/>
        <pt x="3245" y="812" on="0"/>
        <pt x="3258" y="948" on="0"/>
        <pt x="3258" y="1011" on="1"/>
        <pt x="3258" y="1097" on="0"/>
        <pt x="3246" y="1159" on="1"/>
        <pt x="3231" y="1097" on="0"/>
        <pt x="3202" y="946" on="0"/>
        <pt x="3177" y="783" on="0"/>
        <pt x="3158" y="615" on="0"/>
      </contour>
      <contour>
        <pt x="2177" y="690" on="1"/>
        <pt x="2149" y="605" on="0"/>
        <pt x="2122" y="412" on="0"/>
        <pt x="2122" y="315" on="1"/>
        <pt x="2145" y="318" on="0"/>
        <pt x="2179" y="362" on="0"/>
        <pt x="2201" y="427" on="0"/>
        <pt x="2212" y="505" on="0"/>
        <pt x="2212" y="543" on="1"/>
        <pt x="2212" y="588" on="0"/>
        <pt x="2188" y="669" on="0"/>
      </contour>
      <contour>
        <pt x="2441" y="1317" on="1"/>
        <pt x="2426" y="1286" on="0"/>
        <pt x="2394" y="1206" on="0"/>
        <pt x="2356" y="1121" on="0"/>
        <pt x="2308" y="1037" on="0"/>
        <pt x="2248" y="968" on="0"/>
        <pt x="2172" y="919" on="0"/>
        <pt x="2124" y="911" on="1"/>
        <pt x="2138" y="883" on="0"/>
        <pt x="2165" y="831" on="0"/>
        <pt x="2177" y="809" on="1"/>
        <pt x="2177" y="807" on="0"/>
        <pt x="2179" y="805" on="1"/>
        <pt x="2236" y="777" on="0"/>
        <pt x="2298" y="662" on="0"/>
        <pt x="2298" y="571" on="1"/>
        <pt x="2298" y="519" on="0"/>
        <pt x="2276" y="413" on="0"/>
        <pt x="2232" y="322" on="0"/>
        <pt x="2168" y="255" on="0"/>
        <pt x="2126" y="242" on="1"/>
        <pt x="2137" y="197" on="0"/>
        <pt x="2164" y="121" on="0"/>
        <pt x="2193" y="102" on="1"/>
        <pt x="2223" y="114" on="0"/>
        <pt x="2270" y="159" on="0"/>
        <pt x="2308" y="214" on="0"/>
        <pt x="2335" y="272" on="0"/>
        <pt x="2345" y="297" on="1"/>
        <pt x="2345" y="406" on="1"/>
        <pt x="2349" y="517" on="0"/>
        <pt x="2408" y="715" on="0"/>
        <pt x="2478" y="791" on="1"/>
        <pt x="2513" y="791" on="0"/>
        <pt x="2591" y="776" on="0"/>
        <pt x="2623" y="764" on="1"/>
        <pt x="2626" y="771" on="0"/>
        <pt x="2637" y="815" on="0"/>
        <pt x="2650" y="863" on="0"/>
        <pt x="2663" y="904" on="0"/>
        <pt x="2669" y="909" on="1"/>
        <pt x="2678" y="912" on="0"/>
        <pt x="2689" y="912" on="1"/>
        <pt x="2708" y="912" on="0"/>
        <pt x="2755" y="899" on="0"/>
        <pt x="2800" y="880" on="0"/>
        <pt x="2838" y="856" on="0"/>
        <pt x="2849" y="846" on="1"/>
        <pt x="2837" y="761" on="0"/>
        <pt x="2820" y="555" on="0"/>
        <pt x="2820" y="449" on="1"/>
        <pt x="2820" y="352" on="0"/>
        <pt x="2838" y="169" on="0"/>
        <pt x="2859" y="96" on="1"/>
        <pt x="2861" y="95" on="0"/>
        <pt x="2865" y="95" on="1"/>
        <pt x="2879" y="95" on="0"/>
        <pt x="2908" y="123" on="0"/>
        <pt x="2933" y="161" on="0"/>
        <pt x="2954" y="200" on="0"/>
        <pt x="2961" y="211" on="1"/>
        <pt x="2955" y="240" on="1"/>
        <pt x="2936" y="331" on="0"/>
        <pt x="2918" y="523" on="0"/>
        <pt x="2918" y="625" on="1"/>
        <pt x="2918" y="734" on="0"/>
        <pt x="2940" y="954" on="0"/>
        <pt x="2982" y="1160" on="0"/>
        <pt x="3045" y="1344" on="0"/>
        <pt x="3086" y="1419" on="1"/>
        <pt x="3176" y="1404" on="0"/>
        <pt x="3294" y="1347" on="0"/>
        <pt x="3363" y="1254" on="0"/>
        <pt x="3391" y="1119" on="0"/>
        <pt x="3391" y="1026" on="1"/>
        <pt x="3391" y="938" on="0"/>
        <pt x="3361" y="751" on="0"/>
        <pt x="3302" y="588" on="0"/>
        <pt x="3215" y="464" on="0"/>
        <pt x="3158" y="438" on="1"/>
        <pt x="3158" y="332" on="0"/>
        <pt x="3199" y="162" on="0"/>
        <pt x="3244" y="96" on="1"/>
        <pt x="3307" y="144" on="0"/>
        <pt x="3402" y="310" on="0"/>
        <pt x="3434" y="442" on="1"/>
        <pt x="3444" y="447" on="0"/>
        <pt x="3452" y="447" on="1"/>
        <pt x="3459" y="447" on="0"/>
        <pt x="3464" y="437" on="0"/>
        <pt x="3465" y="424" on="0"/>
        <pt x="3464" y="408" on="0"/>
        <pt x="3464" y="402" on="1"/>
        <pt x="3464" y="362" on="0"/>
        <pt x="3454" y="274" on="0"/>
        <pt x="3432" y="188" on="0"/>
        <pt x="3394" y="110" on="0"/>
        <pt x="3338" y="51" on="0"/>
        <pt x="3261" y="16" on="0"/>
        <pt x="3211" y="16" on="1"/>
        <pt x="3136" y="16" on="0"/>
        <pt x="3025" y="81" on="0"/>
        <pt x="2990" y="141" on="1"/>
        <pt x="2984" y="117" on="0"/>
        <pt x="2960" y="72" on="0"/>
        <pt x="2926" y="37" on="0"/>
        <pt x="2882" y="16" on="0"/>
        <pt x="2857" y="16" on="1"/>
        <pt x="2828" y="16" on="0"/>
        <pt x="2776" y="40" on="0"/>
        <pt x="2734" y="77" on="0"/>
        <pt x="2702" y="122" on="0"/>
        <pt x="2693" y="143" on="1"/>
        <pt x="2688" y="122" on="0"/>
        <pt x="2659" y="85" on="0"/>
        <pt x="2620" y="57" on="0"/>
        <pt x="2576" y="39" on="0"/>
        <pt x="2556" y="37" on="1"/>
        <pt x="2476" y="37" on="0"/>
        <pt x="2387" y="108" on="0"/>
        <pt x="2372" y="164" on="1"/>
        <pt x="2359" y="143" on="0"/>
        <pt x="2323" y="101" on="0"/>
        <pt x="2277" y="65" on="0"/>
        <pt x="2220" y="40" on="0"/>
        <pt x="2187" y="37" on="1"/>
        <pt x="2113" y="37" on="0"/>
        <pt x="2008" y="93" on="0"/>
        <pt x="1942" y="188" on="0"/>
        <pt x="1912" y="312" on="0"/>
        <pt x="1912" y="381" on="1"/>
        <pt x="1912" y="440" on="0"/>
        <pt x="1923" y="569" on="0"/>
        <pt x="1946" y="691" on="0"/>
        <pt x="1978" y="796" on="0"/>
        <pt x="1999" y="831" on="1"/>
        <pt x="2008" y="832" on="0"/>
        <pt x="2026" y="833" on="0"/>
        <pt x="2035" y="833" on="1"/>
        <pt x="2044" y="833" on="0"/>
        <pt x="2062" y="832" on="0"/>
        <pt x="2071" y="831" on="1"/>
        <pt x="2061" y="850" on="0"/>
        <pt x="2044" y="892" on="0"/>
        <pt x="2038" y="913" on="1"/>
        <pt x="1996" y="922" on="0"/>
        <pt x="1918" y="964" on="0"/>
        <pt x="1845" y="1023" on="0"/>
        <pt x="1778" y="1093" on="0"/>
        <pt x="1747" y="1130" on="1"/>
        <pt x="1732" y="1143" on="0"/>
        <pt x="1673" y="1157" on="0"/>
        <pt x="1606" y="1170" on="0"/>
        <pt x="1542" y="1190" on="0"/>
        <pt x="1522" y="1208" on="1"/>
        <pt x="1515" y="1214" on="0"/>
        <pt x="1515" y="1219" on="1"/>
        <pt x="1515" y="1229" on="0"/>
        <pt x="1526" y="1229" on="1"/>
        <pt x="1527" y="1227" on="0"/>
        <pt x="1564" y="1222" on="0"/>
        <pt x="1621" y="1216" on="0"/>
        <pt x="1689" y="1210" on="0"/>
        <pt x="1751" y="1205" on="0"/>
        <pt x="1800" y="1202" on="0"/>
        <pt x="1810" y="1202" on="1"/>
        <pt x="1884" y="1216" on="0"/>
        <pt x="2026" y="1242" on="0"/>
        <pt x="2141" y="1266" on="0"/>
        <pt x="2221" y="1289" on="0"/>
        <pt x="2232" y="1300" on="1"/>
        <pt x="2245" y="1345" on="0"/>
        <pt x="2313" y="1395" on="0"/>
        <pt x="2351" y="1395" on="1"/>
        <pt x="2367" y="1395" on="0"/>
        <pt x="2394" y="1390" on="0"/>
        <pt x="2406" y="1382" on="1"/>
        <pt x="2441" y="1395" on="1"/>
        <pt x="2443" y="1395" on="0"/>
        <pt x="2443" y="1394" on="0"/>
        <pt x="2444" y="1394" on="1"/>
        <pt x="2445" y="1394" on="1"/>
        <pt x="2444" y="1393" on="0"/>
        <pt x="2443" y="1393" on="1"/>
        <pt x="2435" y="1354" on="1"/>
        <pt x="2470" y="1354" on="1"/>
        <pt x="2471" y="1352" on="0"/>
        <pt x="2471" y="1352" on="1"/>
        <pt x="2470" y="1352" on="1"/>
      </contour>
      <contour>
        <pt x="2148" y="817" on="1"/>
        <pt x="2134" y="836" on="0"/>
        <pt x="2108" y="883" on="0"/>
        <pt x="2097" y="909" on="1"/>
        <pt x="2066" y="909" on="1"/>
        <pt x="2091" y="829" on="1"/>
        <pt x="2106" y="826" on="0"/>
        <pt x="2134" y="822" on="0"/>
      </contour>
    </TTGlyph>
    <TTGlyph name="four" xMin="10" yMin="0" xMax="1057" yMax="1516">
      <contour>
        <pt x="721" y="1516" on="1"/>
        <pt x="860" y="1516" on="1"/>
        <pt x="860" y="471" on="1"/>
        <pt x="1057" y="471" on="1"/>
        <pt x="1057" y="313" on="1"/>
        <pt x="860" y="313" on="1"/>
        <pt x="860" y="0" on="1"/>
        <pt x="676" y="0" on="1"/>
        <pt x="676" y="313" on="1"/>
        <pt x="10" y="313" on="1"/>
        <pt x="10" y="475" on="1"/>
      </contour>
      <contour>
        <pt x="164" y="471" on="1"/>
        <pt x="676" y="471" on="1"/>
        <pt x="676" y="1233" on="1"/>
      </contour>
    </TTGlyph>
    <TTGlyph name="fraction" xMin="-119" yMin="-47" xMax="713" yMax="1475">
      <contour>
        <pt x="14" y="-47" on="1"/>
        <pt x="-119" y="-47" on="1"/>
        <pt x="580" y="1475" on="1"/>
        <pt x="713" y="1475" on="1"/>
      </contour>
    </TTGlyph>
    <TTGlyph name="g" xMin="102" yMin="-537" xMax="1147" yMax="1049">
      <contour>
        <pt x="383" y="-39" on="1"/>
        <pt x="285" y="-99" on="0"/>
        <pt x="285" y="-229" on="1"/>
        <pt x="285" y="-288" on="0"/>
        <pt x="343" y="-367" on="0"/>
        <pt x="433" y="-414" on="0"/>
        <pt x="543" y="-434" on="0"/>
        <pt x="594" y="-434" on="1"/>
        <pt x="647" y="-434" on="0"/>
        <pt x="754" y="-413" on="0"/>
        <pt x="839" y="-372" on="0"/>
        <pt x="893" y="-311" on="0"/>
        <pt x="893" y="-270" on="1"/>
        <pt x="893" y="-207" on="0"/>
        <pt x="830" y="-131" on="0"/>
        <pt x="722" y="-86" on="0"/>
        <pt x="576" y="-64" on="0"/>
        <pt x="493" y="-55" on="1"/>
        <pt x="458" y="-51" on="0"/>
        <pt x="403" y="-43" on="0"/>
      </contour>
      <contour>
        <pt x="584" y="279" on="1"/>
        <pt x="481" y="279" on="0"/>
        <pt x="395" y="311" on="1"/>
        <pt x="332" y="269" on="0"/>
        <pt x="332" y="205" on="1"/>
        <pt x="332" y="168" on="0"/>
        <pt x="417" y="124" on="0"/>
        <pt x="553" y="105" on="0"/>
        <pt x="717" y="89" on="0"/>
        <pt x="881" y="55" on="0"/>
        <pt x="1017" y="-4" on="0"/>
        <pt x="1102" y="-123" on="0"/>
        <pt x="1102" y="-209" on="1"/>
        <pt x="1102" y="-278" on="0"/>
        <pt x="1036" y="-392" on="0"/>
        <pt x="929" y="-465" on="0"/>
        <pt x="785" y="-515" on="0"/>
        <pt x="636" y="-537" on="0"/>
        <pt x="559" y="-537" on="1"/>
        <pt x="344" y="-537" on="0"/>
        <pt x="102" y="-388" on="0"/>
        <pt x="102" y="-268" on="1"/>
        <pt x="102" y="-95" on="0"/>
        <pt x="293" y="-16" on="1"/>
        <pt x="174" y="24" on="0"/>
        <pt x="174" y="133" on="1"/>
        <pt x="174" y="261" on="0"/>
        <pt x="330" y="346" on="1"/>
        <pt x="243" y="399" on="0"/>
        <pt x="150" y="569" on="0"/>
        <pt x="150" y="664" on="1"/>
        <pt x="150" y="737" on="0"/>
        <pt x="208" y="874" on="0"/>
        <pt x="315" y="983" on="0"/>
        <pt x="483" y="1049" on="0"/>
        <pt x="584" y="1049" on="1"/>
        <pt x="672" y="1049" on="0"/>
        <pt x="745" y="1024" on="1"/>
        <pt x="1147" y="1024" on="1"/>
        <pt x="1147" y="983" on="1"/>
        <pt x="928" y="905" on="1"/>
        <pt x="1018" y="800" on="0"/>
        <pt x="1018" y="664" on="1"/>
        <pt x="1018" y="591" on="0"/>
        <pt x="959" y="454" on="0"/>
        <pt x="852" y="345" on="0"/>
        <pt x="685" y="279" on="0"/>
      </contour>
      <contour>
        <pt x="358" y="664" on="1"/>
        <pt x="358" y="527" on="0"/>
        <pt x="478" y="381" on="0"/>
        <pt x="584" y="381" on="1"/>
        <pt x="689" y="381" on="0"/>
        <pt x="809" y="528" on="0"/>
        <pt x="809" y="664" on="1"/>
        <pt x="809" y="800" on="0"/>
        <pt x="689" y="946" on="0"/>
        <pt x="584" y="946" on="1"/>
        <pt x="478" y="946" on="0"/>
        <pt x="358" y="800" on="0"/>
      </contour>
    </TTGlyph>
    <TTGlyph name="germandbls" xMin="41" yMin="-41" xMax="1116" yMax="1561">
      <contour>
        <pt x="41" y="885" on="1"/>
        <pt x="41" y="963" on="1"/>
        <pt x="240" y="1018" on="1"/>
        <pt x="240" y="1157" on="1"/>
        <pt x="240" y="1252" on="0"/>
        <pt x="313" y="1410" on="0"/>
        <pt x="432" y="1508" on="0"/>
        <pt x="577" y="1561" on="0"/>
        <pt x="653" y="1561" on="1"/>
        <pt x="829" y="1561" on="0"/>
        <pt x="1012" y="1394" on="0"/>
        <pt x="1012" y="1214" on="1"/>
        <pt x="838" y="1132" on="0"/>
        <pt x="713" y="981" on="0"/>
        <pt x="713" y="868" on="1"/>
        <pt x="713" y="824" on="0"/>
        <pt x="757" y="740" on="0"/>
        <pt x="829" y="669" on="0"/>
        <pt x="915" y="596" on="0"/>
        <pt x="1000" y="514" on="0"/>
        <pt x="1072" y="426" on="0"/>
        <pt x="1116" y="310" on="0"/>
        <pt x="1116" y="246" on="1"/>
        <pt x="1116" y="176" on="0"/>
        <pt x="1061" y="64" on="0"/>
        <pt x="970" y="-5" on="0"/>
        <pt x="859" y="-41" on="0"/>
        <pt x="799" y="-41" on="1"/>
        <pt x="652" y="-41" on="0"/>
        <pt x="506" y="8" on="1"/>
        <pt x="506" y="205" on="1"/>
        <pt x="586" y="205" on="1"/>
        <pt x="643" y="68" on="1"/>
        <pt x="690" y="49" on="0"/>
        <pt x="754" y="49" on="1"/>
        <pt x="856" y="49" on="0"/>
        <pt x="946" y="132" on="0"/>
        <pt x="946" y="240" on="1"/>
        <pt x="946" y="286" on="0"/>
        <pt x="888" y="378" on="0"/>
        <pt x="802" y="450" on="0"/>
        <pt x="701" y="540" on="0"/>
        <pt x="615" y="629" on="0"/>
        <pt x="557" y="756" on="0"/>
        <pt x="557" y="827" on="1"/>
        <pt x="557" y="958" on="0"/>
        <pt x="717" y="1187" on="0"/>
        <pt x="864" y="1253" on="1"/>
        <pt x="864" y="1317" on="0"/>
        <pt x="831" y="1406" on="0"/>
        <pt x="771" y="1450" on="0"/>
        <pt x="703" y="1468" on="0"/>
        <pt x="659" y="1468" on="1"/>
        <pt x="549" y="1468" on="0"/>
        <pt x="418" y="1310" on="0"/>
        <pt x="418" y="1176" on="1"/>
        <pt x="418" y="0" on="1"/>
        <pt x="55" y="0" on="1"/>
        <pt x="55" y="43" on="1"/>
        <pt x="240" y="115" on="1"/>
        <pt x="240" y="885" on="1"/>
      </contour>
    </TTGlyph>
    <TTGlyph name="grave" xMin="-127" yMin="1167" xMax="229" yMax="1556">
      <contour>
        <pt x="33" y="1556" on="1"/>
        <pt x="229" y="1206" on="1"/>
        <pt x="174" y="1167" on="1"/>
        <pt x="-127" y="1470" on="1"/>
        <pt x="-115" y="1511" on="1"/>
      </contour>
    </TTGlyph>
    <TTGlyph name="grave.case" xMin="-29" yMin="1585" xMax="414" yMax="1878">
      <contour>
        <pt x="414" y="1645" on="1"/>
        <pt x="379" y="1585" on="1"/>
        <pt x="-23" y="1735" on="1"/>
        <pt x="-29" y="1776" on="1"/>
        <pt x="88" y="1878" on="1"/>
      </contour>
    </TTGlyph>
    <TTGlyph name="greater" xMin="154" yMin="121" xMax="1137" yMax="1217">
      <contour>
        <pt x="1137" y="725" on="1"/>
        <pt x="1137" y="618" on="1"/>
        <pt x="154" y="121" on="1"/>
        <pt x="154" y="285" on="1"/>
        <pt x="952" y="672" on="1"/>
        <pt x="154" y="1051" on="1"/>
        <pt x="154" y="1217" on="1"/>
      </contour>
    </TTGlyph>
    <TTGlyph name="guillemotleft" xMin="113" yMin="117" xMax="897" yMax="1071">
      <contour>
        <pt x="332" y="594" on="1"/>
        <pt x="631" y="143" on="1"/>
        <pt x="598" y="117" on="1"/>
        <pt x="113" y="571" on="1"/>
        <pt x="113" y="616" on="1"/>
        <pt x="598" y="1071" on="1"/>
        <pt x="631" y="1044" on="1"/>
      </contour>
      <contour>
        <pt x="686" y="594" on="1"/>
        <pt x="897" y="209" on="1"/>
        <pt x="864" y="182" on="1"/>
        <pt x="492" y="573" on="1"/>
        <pt x="492" y="614" on="1"/>
        <pt x="864" y="1006" on="1"/>
        <pt x="897" y="979" on="1"/>
      </contour>
    </TTGlyph>
    <TTGlyph name="guillemotright" xMin="72" yMin="117" xMax="856" yMax="1071">
      <contour>
        <pt x="338" y="143" on="1"/>
        <pt x="637" y="594" on="1"/>
        <pt x="338" y="1044" on="1"/>
        <pt x="371" y="1071" on="1"/>
        <pt x="856" y="616" on="1"/>
        <pt x="856" y="571" on="1"/>
        <pt x="371" y="117" on="1"/>
      </contour>
      <contour>
        <pt x="72" y="209" on="1"/>
        <pt x="283" y="594" on="1"/>
        <pt x="72" y="979" on="1"/>
        <pt x="104" y="1006" on="1"/>
        <pt x="477" y="614" on="1"/>
        <pt x="477" y="573" on="1"/>
        <pt x="104" y="182" on="1"/>
      </contour>
    </TTGlyph>
    <TTGlyph name="guilsinglleft" xMin="113" yMin="117" xMax="631" yMax="1071">
      <contour>
        <pt x="332" y="594" on="1"/>
        <pt x="631" y="143" on="1"/>
        <pt x="598" y="117" on="1"/>
        <pt x="113" y="571" on="1"/>
        <pt x="113" y="616" on="1"/>
        <pt x="598" y="1071" on="1"/>
        <pt x="631" y="1044" on="1"/>
      </contour>
    </TTGlyph>
    <TTGlyph name="guilsinglright" xMin="72" yMin="117" xMax="590" yMax="1071">
      <contour>
        <pt x="72" y="143" on="1"/>
        <pt x="371" y="594" on="1"/>
        <pt x="72" y="1044" on="1"/>
        <pt x="104" y="1071" on="1"/>
        <pt x="590" y="616" on="1"/>
        <pt x="590" y="571" on="1"/>
        <pt x="104" y="117" on="1"/>
      </contour>
    </TTGlyph>
    <TTGlyph name="h" xMin="61" yMin="0" xMax="1278" yMax="1561">
      <contour>
        <pt x="604" y="41" on="1"/>
        <pt x="604" y="0" on="1"/>
        <pt x="61" y="0" on="1"/>
        <pt x="61" y="41" on="1"/>
        <pt x="246" y="113" on="1"/>
        <pt x="246" y="1376" on="1"/>
        <pt x="61" y="1448" on="1"/>
        <pt x="61" y="1489" on="1"/>
        <pt x="410" y="1561" on="1"/>
        <pt x="430" y="1540" on="1"/>
        <pt x="430" y="907" on="1"/>
        <pt x="500" y="973" on="0"/>
        <pt x="690" y="1049" on="0"/>
        <pt x="782" y="1049" on="1"/>
        <pt x="917" y="1049" on="0"/>
        <pt x="1094" y="885" on="0"/>
        <pt x="1094" y="723" on="1"/>
        <pt x="1094" y="113" on="1"/>
        <pt x="1278" y="41" on="1"/>
        <pt x="1278" y="0" on="1"/>
        <pt x="735" y="0" on="1"/>
        <pt x="735" y="41" on="1"/>
        <pt x="909" y="113" on="1"/>
        <pt x="909" y="662" on="1"/>
        <pt x="909" y="806" on="0"/>
        <pt x="807" y="918" on="0"/>
        <pt x="682" y="918" on="1"/>
        <pt x="533" y="918" on="0"/>
        <pt x="430" y="829" on="1"/>
        <pt x="430" y="113" on="1"/>
      </contour>
    </TTGlyph>
    <TTGlyph name="hyphen" xMin="102" yMin="553" xMax="737" yMax="676">
      <contour>
        <pt x="102" y="676" on="1"/>
        <pt x="737" y="676" on="1"/>
        <pt x="737" y="553" on="1"/>
        <pt x="102" y="553" on="1"/>
      </contour>
    </TTGlyph>
    <TTGlyph name="i" xMin="82" yMin="0" xMax="635" yMax="1475">
      <contour>
        <pt x="635" y="41" on="1"/>
        <pt x="635" y="0" on="1"/>
        <pt x="82" y="0" on="1"/>
        <pt x="82" y="41" on="1"/>
        <pt x="266" y="113" on="1"/>
        <pt x="266" y="864" on="1"/>
        <pt x="82" y="936" on="1"/>
        <pt x="82" y="977" on="1"/>
        <pt x="430" y="1049" on="1"/>
        <pt x="451" y="1028" on="1"/>
        <pt x="451" y="113" on="1"/>
      </contour>
      <contour>
        <pt x="199" y="1350" on="1"/>
        <pt x="199" y="1402" on="0"/>
        <pt x="272" y="1475" on="0"/>
        <pt x="326" y="1475" on="1"/>
        <pt x="378" y="1475" on="0"/>
        <pt x="451" y="1402" on="0"/>
        <pt x="451" y="1350" on="1"/>
        <pt x="451" y="1296" on="0"/>
        <pt x="378" y="1223" on="0"/>
        <pt x="326" y="1223" on="1"/>
        <pt x="272" y="1223" on="0"/>
        <pt x="199" y="1296" on="0"/>
      </contour>
    </TTGlyph>
    <TTGlyph name="iacute" xMin="82" yMin="0" xMax="635" yMax="1556">
      <component glyphName="dotlessi" x="0" y="0" flags="0x204"/>
      <component glyphName="acute" x="131" y="0" flags="0x4"/>
    </TTGlyph>
    <TTGlyph name="icircumflex" xMin="82" yMin="0" xMax="670" yMax="1554">
      <component glyphName="dotlessi" x="35" y="0" flags="0x4"/>
      <component glyphName="circumflex" x="31" y="0" flags="0x4"/>
    </TTGlyph>
    <TTGlyph name="idieresis" xMin="83" yMin="0" xMax="684" yMax="1454">
      <component glyphName="dotlessi" x="49" y="0" flags="0x4"/>
      <component glyphName="dieresis" x="-26" y="0" flags="0x4"/>
    </TTGlyph>
    <TTGlyph name="igrave" xMin="82" yMin="0" xMax="680" yMax="1556">
      <component glyphName="dotlessi" x="45" y="0" flags="0x4"/>
      <component glyphName="grave" x="209" y="0" flags="0x4"/>
    </TTGlyph>
    <TTGlyph name="j" xMin="37" yMin="-537" xMax="444" yMax="1475">
      <contour>
        <pt x="55" y="936" on="1"/>
        <pt x="55" y="977" on="1"/>
        <pt x="403" y="1049" on="1"/>
        <pt x="424" y="1028" on="1"/>
        <pt x="424" y="66" on="1"/>
        <pt x="424" y="-43" on="0"/>
        <pt x="405" y="-200" on="0"/>
        <pt x="356" y="-339" on="0"/>
        <pt x="270" y="-435" on="0"/>
        <pt x="137" y="-511" on="0"/>
        <pt x="43" y="-537" on="1"/>
        <pt x="37" y="-471" on="1"/>
        <pt x="77" y="-449" on="0"/>
        <pt x="139" y="-394" on="0"/>
        <pt x="182" y="-336" on="0"/>
        <pt x="211" y="-253" on="0"/>
        <pt x="229" y="-175" on="0"/>
        <pt x="237" y="-58" on="0"/>
        <pt x="240" y="45" on="0"/>
        <pt x="240" y="123" on="1"/>
        <pt x="240" y="864" on="1"/>
      </contour>
      <contour>
        <pt x="193" y="1350" on="1"/>
        <pt x="193" y="1402" on="0"/>
        <pt x="266" y="1475" on="0"/>
        <pt x="319" y="1475" on="1"/>
        <pt x="371" y="1475" on="0"/>
        <pt x="444" y="1402" on="0"/>
        <pt x="444" y="1350" on="1"/>
        <pt x="444" y="1296" on="0"/>
        <pt x="372" y="1223" on="0"/>
        <pt x="266" y="1223" on="0"/>
        <pt x="193" y="1296" on="0"/>
      </contour>
    </TTGlyph>
    <TTGlyph name="k" xMin="61" yMin="0" xMax="1182" yMax="1561">
      <contour>
        <pt x="594" y="41" on="1"/>
        <pt x="594" y="0" on="1"/>
        <pt x="61" y="0" on="1"/>
        <pt x="61" y="41" on="1"/>
        <pt x="246" y="113" on="1"/>
        <pt x="246" y="1376" on="1"/>
        <pt x="61" y="1448" on="1"/>
        <pt x="61" y="1489" on="1"/>
        <pt x="410" y="1561" on="1"/>
        <pt x="430" y="1540" on="1"/>
        <pt x="430" y="559" on="1"/>
        <pt x="520" y="580" on="1"/>
        <pt x="819" y="932" on="1"/>
        <pt x="688" y="983" on="1"/>
        <pt x="688" y="1024" on="1"/>
        <pt x="1124" y="1024" on="1"/>
        <pt x="1124" y="983" on="1"/>
        <pt x="952" y="915" on="1"/>
        <pt x="659" y="571" on="1"/>
        <pt x="1008" y="111" on="1"/>
        <pt x="1008" y="113" on="1"/>
        <pt x="1182" y="41" on="1"/>
        <pt x="1182" y="0" on="1"/>
        <pt x="877" y="0" on="1"/>
        <pt x="502" y="483" on="1"/>
        <pt x="430" y="483" on="1"/>
        <pt x="430" y="113" on="1"/>
      </contour>
    </TTGlyph>
    <TTGlyph name="l" xMin="61" yMin="0" xMax="614" yMax="1561">
      <contour>
        <pt x="614" y="41" on="1"/>
        <pt x="614" y="0" on="1"/>
        <pt x="61" y="0" on="1"/>
        <pt x="61" y="41" on="1"/>
        <pt x="246" y="113" on="1"/>
        <pt x="246" y="1376" on="1"/>
        <pt x="61" y="1448" on="1"/>
        <pt x="61" y="1489" on="1"/>
        <pt x="410" y="1561" on="1"/>
        <pt x="430" y="1540" on="1"/>
        <pt x="430" y="113" on="1"/>
      </contour>
    </TTGlyph>
    <TTGlyph name="less" xMin="92" yMin="121" xMax="1075" yMax="1217">
      <contour>
        <pt x="92" y="618" on="1"/>
        <pt x="92" y="725" on="1"/>
        <pt x="1075" y="1217" on="1"/>
        <pt x="1075" y="1051" on="1"/>
        <pt x="276" y="672" on="1"/>
        <pt x="1075" y="285" on="1"/>
        <pt x="1075" y="121" on="1"/>
      </contour>
    </TTGlyph>
    <TTGlyph name="logicalnot" xMin="102" yMin="313" xMax="1167" yMax="694">
      <contour>
        <pt x="1167" y="313" on="1"/>
        <pt x="1053" y="313" on="1"/>
        <pt x="1053" y="557" on="1"/>
        <pt x="102" y="557" on="1"/>
        <pt x="102" y="694" on="1"/>
        <pt x="1167" y="694" on="1"/>
      </contour>
    </TTGlyph>
    <TTGlyph name="m" xMin="72" yMin="0" xMax="1911" yMax="1049">
      <contour>
        <pt x="614" y="41" on="1"/>
        <pt x="614" y="0" on="1"/>
        <pt x="72" y="0" on="1"/>
        <pt x="72" y="41" on="1"/>
        <pt x="256" y="113" on="1"/>
        <pt x="256" y="864" on="1"/>
        <pt x="72" y="936" on="1"/>
        <pt x="72" y="977" on="1"/>
        <pt x="420" y="1049" on="1"/>
        <pt x="440" y="1028" on="1"/>
        <pt x="440" y="909" on="1"/>
        <pt x="509" y="975" on="0"/>
        <pt x="690" y="1049" on="0"/>
        <pt x="782" y="1049" on="1"/>
        <pt x="872" y="1049" on="0"/>
        <pt x="1018" y="964" on="0"/>
        <pt x="1055" y="879" on="1"/>
        <pt x="1124" y="958" on="0"/>
        <pt x="1323" y="1049" on="0"/>
        <pt x="1425" y="1049" on="1"/>
        <pt x="1485" y="1049" on="0"/>
        <pt x="1591" y="1011" on="0"/>
        <pt x="1676" y="934" on="0"/>
        <pt x="1726" y="806" on="0"/>
        <pt x="1726" y="723" on="1"/>
        <pt x="1726" y="113" on="1"/>
        <pt x="1911" y="41" on="1"/>
        <pt x="1911" y="0" on="1"/>
        <pt x="1368" y="0" on="1"/>
        <pt x="1368" y="41" on="1"/>
        <pt x="1542" y="113" on="1"/>
        <pt x="1542" y="662" on="1"/>
        <pt x="1542" y="805" on="0"/>
        <pt x="1443" y="918" on="0"/>
        <pt x="1325" y="918" on="1"/>
        <pt x="1176" y="918" on="0"/>
        <pt x="1073" y="821" on="1"/>
        <pt x="1083" y="771" on="0"/>
        <pt x="1083" y="723" on="1"/>
        <pt x="1083" y="113" on="1"/>
        <pt x="1257" y="41" on="1"/>
        <pt x="1257" y="0" on="1"/>
        <pt x="725" y="0" on="1"/>
        <pt x="725" y="41" on="1"/>
        <pt x="899" y="113" on="1"/>
        <pt x="899" y="662" on="1"/>
        <pt x="899" y="805" on="0"/>
        <pt x="800" y="918" on="0"/>
        <pt x="682" y="918" on="1"/>
        <pt x="540" y="918" on="0"/>
        <pt x="440" y="829" on="1"/>
        <pt x="440" y="113" on="1"/>
      </contour>
    </TTGlyph>
    <TTGlyph name="macron" xMin="-6" yMin="1309" xMax="1049" yMax="1432">
      <contour>
        <pt x="-6" y="1432" on="1"/>
        <pt x="1049" y="1432" on="1"/>
        <pt x="1049" y="1309" on="1"/>
        <pt x="-6" y="1309" on="1"/>
      </contour>
    </TTGlyph>
    <TTGlyph name="minus" xMin="102" yMin="608" xMax="1167" yMax="739">
      <contour>
        <pt x="1167" y="739" on="1"/>
        <pt x="1167" y="608" on="1"/>
        <pt x="102" y="608" on="1"/>
        <pt x="102" y="739" on="1"/>
      </contour>
    </TTGlyph>
    <TTGlyph name="mu" xMin="25" yMin="-512" xMax="1241" yMax="1024">
      <contour>
        <pt x="1241" y="88" on="1"/>
        <pt x="1241" y="47" on="1"/>
        <pt x="893" y="-25" on="1"/>
        <pt x="872" y="-4" on="1"/>
        <pt x="872" y="117" on="1"/>
        <pt x="801" y="50" on="0"/>
        <pt x="613" y="-25" on="0"/>
        <pt x="520" y="-25" on="1"/>
        <pt x="407" y="-25" on="0"/>
        <pt x="322" y="35" on="1"/>
        <pt x="360" y="-210" on="0"/>
        <pt x="492" y="-430" on="1"/>
        <pt x="471" y="-471" on="1"/>
        <pt x="279" y="-512" on="1"/>
        <pt x="248" y="-471" on="1"/>
        <pt x="209" y="301" on="1"/>
        <pt x="209" y="911" on="1"/>
        <pt x="25" y="983" on="1"/>
        <pt x="25" y="1024" on="1"/>
        <pt x="393" y="1024" on="1"/>
        <pt x="393" y="362" on="1"/>
        <pt x="393" y="218" on="0"/>
        <pt x="496" y="106" on="0"/>
        <pt x="621" y="106" on="1"/>
        <pt x="767" y="106" on="0"/>
        <pt x="872" y="195" on="1"/>
        <pt x="872" y="1024" on="1"/>
        <pt x="1057" y="1024" on="1"/>
        <pt x="1057" y="160" on="1"/>
      </contour>
    </TTGlyph>
    <TTGlyph name="multiply" xMin="211" yMin="250" xMax="1063" yMax="1102">
      <contour>
        <pt x="639" y="770" on="1"/>
        <pt x="965" y="1096" on="1"/>
        <pt x="1057" y="1004" on="1"/>
        <pt x="731" y="678" on="1"/>
        <pt x="1063" y="348" on="1"/>
        <pt x="965" y="250" on="1"/>
        <pt x="633" y="580" on="1"/>
        <pt x="305" y="252" on="1"/>
        <pt x="213" y="344" on="1"/>
        <pt x="541" y="672" on="1"/>
        <pt x="211" y="1004" on="1"/>
        <pt x="309" y="1102" on="1"/>
      </contour>
    </TTGlyph>
    <TTGlyph name="n" xMin="72" yMin="0" xMax="1288" yMax="1049">
      <contour>
        <pt x="614" y="41" on="1"/>
        <pt x="614" y="0" on="1"/>
        <pt x="72" y="0" on="1"/>
        <pt x="72" y="41" on="1"/>
        <pt x="256" y="113" on="1"/>
        <pt x="256" y="864" on="1"/>
        <pt x="72" y="936" on="1"/>
        <pt x="72" y="977" on="1"/>
        <pt x="420" y="1049" on="1"/>
        <pt x="440" y="1028" on="1"/>
        <pt x="440" y="907" on="1"/>
        <pt x="511" y="973" on="0"/>
        <pt x="701" y="1049" on="0"/>
        <pt x="793" y="1049" on="1"/>
        <pt x="927" y="1049" on="0"/>
        <pt x="1104" y="885" on="0"/>
        <pt x="1104" y="723" on="1"/>
        <pt x="1104" y="113" on="1"/>
        <pt x="1288" y="41" on="1"/>
        <pt x="1288" y="0" on="1"/>
        <pt x="745" y="0" on="1"/>
        <pt x="745" y="41" on="1"/>
        <pt x="920" y="113" on="1"/>
        <pt x="920" y="662" on="1"/>
        <pt x="920" y="806" on="0"/>
        <pt x="817" y="918" on="0"/>
        <pt x="692" y="918" on="1"/>
        <pt x="543" y="918" on="0"/>
        <pt x="440" y="829" on="1"/>
        <pt x="440" y="113" on="1"/>
      </contour>
    </TTGlyph>
    <TTGlyph name="nine" xMin="72" yMin="-41" xMax="1100" yMax="1516">
      <contour>
        <pt x="305" y="55" on="1"/>
        <pt x="534" y="55" on="0"/>
        <pt x="842" y="361" on="0"/>
        <pt x="881" y="639" on="1"/>
        <pt x="695" y="510" on="0"/>
        <pt x="537" y="510" on="1"/>
        <pt x="338" y="510" on="0"/>
        <pt x="72" y="778" on="0"/>
        <pt x="72" y="1001" on="1"/>
        <pt x="72" y="1156" on="0"/>
        <pt x="210" y="1393" on="0"/>
        <pt x="442" y="1516" on="0"/>
        <pt x="584" y="1516" on="1"/>
        <pt x="840" y="1516" on="0"/>
        <pt x="1100" y="1153" on="0"/>
        <pt x="1100" y="807" on="1"/>
        <pt x="1100" y="676" on="0"/>
        <pt x="1041" y="428" on="0"/>
        <pt x="922" y="214" on="0"/>
        <pt x="759" y="52" on="0"/>
        <pt x="535" y="-41" on="0"/>
        <pt x="408" y="-41" on="1"/>
        <pt x="288" y="-41" on="0"/>
        <pt x="180" y="-14" on="1"/>
        <pt x="190" y="63" on="1"/>
        <pt x="239" y="55" on="0"/>
      </contour>
      <contour>
        <pt x="584" y="1407" on="1"/>
        <pt x="524" y="1407" on="0"/>
        <pt x="415" y="1359" on="0"/>
        <pt x="326" y="1267" on="0"/>
        <pt x="274" y="1112" on="0"/>
        <pt x="274" y="1014" on="1"/>
        <pt x="274" y="915" on="0"/>
        <pt x="327" y="767" on="0"/>
        <pt x="420" y="681" on="0"/>
        <pt x="535" y="639" on="0"/>
        <pt x="604" y="639" on="1"/>
        <pt x="735" y="639" on="0"/>
        <pt x="889" y="711" on="1"/>
        <pt x="893" y="745" on="0"/>
        <pt x="893" y="815" on="1"/>
        <pt x="893" y="952" on="0"/>
        <pt x="861" y="1162" on="0"/>
        <pt x="791" y="1323" on="0"/>
        <pt x="669" y="1407" on="0"/>
      </contour>
    </TTGlyph>
    <TTGlyph name="ntilde" xMin="72" yMin="0" xMax="1288" yMax="1450">
      <component glyphName="n" x="0" y="0" flags="0x204"/>
      <component glyphName="tilde" x="319" y="0" flags="0x4"/>
    </TTGlyph>
    <TTGlyph name="numbersign" xMin="102" yMin="-43" xMax="1352" yMax="1559">
      <contour>
        <pt x="309" y="-43" on="1"/>
        <pt x="174" y="-20" on="1"/>
        <pt x="322" y="463" on="1"/>
        <pt x="102" y="463" on="1"/>
        <pt x="102" y="573" on="1"/>
        <pt x="354" y="573" on="1"/>
        <pt x="459" y="913" on="1"/>
        <pt x="205" y="913" on="1"/>
        <pt x="205" y="1024" on="1"/>
        <pt x="494" y="1024" on="1"/>
        <pt x="657" y="1559" on="1"/>
        <pt x="793" y="1536" on="1"/>
        <pt x="635" y="1024" on="1"/>
        <pt x="942" y="1024" on="1"/>
        <pt x="1106" y="1559" on="1"/>
        <pt x="1241" y="1536" on="1"/>
        <pt x="1083" y="1024" on="1"/>
        <pt x="1352" y="1024" on="1"/>
        <pt x="1352" y="913" on="1"/>
        <pt x="1051" y="913" on="1"/>
        <pt x="946" y="573" on="1"/>
        <pt x="1249" y="573" on="1"/>
        <pt x="1249" y="463" on="1"/>
        <pt x="911" y="463" on="1"/>
        <pt x="758" y="-43" on="1"/>
        <pt x="623" y="-20" on="1"/>
        <pt x="770" y="463" on="1"/>
        <pt x="463" y="463" on="1"/>
      </contour>
      <contour>
        <pt x="602" y="913" on="1"/>
        <pt x="498" y="573" on="1"/>
        <pt x="803" y="573" on="1"/>
        <pt x="907" y="913" on="1"/>
      </contour>
    </TTGlyph>
    <TTGlyph name="o" xMin="92" yMin="-25" xMax="1071" yMax="1049">
      <contour>
        <pt x="582" y="1049" on="1"/>
        <pt x="696" y="1049" on="0"/>
        <pt x="878" y="971" on="0"/>
        <pt x="1004" y="830" on="0"/>
        <pt x="1071" y="632" on="0"/>
        <pt x="1071" y="512" on="1"/>
        <pt x="1071" y="393" on="0"/>
        <pt x="1005" y="195" on="0"/>
        <pt x="879" y="53" on="0"/>
        <pt x="697" y="-25" on="0"/>
        <pt x="582" y="-25" on="1"/>
        <pt x="466" y="-25" on="0"/>
        <pt x="284" y="53" on="0"/>
        <pt x="158" y="195" on="0"/>
        <pt x="92" y="392" on="0"/>
        <pt x="92" y="512" on="1"/>
        <pt x="92" y="632" on="0"/>
        <pt x="159" y="830" on="0"/>
        <pt x="285" y="971" on="0"/>
        <pt x="467" y="1049" on="0"/>
      </contour>
      <contour>
        <pt x="364" y="837" on="1"/>
        <pt x="287" y="712" on="0"/>
        <pt x="287" y="512" on="1"/>
        <pt x="287" y="413" on="0"/>
        <pt x="326" y="248" on="0"/>
        <pt x="401" y="129" on="0"/>
        <pt x="511" y="63" on="0"/>
        <pt x="582" y="63" on="1"/>
        <pt x="653" y="63" on="0"/>
        <pt x="765" y="129" on="0"/>
        <pt x="842" y="248" on="0"/>
        <pt x="883" y="413" on="0"/>
        <pt x="883" y="512" on="1"/>
        <pt x="883" y="610" on="0"/>
        <pt x="842" y="775" on="0"/>
        <pt x="765" y="894" on="0"/>
        <pt x="653" y="961" on="0"/>
        <pt x="582" y="961" on="1"/>
        <pt x="440" y="961" on="0"/>
      </contour>
    </TTGlyph>
    <TTGlyph name="oacute" xMin="92" yMin="-25" xMax="1071" yMax="1556">
      <component glyphName="o" x="0" y="0" flags="0x204"/>
      <component glyphName="acute" x="385" y="0" flags="0x4"/>
    </TTGlyph>
    <TTGlyph name="ocircumflex" xMin="92" yMin="-25" xMax="1071" yMax="1554">
      <component glyphName="o" x="0" y="0" flags="0x204"/>
      <component glyphName="circumflex" x="250" y="0" flags="0x4"/>
    </TTGlyph>
    <TTGlyph name="odieresis" xMin="92" yMin="-25" xMax="1071" yMax="1454">
      <component glyphName="o" x="0" y="0" flags="0x204"/>
      <component glyphName="dieresis" x="178" y="0" flags="0x4"/>
    </TTGlyph>
    <TTGlyph name="oe" xMin="92" yMin="-25" xMax="1747" yMax="1049">
      <contour>
        <pt x="364" y="837" on="1"/>
        <pt x="287" y="712" on="0"/>
        <pt x="287" y="512" on="1"/>
        <pt x="287" y="413" on="0"/>
        <pt x="326" y="248" on="0"/>
        <pt x="401" y="129" on="0"/>
        <pt x="511" y="63" on="0"/>
        <pt x="582" y="63" on="1"/>
        <pt x="653" y="63" on="0"/>
        <pt x="765" y="129" on="0"/>
        <pt x="842" y="248" on="0"/>
        <pt x="883" y="413" on="0"/>
        <pt x="883" y="512" on="1"/>
        <pt x="883" y="610" on="0"/>
        <pt x="842" y="775" on="0"/>
        <pt x="765" y="894" on="0"/>
        <pt x="653" y="961" on="0"/>
        <pt x="582" y="961" on="1"/>
        <pt x="440" y="961" on="0"/>
      </contour>
      <contour>
        <pt x="582" y="1049" on="1"/>
        <pt x="720" y="1049" on="0"/>
        <pt x="926" y="938" on="0"/>
        <pt x="987" y="838" on="1"/>
        <pt x="1044" y="944" on="0"/>
        <pt x="1227" y="1049" on="0"/>
        <pt x="1339" y="1049" on="1"/>
        <pt x="1423" y="1049" on="0"/>
        <pt x="1571" y="986" on="0"/>
        <pt x="1682" y="858" on="0"/>
        <pt x="1747" y="665" on="0"/>
        <pt x="1747" y="535" on="1"/>
        <pt x="1718" y="506" on="1"/>
        <pt x="1071" y="506" on="1"/>
        <pt x="1074" y="387" on="0"/>
        <pt x="1138" y="227" on="0"/>
        <pt x="1240" y="131" on="0"/>
        <pt x="1371" y="90" on="0"/>
        <pt x="1442" y="90" on="1"/>
        <pt x="1547" y="90" on="0"/>
        <pt x="1665" y="160" on="1"/>
        <pt x="1696" y="100" on="1"/>
        <pt x="1653" y="62" on="0"/>
        <pt x="1571" y="14" on="0"/>
        <pt x="1485" y="-14" on="0"/>
        <pt x="1391" y="-25" on="0"/>
        <pt x="1337" y="-25" on="1"/>
        <pt x="1223" y="-25" on="0"/>
        <pt x="1046" y="87" on="0"/>
        <pt x="991" y="190" on="1"/>
        <pt x="928" y="87" on="0"/>
        <pt x="722" y="-25" on="0"/>
        <pt x="582" y="-25" on="1"/>
        <pt x="466" y="-25" on="0"/>
        <pt x="284" y="53" on="0"/>
        <pt x="158" y="195" on="0"/>
        <pt x="92" y="392" on="0"/>
        <pt x="92" y="512" on="1"/>
        <pt x="92" y="632" on="0"/>
        <pt x="159" y="830" on="0"/>
        <pt x="285" y="971" on="0"/>
        <pt x="467" y="1049" on="0"/>
      </contour>
      <contour>
        <pt x="1343" y="952" on="1"/>
        <pt x="1286" y="952" on="0"/>
        <pt x="1193" y="905" on="0"/>
        <pt x="1126" y="817" on="0"/>
        <pt x="1083" y="691" on="0"/>
        <pt x="1075" y="612" on="1"/>
        <pt x="1552" y="612" on="1"/>
        <pt x="1552" y="692" on="0"/>
        <pt x="1525" y="818" on="0"/>
        <pt x="1472" y="906" on="0"/>
        <pt x="1394" y="952" on="0"/>
      </contour>
    </TTGlyph>
    <TTGlyph name="ograve" xMin="92" yMin="-25" xMax="1071" yMax="1556">
      <component glyphName="o" x="0" y="0" flags="0x204"/>
      <component glyphName="grave" x="418" y="0" flags="0x4"/>
    </TTGlyph>
    <TTGlyph name="one" xMin="72" yMin="0" xMax="766" yMax="1499">
      <contour>
        <pt x="94" y="1221" on="1"/>
        <pt x="72" y="1309" on="1"/>
        <pt x="483" y="1499" on="1"/>
        <pt x="561" y="1499" on="1"/>
        <pt x="561" y="119" on="1"/>
        <pt x="766" y="78" on="1"/>
        <pt x="766" y="0" on="1"/>
        <pt x="106" y="0" on="1"/>
        <pt x="106" y="78" on="1"/>
        <pt x="373" y="119" on="1"/>
        <pt x="373" y="1286" on="1"/>
      </contour>
    </TTGlyph>
    <TTGlyph name="onehalf" xMin="133" yMin="-47" xMax="1833" yMax="1499">
      <component glyphName="twosuperior" x="1178" y="-648" flags="0x4"/>
      <component glyphName="onesuperior" x="61" y="0" flags="0x4"/>
      <component glyphName="fraction" x="684" y="0" flags="0x4"/>
    </TTGlyph>
    <TTGlyph name="onequarter" xMin="133" yMin="-47" xMax="1784" yMax="1499">
      <component glyphName="onesuperior" x="61" y="0" flags="0x4"/>
      <component glyphName="fraction" x="684" y="0" flags="0x4"/>
      <component glyphName="uni2074" x="1075" y="-648" flags="0x4"/>
    </TTGlyph>
    <TTGlyph name="onesuperior" xMin="72" yMin="649" xMax="639" yMax="1499">
      <contour>
        <pt x="639" y="649" on="1"/>
        <pt x="94" y="649" on="1"/>
        <pt x="94" y="727" on="1"/>
        <pt x="301" y="768" on="1"/>
        <pt x="301" y="1335" on="1"/>
        <pt x="100" y="1278" on="1"/>
        <pt x="72" y="1362" on="1"/>
        <pt x="365" y="1499" on="1"/>
        <pt x="457" y="1499" on="1"/>
        <pt x="457" y="768" on="1"/>
        <pt x="639" y="727" on="1"/>
      </contour>
    </TTGlyph>
    <TTGlyph name="ordfeminine" xMin="92" yMin="496" xMax="987" yMax="1499">
      <contour>
        <pt x="987" y="606" on="1"/>
        <pt x="987" y="571" on="1"/>
        <pt x="784" y="508" on="1"/>
        <pt x="723" y="496" on="0"/>
        <pt x="625" y="552" on="0"/>
        <pt x="625" y="616" on="1"/>
        <pt x="625" y="618" on="1"/>
        <pt x="504" y="502" on="0"/>
        <pt x="360" y="502" on="1"/>
        <pt x="226" y="502" on="0"/>
        <pt x="92" y="640" on="0"/>
        <pt x="92" y="745" on="1"/>
        <pt x="92" y="822" on="0"/>
        <pt x="159" y="943" on="0"/>
        <pt x="263" y="1016" on="0"/>
        <pt x="409" y="1066" on="0"/>
        <pt x="548" y="1087" on="0"/>
        <pt x="625" y="1090" on="1"/>
        <pt x="625" y="1178" on="1"/>
        <pt x="625" y="1308" on="0"/>
        <pt x="562" y="1389" on="0"/>
        <pt x="467" y="1389" on="1"/>
        <pt x="393" y="1389" on="0"/>
        <pt x="299" y="1366" on="1"/>
        <pt x="217" y="1171" on="1"/>
        <pt x="156" y="1171" on="1"/>
        <pt x="156" y="1436" on="1"/>
        <pt x="237" y="1467" on="0"/>
        <pt x="423" y="1499" on="0"/>
        <pt x="496" y="1499" on="1"/>
        <pt x="649" y="1499" on="0"/>
        <pt x="815" y="1376" on="0"/>
        <pt x="815" y="1235" on="1"/>
        <pt x="815" y="653" on="1"/>
      </contour>
      <contour>
        <pt x="428" y="625" on="1"/>
        <pt x="480" y="625" on="0"/>
        <pt x="585" y="669" on="0"/>
        <pt x="625" y="709" on="1"/>
        <pt x="625" y="1001" on="1"/>
        <pt x="448" y="991" on="0"/>
        <pt x="276" y="865" on="0"/>
        <pt x="276" y="764" on="1"/>
        <pt x="276" y="625" on="0"/>
      </contour>
    </TTGlyph>
    <TTGlyph name="ordmasculine" xMin="92" yMin="502" xMax="961" yMax="1499">
      <contour>
        <pt x="92" y="999" on="1"/>
        <pt x="92" y="1111" on="0"/>
        <pt x="151" y="1295" on="0"/>
        <pt x="263" y="1427" on="0"/>
        <pt x="424" y="1499" on="0"/>
        <pt x="526" y="1499" on="1"/>
        <pt x="628" y="1499" on="0"/>
        <pt x="789" y="1427" on="0"/>
        <pt x="902" y="1295" on="0"/>
        <pt x="961" y="1111" on="0"/>
        <pt x="961" y="999" on="1"/>
        <pt x="961" y="888" on="0"/>
        <pt x="902" y="704" on="0"/>
        <pt x="789" y="574" on="0"/>
        <pt x="628" y="502" on="0"/>
        <pt x="526" y="502" on="1"/>
        <pt x="424" y="502" on="0"/>
        <pt x="262" y="574" on="0"/>
        <pt x="151" y="704" on="0"/>
        <pt x="92" y="888" on="0"/>
      </contour>
      <contour>
        <pt x="272" y="999" on="1"/>
        <pt x="272" y="908" on="0"/>
        <pt x="305" y="758" on="0"/>
        <pt x="370" y="651" on="0"/>
        <pt x="464" y="592" on="0"/>
        <pt x="526" y="592" on="1"/>
        <pt x="587" y="592" on="0"/>
        <pt x="684" y="651" on="0"/>
        <pt x="751" y="758" on="0"/>
        <pt x="786" y="908" on="0"/>
        <pt x="786" y="999" on="1"/>
        <pt x="786" y="1091" on="0"/>
        <pt x="751" y="1242" on="0"/>
        <pt x="684" y="1350" on="0"/>
        <pt x="587" y="1409" on="0"/>
        <pt x="526" y="1409" on="1"/>
        <pt x="465" y="1409" on="0"/>
        <pt x="371" y="1351" on="0"/>
        <pt x="306" y="1243" on="0"/>
        <pt x="272" y="1092" on="0"/>
      </contour>
    </TTGlyph>
    <TTGlyph name="oslash" xMin="92" yMin="-92" xMax="1071" yMax="1108">
      <contour>
        <pt x="92" y="512" on="1"/>
        <pt x="92" y="754" on="0"/>
        <pt x="352" y="1049" on="0"/>
        <pt x="582" y="1049" on="1"/>
        <pt x="732" y="1049" on="0"/>
        <pt x="850" y="977" on="1"/>
        <pt x="924" y="1108" on="1"/>
        <pt x="1071" y="1108" on="1"/>
        <pt x="948" y="891" on="1"/>
        <pt x="1071" y="746" on="0"/>
        <pt x="1071" y="512" on="1"/>
        <pt x="1071" y="270" on="0"/>
        <pt x="811" y="-25" on="0"/>
        <pt x="582" y="-25" on="1"/>
        <pt x="482" y="-25" on="0"/>
        <pt x="395" y="6" on="1"/>
        <pt x="338" y="-92" on="1"/>
        <pt x="190" y="-92" on="1"/>
        <pt x="281" y="68" on="1"/>
        <pt x="189" y="137" on="0"/>
        <pt x="92" y="365" on="0"/>
      </contour>
      <contour>
        <pt x="287" y="512" on="1"/>
        <pt x="287" y="296" on="0"/>
        <pt x="371" y="176" on="1"/>
        <pt x="766" y="883" on="1"/>
        <pt x="688" y="961" on="0"/>
        <pt x="582" y="961" on="1"/>
        <pt x="441" y="961" on="0"/>
        <pt x="287" y="713" on="0"/>
      </contour>
      <contour>
        <pt x="883" y="512" on="1"/>
        <pt x="883" y="653" on="0"/>
        <pt x="840" y="764" on="1"/>
        <pt x="469" y="88" on="1"/>
        <pt x="521" y="63" on="0"/>
        <pt x="582" y="63" on="1"/>
        <pt x="723" y="63" on="0"/>
        <pt x="883" y="312" on="0"/>
      </contour>
    </TTGlyph>
    <TTGlyph name="otilde" xMin="92" yMin="-25" xMax="1071" yMax="1450">
      <component glyphName="o" x="0" y="0" flags="0x204"/>
      <component glyphName="tilde" x="174" y="0" flags="0x4"/>
    </TTGlyph>
    <TTGlyph name="p" xMin="10" yMin="-512" xMax="1087" yMax="1049">
      <contour>
        <pt x="604" y="-471" on="1"/>
        <pt x="604" y="-512" on="1"/>
        <pt x="10" y="-512" on="1"/>
        <pt x="10" y="-471" on="1"/>
        <pt x="195" y="-399" on="1"/>
        <pt x="195" y="864" on="1"/>
        <pt x="10" y="936" on="1"/>
        <pt x="10" y="977" on="1"/>
        <pt x="358" y="1049" on="1"/>
        <pt x="379" y="1028" on="1"/>
        <pt x="379" y="926" on="1"/>
        <pt x="435" y="995" on="0"/>
        <pt x="563" y="1049" on="0"/>
        <pt x="649" y="1049" on="1"/>
        <pt x="732" y="1049" on="0"/>
        <pt x="889" y="974" on="0"/>
        <pt x="1012" y="839" on="0"/>
        <pt x="1087" y="633" on="0"/>
        <pt x="1087" y="512" on="1"/>
        <pt x="1087" y="375" on="0"/>
        <pt x="1003" y="163" on="0"/>
        <pt x="862" y="38" on="0"/>
        <pt x="692" y="-25" on="0"/>
        <pt x="598" y="-25" on="1"/>
        <pt x="479" y="-25" on="0"/>
        <pt x="379" y="18" on="1"/>
        <pt x="379" y="-399" on="1"/>
      </contour>
      <contour>
        <pt x="606" y="946" on="1"/>
        <pt x="543" y="946" on="0"/>
        <pt x="421" y="888" on="0"/>
        <pt x="379" y="836" on="1"/>
        <pt x="379" y="201" on="1"/>
        <pt x="408" y="144" on="0"/>
        <pt x="527" y="78" on="0"/>
        <pt x="598" y="78" on="1"/>
        <pt x="641" y="78" on="0"/>
        <pt x="719" y="106" on="0"/>
        <pt x="793" y="172" on="0"/>
        <pt x="847" y="270" on="0"/>
        <pt x="879" y="419" on="0"/>
        <pt x="879" y="512" on="1"/>
        <pt x="879" y="706" on="0"/>
        <pt x="735" y="946" on="0"/>
      </contour>
    </TTGlyph>
    <TTGlyph name="paragraph" xMin="113" yMin="-166" xMax="944" yMax="1374">
      <contour>
        <pt x="944" y="1374" on="1"/>
        <pt x="944" y="1251" on="1"/>
        <pt x="838" y="1251" on="1"/>
        <pt x="838" y="-166" on="1"/>
        <pt x="715" y="-166" on="1"/>
        <pt x="715" y="1251" on="1"/>
        <pt x="569" y="1251" on="1"/>
        <pt x="569" y="-166" on="1"/>
        <pt x="446" y="-166" on="1"/>
        <pt x="446" y="678" on="1"/>
        <pt x="300" y="686" on="0"/>
        <pt x="113" y="878" on="0"/>
        <pt x="113" y="1026" on="1"/>
        <pt x="113" y="1179" on="0"/>
        <pt x="313" y="1374" on="0"/>
        <pt x="465" y="1374" on="1"/>
      </contour>
    </TTGlyph>
    <TTGlyph name="parenleft" xMin="168" yMin="-428" xMax="629" yMax="1657">
      <contour>
        <pt x="573" y="-428" on="1"/>
        <pt x="390" y="-271" on="0"/>
        <pt x="168" y="269" on="0"/>
        <pt x="168" y="614" on="1"/>
        <pt x="168" y="957" on="0"/>
        <pt x="391" y="1498" on="0"/>
        <pt x="573" y="1657" on="1"/>
        <pt x="627" y="1608" on="1"/>
        <pt x="497" y="1428" on="0"/>
        <pt x="356" y="905" on="0"/>
        <pt x="356" y="614" on="1"/>
        <pt x="356" y="322" on="0"/>
        <pt x="499" y="-199" on="0"/>
        <pt x="629" y="-379" on="1"/>
      </contour>
    </TTGlyph>
    <TTGlyph name="parenright" xMin="30" yMin="-428" xMax="491" yMax="1657">
      <contour>
        <pt x="86" y="-428" on="1"/>
        <pt x="30" y="-379" on="1"/>
        <pt x="160" y="-199" on="0"/>
        <pt x="303" y="322" on="0"/>
        <pt x="303" y="614" on="1"/>
        <pt x="303" y="905" on="0"/>
        <pt x="162" y="1428" on="0"/>
        <pt x="32" y="1608" on="1"/>
        <pt x="86" y="1657" on="1"/>
        <pt x="268" y="1498" on="0"/>
        <pt x="491" y="957" on="0"/>
        <pt x="491" y="614" on="1"/>
        <pt x="491" y="269" on="0"/>
        <pt x="269" y="-271" on="0"/>
      </contour>
    </TTGlyph>
    <TTGlyph name="percent" xMin="154" yMin="-47" xMax="1653" yMax="1475">
      <contour>
        <pt x="1114" y="305" on="1"/>
        <pt x="1114" y="262" on="0"/>
        <pt x="1143" y="184" on="0"/>
        <pt x="1196" y="125" on="0"/>
        <pt x="1267" y="90" on="0"/>
        <pt x="1309" y="90" on="1"/>
        <pt x="1351" y="90" on="0"/>
        <pt x="1425" y="126" on="0"/>
        <pt x="1480" y="187" on="0"/>
        <pt x="1511" y="267" on="0"/>
        <pt x="1511" y="311" on="1"/>
        <pt x="1511" y="355" on="0"/>
        <pt x="1480" y="435" on="0"/>
        <pt x="1427" y="495" on="0"/>
        <pt x="1355" y="530" on="0"/>
        <pt x="1313" y="530" on="1"/>
        <pt x="1272" y="530" on="0"/>
        <pt x="1199" y="495" on="0"/>
        <pt x="1145" y="434" on="0"/>
        <pt x="1114" y="352" on="0"/>
      </contour>
      <contour>
        <pt x="684" y="1130" on="1"/>
        <pt x="684" y="1221" on="0"/>
        <pt x="570" y="1350" on="0"/>
        <pt x="485" y="1350" on="1"/>
        <pt x="401" y="1350" on="0"/>
        <pt x="287" y="1218" on="0"/>
        <pt x="287" y="1124" on="1"/>
        <pt x="287" y="1037" on="0"/>
        <pt x="399" y="909" on="0"/>
        <pt x="481" y="909" on="1"/>
        <pt x="566" y="909" on="0"/>
        <pt x="684" y="1040" on="0"/>
      </contour>
      <contour>
        <pt x="825" y="1130" on="1"/>
        <pt x="825" y="991" on="0"/>
        <pt x="626" y="801" on="0"/>
        <pt x="485" y="801" on="1"/>
        <pt x="340" y="801" on="0"/>
        <pt x="154" y="977" on="0"/>
        <pt x="154" y="1116" on="1"/>
        <pt x="154" y="1261" on="0"/>
        <pt x="344" y="1448" on="0"/>
        <pt x="487" y="1448" on="1"/>
        <pt x="635" y="1448" on="0"/>
        <pt x="825" y="1272" on="0"/>
      </contour>
      <contour>
        <pt x="1653" y="311" on="1"/>
        <pt x="1653" y="173" on="0"/>
        <pt x="1454" y="-18" on="0"/>
        <pt x="1313" y="-18" on="1"/>
        <pt x="1168" y="-18" on="0"/>
        <pt x="981" y="158" on="0"/>
        <pt x="981" y="297" on="1"/>
        <pt x="981" y="442" on="0"/>
        <pt x="1171" y="629" on="0"/>
        <pt x="1315" y="629" on="1"/>
        <pt x="1462" y="629" on="0"/>
        <pt x="1653" y="453" on="0"/>
      </contour>
      <contour>
        <pt x="1321" y="1475" on="1"/>
        <pt x="623" y="-47" on="1"/>
        <pt x="489" y="-47" on="1"/>
        <pt x="1188" y="1475" on="1"/>
      </contour>
    </TTGlyph>
    <TTGlyph name="period" xMin="113" yMin="-27" xMax="365" yMax="225">
      <contour>
        <pt x="240" y="225" on="1"/>
        <pt x="292" y="225" on="0"/>
        <pt x="365" y="152" on="0"/>
        <pt x="365" y="100" on="1"/>
        <pt x="365" y="47" on="0"/>
        <pt x="292" y="-27" on="0"/>
        <pt x="240" y="-27" on="1"/>
        <pt x="186" y="-27" on="0"/>
        <pt x="113" y="47" on="0"/>
        <pt x="113" y="153" on="0"/>
        <pt x="186" y="225" on="0"/>
      </contour>
    </TTGlyph>
    <TTGlyph name="periodcentered" xMin="117" yMin="379" xMax="369" yMax="631">
      <contour>
        <pt x="117" y="506" on="1"/>
        <pt x="117" y="558" on="0"/>
        <pt x="190" y="631" on="0"/>
        <pt x="244" y="631" on="1"/>
        <pt x="296" y="631" on="0"/>
        <pt x="369" y="558" on="0"/>
        <pt x="369" y="506" on="1"/>
        <pt x="369" y="452" on="0"/>
        <pt x="296" y="379" on="0"/>
        <pt x="244" y="379" on="1"/>
        <pt x="190" y="379" on="0"/>
        <pt x="117" y="452" on="0"/>
      </contour>
    </TTGlyph>
    <TTGlyph name="plus" xMin="102" yMin="141" xMax="1167" yMax="1206">
      <contour>
        <pt x="707" y="739" on="1"/>
        <pt x="1167" y="739" on="1"/>
        <pt x="1167" y="608" on="1"/>
        <pt x="707" y="608" on="1"/>
        <pt x="707" y="141" on="1"/>
        <pt x="567" y="141" on="1"/>
        <pt x="567" y="608" on="1"/>
        <pt x="102" y="608" on="1"/>
        <pt x="102" y="739" on="1"/>
        <pt x="567" y="739" on="1"/>
        <pt x="567" y="1206" on="1"/>
        <pt x="707" y="1206" on="1"/>
      </contour>
    </TTGlyph>
    <TTGlyph name="plusminus" xMin="102" yMin="61" xMax="1167" yMax="1227">
      <contour>
        <pt x="707" y="842" on="1"/>
        <pt x="1167" y="842" on="1"/>
        <pt x="1167" y="711" on="1"/>
        <pt x="707" y="711" on="1"/>
        <pt x="707" y="367" on="1"/>
        <pt x="567" y="367" on="1"/>
        <pt x="567" y="711" on="1"/>
        <pt x="102" y="711" on="1"/>
        <pt x="102" y="842" on="1"/>
        <pt x="567" y="842" on="1"/>
        <pt x="567" y="1227" on="1"/>
        <pt x="707" y="1227" on="1"/>
      </contour>
      <contour>
        <pt x="102" y="193" on="1"/>
        <pt x="1167" y="193" on="1"/>
        <pt x="1167" y="61" on="1"/>
        <pt x="102" y="61" on="1"/>
      </contour>
    </TTGlyph>
    <TTGlyph name="q" xMin="92" yMin="-512" xMax="1169" yMax="1079">
      <contour>
        <pt x="555" y="-512" on="1"/>
        <pt x="555" y="-471" on="1"/>
        <pt x="801" y="-399" on="1"/>
        <pt x="801" y="90" on="1"/>
        <pt x="742" y="33" on="0"/>
        <pt x="592" y="-25" on="0"/>
        <pt x="518" y="-25" on="1"/>
        <pt x="435" y="-25" on="0"/>
        <pt x="281" y="50" on="0"/>
        <pt x="163" y="185" on="0"/>
        <pt x="92" y="390" on="0"/>
        <pt x="92" y="512" on="1"/>
        <pt x="92" y="615" on="0"/>
        <pt x="148" y="791" on="0"/>
        <pt x="245" y="916" on="0"/>
        <pt x="375" y="1006" on="0"/>
        <pt x="526" y="1049" on="0"/>
        <pt x="606" y="1049" on="1"/>
        <pt x="738" y="1049" on="0"/>
        <pt x="860" y="991" on="1"/>
        <pt x="924" y="1079" on="1"/>
        <pt x="985" y="1079" on="1"/>
        <pt x="985" y="-399" on="1"/>
        <pt x="1169" y="-471" on="1"/>
        <pt x="1169" y="-512" on="1"/>
      </contour>
      <contour>
        <pt x="588" y="82" on="1"/>
        <pt x="708" y="82" on="0"/>
        <pt x="801" y="201" on="1"/>
        <pt x="801" y="852" on="1"/>
        <pt x="751" y="909" on="0"/>
        <pt x="652" y="946" on="0"/>
        <pt x="596" y="946" on="1"/>
        <pt x="502" y="946" on="0"/>
        <pt x="365" y="820" on="0"/>
        <pt x="301" y="627" on="0"/>
        <pt x="301" y="512" on="1"/>
        <pt x="301" y="318" on="0"/>
        <pt x="452" y="82" on="0"/>
      </contour>
    </TTGlyph>
    <TTGlyph name="question" xMin="113" yMin="-27" xMax="953" yMax="1516">
      <contour>
        <pt x="953" y="1156" on="1"/>
        <pt x="950" y="912" on="0"/>
        <pt x="752" y="745" on="1"/>
        <pt x="526" y="545" on="1"/>
        <pt x="526" y="356" on="1"/>
        <pt x="424" y="356" on="1"/>
        <pt x="424" y="600" on="1"/>
        <pt x="621" y="811" on="1"/>
        <pt x="680" y="882" on="0"/>
        <pt x="737" y="1040" on="0"/>
        <pt x="737" y="1125" on="1"/>
        <pt x="737" y="1272" on="0"/>
        <pt x="549" y="1413" on="0"/>
        <pt x="426" y="1402" on="1"/>
        <pt x="351" y="1402" on="0"/>
        <pt x="281" y="1382" on="1"/>
        <pt x="174" y="1085" on="1"/>
        <pt x="113" y="1085" on="1"/>
        <pt x="113" y="1455" on="1"/>
        <pt x="280" y="1516" on="0"/>
        <pt x="464" y="1516" on="1"/>
        <pt x="693" y="1516" on="0"/>
        <pt x="950" y="1326" on="0"/>
      </contour>
      <contour>
        <pt x="475" y="-27" on="1"/>
        <pt x="423" y="-27" on="0"/>
        <pt x="350" y="46" on="0"/>
        <pt x="350" y="98" on="1"/>
        <pt x="350" y="151" on="0"/>
        <pt x="423" y="225" on="0"/>
        <pt x="475" y="225" on="1"/>
        <pt x="529" y="225" on="0"/>
        <pt x="602" y="151" on="0"/>
        <pt x="602" y="45" on="0"/>
        <pt x="529" y="-27" on="0"/>
      </contour>
    </TTGlyph>
    <TTGlyph name="questiondown" xMin="61" yMin="-244" xMax="901" yMax="1299">
      <contour>
        <pt x="61" y="116" on="1"/>
        <pt x="64" y="360" on="0"/>
        <pt x="262" y="527" on="1"/>
        <pt x="488" y="727" on="1"/>
        <pt x="488" y="916" on="1"/>
        <pt x="590" y="916" on="1"/>
        <pt x="590" y="672" on="1"/>
        <pt x="393" y="461" on="1"/>
        <pt x="334" y="390" on="0"/>
        <pt x="277" y="232" on="0"/>
        <pt x="277" y="147" on="1"/>
        <pt x="277" y="0" on="0"/>
        <pt x="465" y="-141" on="0"/>
        <pt x="588" y="-130" on="1"/>
        <pt x="663" y="-130" on="0"/>
        <pt x="733" y="-110" on="1"/>
        <pt x="840" y="187" on="1"/>
        <pt x="901" y="187" on="1"/>
        <pt x="901" y="-183" on="1"/>
        <pt x="734" y="-244" on="0"/>
        <pt x="550" y="-244" on="1"/>
        <pt x="321" y="-244" on="0"/>
        <pt x="64" y="-54" on="0"/>
      </contour>
      <contour>
        <pt x="539" y="1299" on="1"/>
        <pt x="591" y="1299" on="0"/>
        <pt x="664" y="1226" on="0"/>
        <pt x="664" y="1174" on="1"/>
        <pt x="664" y="1121" on="0"/>
        <pt x="591" y="1047" on="0"/>
        <pt x="539" y="1047" on="1"/>
        <pt x="485" y="1047" on="0"/>
        <pt x="412" y="1121" on="0"/>
        <pt x="412" y="1227" on="0"/>
        <pt x="485" y="1299" on="0"/>
      </contour>
    </TTGlyph>
    <TTGlyph name="quotedbl" xMin="104" yMin="969" xMax="557" yMax="1499">
      <contour>
        <pt x="141" y="969" on="1"/>
        <pt x="104" y="1499" on="1"/>
        <pt x="270" y="1499" on="1"/>
        <pt x="229" y="969" on="1"/>
      </contour>
      <contour>
        <pt x="428" y="969" on="1"/>
        <pt x="391" y="1499" on="1"/>
        <pt x="557" y="1499" on="1"/>
        <pt x="516" y="969" on="1"/>
      </contour>
    </TTGlyph>
    <TTGlyph name="quotedblbase" xMin="113" yMin="-330" xMax="852" yMax="223">
      <contour>
        <pt x="723" y="223" on="1"/>
        <pt x="789" y="223" on="0"/>
        <pt x="852" y="128" on="0"/>
        <pt x="852" y="55" on="1"/>
        <pt x="852" y="-79" on="0"/>
        <pt x="682" y="-294" on="0"/>
        <pt x="555" y="-330" on="1"/>
        <pt x="522" y="-268" on="1"/>
        <pt x="608" y="-228" on="0"/>
        <pt x="725" y="-112" on="0"/>
        <pt x="725" y="-47" on="1"/>
        <pt x="723" y="-29" on="1"/>
        <pt x="669" y="-29" on="0"/>
        <pt x="596" y="45" on="0"/>
        <pt x="596" y="151" on="0"/>
        <pt x="669" y="223" on="0"/>
      </contour>
      <contour>
        <pt x="186" y="98" on="1"/>
        <pt x="186" y="150" on="0"/>
        <pt x="260" y="223" on="0"/>
        <pt x="313" y="223" on="1"/>
        <pt x="380" y="223" on="0"/>
        <pt x="442" y="128" on="0"/>
        <pt x="442" y="55" on="1"/>
        <pt x="442" y="-79" on="0"/>
        <pt x="272" y="-294" on="0"/>
        <pt x="145" y="-330" on="1"/>
        <pt x="113" y="-268" on="1"/>
        <pt x="198" y="-228" on="0"/>
        <pt x="315" y="-112" on="0"/>
        <pt x="315" y="-47" on="1"/>
        <pt x="313" y="-29" on="1"/>
        <pt x="260" y="-29" on="0"/>
        <pt x="186" y="45" on="0"/>
      </contour>
    </TTGlyph>
    <TTGlyph name="quotedblleft" xMin="154" yMin="963" xMax="893" yMax="1516">
      <contour>
        <pt x="410" y="1087" on="1"/>
        <pt x="410" y="1035" on="0"/>
        <pt x="336" y="963" on="0"/>
        <pt x="283" y="963" on="1"/>
        <pt x="216" y="963" on="0"/>
        <pt x="154" y="1057" on="0"/>
        <pt x="154" y="1130" on="1"/>
        <pt x="154" y="1265" on="0"/>
        <pt x="324" y="1479" on="0"/>
        <pt x="451" y="1516" on="1"/>
        <pt x="483" y="1454" on="1"/>
        <pt x="398" y="1414" on="0"/>
        <pt x="281" y="1298" on="0"/>
        <pt x="281" y="1233" on="1"/>
        <pt x="283" y="1214" on="1"/>
        <pt x="336" y="1214" on="0"/>
        <pt x="410" y="1141" on="0"/>
      </contour>
      <contour>
        <pt x="819" y="1087" on="1"/>
        <pt x="819" y="1035" on="0"/>
        <pt x="746" y="963" on="0"/>
        <pt x="692" y="963" on="1"/>
        <pt x="626" y="963" on="0"/>
        <pt x="563" y="1057" on="0"/>
        <pt x="563" y="1130" on="1"/>
        <pt x="563" y="1265" on="0"/>
        <pt x="733" y="1479" on="0"/>
        <pt x="860" y="1516" on="1"/>
        <pt x="893" y="1454" on="1"/>
        <pt x="808" y="1414" on="0"/>
        <pt x="690" y="1298" on="0"/>
        <pt x="690" y="1233" on="1"/>
        <pt x="692" y="1214" on="1"/>
        <pt x="746" y="1214" on="0"/>
        <pt x="819" y="1141" on="0"/>
      </contour>
    </TTGlyph>
    <TTGlyph name="quotedblright" xMin="72" yMin="963" xMax="811" yMax="1516">
      <contour>
        <pt x="555" y="1391" on="1"/>
        <pt x="555" y="1443" on="0"/>
        <pt x="628" y="1516" on="0"/>
        <pt x="682" y="1516" on="1"/>
        <pt x="748" y="1516" on="0"/>
        <pt x="811" y="1421" on="0"/>
        <pt x="811" y="1348" on="1"/>
        <pt x="811" y="1213" on="0"/>
        <pt x="641" y="999" on="0"/>
        <pt x="514" y="963" on="1"/>
        <pt x="481" y="1024" on="1"/>
        <pt x="567" y="1064" on="0"/>
        <pt x="684" y="1180" on="0"/>
        <pt x="684" y="1245" on="1"/>
        <pt x="682" y="1264" on="1"/>
        <pt x="628" y="1264" on="0"/>
        <pt x="555" y="1337" on="0"/>
      </contour>
      <contour>
        <pt x="145" y="1391" on="1"/>
        <pt x="145" y="1443" on="0"/>
        <pt x="219" y="1516" on="0"/>
        <pt x="272" y="1516" on="1"/>
        <pt x="339" y="1516" on="0"/>
        <pt x="401" y="1421" on="0"/>
        <pt x="401" y="1348" on="1"/>
        <pt x="401" y="1213" on="0"/>
        <pt x="231" y="999" on="0"/>
        <pt x="104" y="963" on="1"/>
        <pt x="72" y="1024" on="1"/>
        <pt x="157" y="1064" on="0"/>
        <pt x="274" y="1180" on="0"/>
        <pt x="274" y="1245" on="1"/>
        <pt x="272" y="1264" on="1"/>
        <pt x="219" y="1264" on="0"/>
        <pt x="145" y="1337" on="0"/>
      </contour>
    </TTGlyph>
    <TTGlyph name="quoteleft" xMin="154" yMin="963" xMax="483" yMax="1516">
      <contour>
        <pt x="410" y="1087" on="1"/>
        <pt x="410" y="1035" on="0"/>
        <pt x="336" y="963" on="0"/>
        <pt x="283" y="963" on="1"/>
        <pt x="216" y="963" on="0"/>
        <pt x="154" y="1057" on="0"/>
        <pt x="154" y="1130" on="1"/>
        <pt x="154" y="1265" on="0"/>
        <pt x="324" y="1479" on="0"/>
        <pt x="451" y="1516" on="1"/>
        <pt x="483" y="1454" on="1"/>
        <pt x="398" y="1414" on="0"/>
        <pt x="281" y="1298" on="0"/>
        <pt x="281" y="1233" on="1"/>
        <pt x="283" y="1214" on="1"/>
        <pt x="336" y="1214" on="0"/>
        <pt x="410" y="1141" on="0"/>
      </contour>
    </TTGlyph>
    <TTGlyph name="quoteright" xMin="72" yMin="963" xMax="401" yMax="1516">
      <contour>
        <pt x="145" y="1391" on="1"/>
        <pt x="145" y="1443" on="0"/>
        <pt x="219" y="1516" on="0"/>
        <pt x="272" y="1516" on="1"/>
        <pt x="339" y="1516" on="0"/>
        <pt x="401" y="1421" on="0"/>
        <pt x="401" y="1348" on="1"/>
        <pt x="401" y="1213" on="0"/>
        <pt x="231" y="999" on="0"/>
        <pt x="104" y="963" on="1"/>
        <pt x="72" y="1024" on="1"/>
        <pt x="157" y="1064" on="0"/>
        <pt x="274" y="1180" on="0"/>
        <pt x="274" y="1245" on="1"/>
        <pt x="272" y="1264" on="1"/>
        <pt x="219" y="1264" on="0"/>
        <pt x="145" y="1337" on="0"/>
      </contour>
    </TTGlyph>
    <TTGlyph name="quotesinglbase" xMin="113" yMin="-328" xMax="442" yMax="225">
      <contour>
        <pt x="186" y="100" on="1"/>
        <pt x="186" y="152" on="0"/>
        <pt x="260" y="225" on="0"/>
        <pt x="313" y="225" on="1"/>
        <pt x="380" y="225" on="0"/>
        <pt x="442" y="130" on="0"/>
        <pt x="442" y="57" on="1"/>
        <pt x="442" y="-77" on="0"/>
        <pt x="272" y="-292" on="0"/>
        <pt x="145" y="-328" on="1"/>
        <pt x="113" y="-266" on="1"/>
        <pt x="198" y="-226" on="0"/>
        <pt x="315" y="-110" on="0"/>
        <pt x="315" y="-45" on="1"/>
        <pt x="313" y="-27" on="1"/>
        <pt x="260" y="-27" on="0"/>
        <pt x="186" y="47" on="0"/>
      </contour>
    </TTGlyph>
    <TTGlyph name="quotesingle" xMin="104" yMin="969" xMax="270" yMax="1499">
      <contour>
        <pt x="141" y="969" on="1"/>
        <pt x="104" y="1499" on="1"/>
        <pt x="270" y="1499" on="1"/>
        <pt x="229" y="969" on="1"/>
      </contour>
    </TTGlyph>
    <TTGlyph name="r" xMin="72" yMin="0" xMax="840" yMax="1049">
      <contour>
        <pt x="676" y="41" on="1"/>
        <pt x="676" y="0" on="1"/>
        <pt x="72" y="0" on="1"/>
        <pt x="72" y="41" on="1"/>
        <pt x="256" y="113" on="1"/>
        <pt x="256" y="864" on="1"/>
        <pt x="72" y="936" on="1"/>
        <pt x="72" y="977" on="1"/>
        <pt x="420" y="1049" on="1"/>
        <pt x="440" y="1028" on="1"/>
        <pt x="440" y="905" on="1"/>
        <pt x="592" y="1049" on="0"/>
        <pt x="840" y="1049" on="1"/>
        <pt x="840" y="827" on="1"/>
        <pt x="799" y="813" on="1"/>
        <pt x="653" y="893" on="1"/>
        <pt x="608" y="893" on="0"/>
        <pt x="492" y="854" on="0"/>
        <pt x="440" y="817" on="1"/>
        <pt x="440" y="113" on="1"/>
      </contour>
    </TTGlyph>
    <TTGlyph name="registered" xMin="113" yMin="-25" xMax="1579" yMax="1470">
      <contour>
        <pt x="1456" y="731" on="1"/>
        <pt x="1456" y="816" on="0"/>
        <pt x="1418" y="976" on="0"/>
        <pt x="1345" y="1116" on="0"/>
        <pt x="1240" y="1232" on="0"/>
        <pt x="1106" y="1316" on="0"/>
        <pt x="947" y="1362" on="0"/>
        <pt x="856" y="1362" on="1"/>
        <pt x="726" y="1362" on="0"/>
        <pt x="501" y="1265" on="0"/>
        <pt x="334" y="1094" on="0"/>
        <pt x="238" y="860" on="0"/>
        <pt x="238" y="723" on="1"/>
        <pt x="238" y="594" on="0"/>
        <pt x="327" y="363" on="0"/>
        <pt x="487" y="187" on="0"/>
        <pt x="712" y="84" on="0"/>
        <pt x="848" y="84" on="1"/>
        <pt x="978" y="84" on="0"/>
        <pt x="1201" y="185" on="0"/>
        <pt x="1364" y="360" on="0"/>
        <pt x="1456" y="596" on="0"/>
      </contour>
      <contour>
        <pt x="1579" y="731" on="1"/>
        <pt x="1579" y="582" on="0"/>
        <pt x="1464" y="304" on="0"/>
        <pt x="1270" y="99" on="0"/>
        <pt x="995" y="-25" on="0"/>
        <pt x="844" y="-25" on="1"/>
        <pt x="643" y="-25" on="0"/>
        <pt x="306" y="175" on="0"/>
        <pt x="113" y="519" on="0"/>
        <pt x="113" y="723" on="1"/>
        <pt x="113" y="876" on="0"/>
        <pt x="229" y="1153" on="0"/>
        <pt x="427" y="1353" on="0"/>
        <pt x="703" y="1470" on="0"/>
        <pt x="856" y="1470" on="1"/>
        <pt x="1010" y="1470" on="0"/>
        <pt x="1281" y="1354" on="0"/>
        <pt x="1470" y="1156" on="0"/>
        <pt x="1579" y="884" on="0"/>
      </contour>
      <contour>
        <pt x="1053" y="328" on="1"/>
        <pt x="866" y="662" on="1"/>
        <pt x="809" y="655" on="0"/>
        <pt x="733" y="666" on="1"/>
        <pt x="733" y="399" on="1"/>
        <pt x="854" y="358" on="1"/>
        <pt x="854" y="328" on="1"/>
        <pt x="510" y="328" on="1"/>
        <pt x="510" y="358" on="1"/>
        <pt x="610" y="399" on="1"/>
        <pt x="610" y="1057" on="1"/>
        <pt x="510" y="1098" on="1"/>
        <pt x="510" y="1128" on="1"/>
        <pt x="838" y="1128" on="1"/>
        <pt x="980" y="1128" on="0"/>
        <pt x="1133" y="1007" on="0"/>
        <pt x="1133" y="907" on="1"/>
        <pt x="1133" y="835" on="0"/>
        <pt x="1056" y="720" on="0"/>
        <pt x="983" y="688" on="1"/>
        <pt x="1149" y="393" on="1"/>
        <pt x="1243" y="358" on="1"/>
        <pt x="1243" y="328" on="1"/>
      </contour>
      <contour>
        <pt x="844" y="1044" on="1"/>
        <pt x="733" y="1044" on="1"/>
        <pt x="733" y="750" on="1"/>
        <pt x="837" y="734" on="0"/>
        <pt x="957" y="765" on="0"/>
        <pt x="1004" y="834" on="0"/>
        <pt x="1004" y="895" on="1"/>
        <pt x="1004" y="979" on="0"/>
        <pt x="928" y="1044" on="0"/>
      </contour>
    </TTGlyph>
    <TTGlyph name="ring" xMin="57" yMin="1178" xMax="479" yMax="1602">
      <contour>
        <pt x="57" y="1391" on="1"/>
        <pt x="57" y="1434" on="0"/>
        <pt x="91" y="1510" on="0"/>
        <pt x="149" y="1568" on="0"/>
        <pt x="226" y="1602" on="0"/>
        <pt x="268" y="1602" on="1"/>
        <pt x="310" y="1602" on="0"/>
        <pt x="387" y="1568" on="0"/>
        <pt x="445" y="1510" on="0"/>
        <pt x="479" y="1433" on="0"/>
        <pt x="479" y="1391" on="1"/>
        <pt x="479" y="1348" on="0"/>
        <pt x="445" y="1271" on="0"/>
        <pt x="388" y="1212" on="0"/>
        <pt x="311" y="1178" on="0"/>
        <pt x="268" y="1178" on="1"/>
        <pt x="226" y="1178" on="0"/>
        <pt x="149" y="1212" on="0"/>
        <pt x="91" y="1270" on="0"/>
        <pt x="57" y="1347" on="0"/>
      </contour>
      <contour>
        <pt x="266" y="1278" on="1"/>
        <pt x="290" y="1278" on="0"/>
        <pt x="331" y="1295" on="0"/>
        <pt x="362" y="1325" on="0"/>
        <pt x="379" y="1365" on="0"/>
        <pt x="379" y="1389" on="1"/>
        <pt x="379" y="1412" on="0"/>
        <pt x="362" y="1452" on="0"/>
        <pt x="331" y="1482" on="0"/>
        <pt x="290" y="1499" on="0"/>
        <pt x="266" y="1499" on="1"/>
        <pt x="243" y="1499" on="0"/>
        <pt x="203" y="1482" on="0"/>
        <pt x="173" y="1452" on="0"/>
        <pt x="156" y="1412" on="0"/>
        <pt x="156" y="1389" on="1"/>
        <pt x="156" y="1366" on="0"/>
        <pt x="173" y="1326" on="0"/>
        <pt x="203" y="1296" on="0"/>
        <pt x="243" y="1278" on="0"/>
      </contour>
    </TTGlyph>
    <TTGlyph name="s" xMin="123" yMin="-29" xMax="852" yMax="1049">
      <contour>
        <pt x="174" y="338" on="1"/>
        <pt x="281" y="111" on="1"/>
        <pt x="294" y="103" on="0"/>
        <pt x="332" y="90" on="0"/>
        <pt x="376" y="80" on="0"/>
        <pt x="422" y="74" on="0"/>
        <pt x="444" y="74" on="1"/>
        <pt x="495" y="74" on="0"/>
        <pt x="578" y="95" on="0"/>
        <pt x="638" y="134" on="0"/>
        <pt x="670" y="191" on="0"/>
        <pt x="670" y="227" on="1"/>
        <pt x="670" y="274" on="0"/>
        <pt x="593" y="359" on="0"/>
        <pt x="523" y="399" on="1"/>
        <pt x="416" y="459" on="1"/>
        <pt x="359" y="489" on="0"/>
        <pt x="260" y="553" on="0"/>
        <pt x="186" y="629" on="0"/>
        <pt x="143" y="721" on="0"/>
        <pt x="143" y="778" on="1"/>
        <pt x="143" y="847" on="0"/>
        <pt x="197" y="949" on="0"/>
        <pt x="297" y="1016" on="0"/>
        <pt x="438" y="1049" on="0"/>
        <pt x="524" y="1049" on="1"/>
        <pt x="656" y="1049" on="0"/>
        <pt x="788" y="1006" on="1"/>
        <pt x="784" y="717" on="1"/>
        <pt x="743" y="717" on="1"/>
        <pt x="637" y="952" on="1"/>
        <pt x="599" y="957" on="0"/>
        <pt x="544" y="963" on="0"/>
        <pt x="526" y="963" on="1"/>
        <pt x="472" y="963" on="0"/>
        <pt x="393" y="938" on="0"/>
        <pt x="342" y="897" on="0"/>
        <pt x="317" y="845" on="0"/>
        <pt x="317" y="817" on="1"/>
        <pt x="317" y="784" on="0"/>
        <pt x="342" y="731" on="0"/>
        <pt x="391" y="683" on="0"/>
        <pt x="465" y="636" on="0"/>
        <pt x="514" y="610" on="1"/>
        <pt x="584" y="572" on="0"/>
        <pt x="675" y="524" on="0"/>
        <pt x="695" y="510" on="1"/>
        <pt x="852" y="405" on="0"/>
        <pt x="852" y="268" on="1"/>
        <pt x="852" y="194" on="0"/>
        <pt x="781" y="83" on="0"/>
        <pt x="666" y="8" on="0"/>
        <pt x="522" y="-29" on="0"/>
        <pt x="449" y="-29" on="1"/>
        <pt x="411" y="-29" on="0"/>
        <pt x="323" y="-19" on="0"/>
        <pt x="235" y="-1" on="0"/>
        <pt x="154" y="24" on="0"/>
        <pt x="123" y="39" on="1"/>
        <pt x="123" y="338" on="1"/>
      </contour>
    </TTGlyph>
    <TTGlyph name="section" xMin="219" yMin="-295" xMax="1026" yMax="1538">
      <contour>
        <pt x="383" y="-152" on="1"/>
        <pt x="508" y="-182" on="0"/>
        <pt x="598" y="-184" on="1"/>
        <pt x="699" y="-187" on="0"/>
        <pt x="807" y="-98" on="0"/>
        <pt x="807" y="-12" on="1"/>
        <pt x="807" y="62" on="0"/>
        <pt x="704" y="157" on="0"/>
        <pt x="512" y="266" on="1"/>
        <pt x="467" y="292" on="0"/>
        <pt x="419" y="322" on="0"/>
        <pt x="338" y="378" on="0"/>
        <pt x="291" y="429" on="0"/>
        <pt x="242" y="499" on="0"/>
        <pt x="219" y="582" on="0"/>
        <pt x="219" y="629" on="1"/>
        <pt x="219" y="850" on="0"/>
        <pt x="438" y="977" on="1"/>
        <pt x="350" y="1033" on="0"/>
        <pt x="254" y="1162" on="0"/>
        <pt x="254" y="1251" on="1"/>
        <pt x="254" y="1380" on="0"/>
        <pt x="458" y="1538" on="0"/>
        <pt x="635" y="1538" on="1"/>
        <pt x="767" y="1538" on="0"/>
        <pt x="924" y="1497" on="1"/>
        <pt x="924" y="1217" on="1"/>
        <pt x="874" y="1217" on="1"/>
        <pt x="825" y="1409" on="1"/>
        <pt x="715" y="1452" on="0"/>
        <pt x="616" y="1452" on="1"/>
        <pt x="526" y="1452" on="0"/>
        <pt x="414" y="1367" on="0"/>
        <pt x="414" y="1286" on="1"/>
        <pt x="414" y="1230" on="0"/>
        <pt x="517" y="1131" on="0"/>
        <pt x="674" y="1036" on="1"/>
        <pt x="877" y="915" on="0"/>
        <pt x="1026" y="754" on="0"/>
        <pt x="1026" y="639" on="1"/>
        <pt x="1026" y="536" on="0"/>
        <pt x="926" y="374" on="0"/>
        <pt x="819" y="272" on="1"/>
        <pt x="894" y="217" on="0"/>
        <pt x="963" y="104" on="0"/>
        <pt x="963" y="27" on="1"/>
        <pt x="963" y="-39" on="0"/>
        <pt x="915" y="-153" on="0"/>
        <pt x="822" y="-243" on="0"/>
        <pt x="673" y="-295" on="0"/>
        <pt x="578" y="-295" on="1"/>
        <pt x="440" y="-295" on="0"/>
        <pt x="246" y="-236" on="1"/>
        <pt x="246" y="96" on="1"/>
        <pt x="293" y="96" on="1"/>
      </contour>
      <contour>
        <pt x="580" y="897" on="1"/>
        <pt x="532" y="922" on="1"/>
        <pt x="369" y="822" on="0"/>
        <pt x="369" y="674" on="1"/>
        <pt x="369" y="595" on="0"/>
        <pt x="478" y="483" on="0"/>
        <pt x="614" y="403" on="1"/>
        <pt x="725" y="336" on="1"/>
        <pt x="850" y="479" on="0"/>
        <pt x="850" y="600" on="1"/>
        <pt x="850" y="687" on="0"/>
        <pt x="711" y="826" on="0"/>
      </contour>
    </TTGlyph>
    <TTGlyph name="semicolon" xMin="154" yMin="-328" xMax="487" yMax="1036">
      <contour>
        <pt x="362" y="1036" on="1"/>
        <pt x="414" y="1036" on="0"/>
        <pt x="487" y="964" on="0"/>
        <pt x="487" y="858" on="0"/>
        <pt x="414" y="784" on="0"/>
        <pt x="362" y="784" on="1"/>
        <pt x="309" y="784" on="0"/>
        <pt x="236" y="858" on="0"/>
        <pt x="236" y="964" on="0"/>
        <pt x="309" y="1036" on="0"/>
      </contour>
      <contour>
        <pt x="227" y="100" on="1"/>
        <pt x="227" y="152" on="0"/>
        <pt x="301" y="225" on="0"/>
        <pt x="354" y="225" on="1"/>
        <pt x="421" y="225" on="0"/>
        <pt x="483" y="130" on="0"/>
        <pt x="483" y="57" on="1"/>
        <pt x="483" y="-77" on="0"/>
        <pt x="313" y="-292" on="0"/>
        <pt x="186" y="-328" on="1"/>
        <pt x="154" y="-266" on="1"/>
        <pt x="239" y="-226" on="0"/>
        <pt x="356" y="-110" on="0"/>
        <pt x="356" y="-45" on="1"/>
        <pt x="354" y="-27" on="1"/>
        <pt x="301" y="-27" on="0"/>
        <pt x="227" y="47" on="0"/>
      </contour>
    </TTGlyph>
</ttFont>
